{
.appVersion = "3091";
.formatVersion = 3;
customParameters = (
{
name = vendorID;
value = "ULA ";
},
{
name = panose;
value = (
0,
0,
5,
0,
0,
0,
0,
0,
0,
0
);
},
{
name = unicodeRanges;
value = (
0,
1,
2,
3,
9,
29,
32,
33
);
},
{
name = codePageRanges;
value = (
"1252",
"1250",
"1251",
"1254",
"1257",
"1258",
"bit 29"
);
},
{
name = fsType;
value = (
);
},
{
name = glyphOrder;
value = (
.notdef,
.null,
CR,
NULL,
space,
exclam,
quotedbl,
numbersign,
dollar,
percent,
ampersand,
quotesingle,
parenleft,
parenright,
asterisk,
plus,
comma,
hyphen,
period,
slash,
zero,
one,
two,
three,
four,
five,
six,
seven,
eight,
nine,
colon,
semicolon,
less,
equal,
greater,
question,
at,
A,
B,
C,
D,
E,
F,
G,
H,
I,
J,
K,
L,
M,
N,
O,
P,
Q,
R,
S,
T,
U,
V,
W,
X,
Y,
Z,
bracketleft,
backslash,
bracketright,
asciicircum,
underscore,
grave,
a,
b,
c,
d,
e,
f,
g,
h,
i,
j,
k,
l,
m,
n,
o,
p,
q,
r,
s,
t,
u,
v,
w,
x,
y,
z,
braceleft,
bar,
braceright,
asciitilde,
uni00A0,
exclamdown,
cent,
sterling,
currency,
yen,
brokenbar,
section,
dieresis,
copyright,
ordfeminine,
guillemotleft,
logicalnot,
uni00AD,
registered,
macron,
degree,
plusminus,
uni00B2,
uni00B3,
acute,
uni00B5,
paragraph,
periodcentered,
cedilla,
uni00B9,
ordmasculine,
guillemotright,
onequarter,
onehalf,
threequarters,
questiondown,
Agrave,
Aacute,
Acircumflex,
Atilde,
Adieresis,
Aring,
AE,
Ccedilla,
Egrave,
Eacute,
Ecircumflex,
Edieresis,
Igrave,
Iacute,
Icircumflex,
Idieresis,
Eth,
Ntilde,
Ograve,
Oacute,
Ocircumflex,
Otilde,
Odieresis,
multiply,
Oslash,
Ugrave,
Uacute,
Ucircumflex,
Udieresis,
Yacute,
Thorn,
germandbls,
agrave,
aacute,
acircumflex,
atilde,
adieresis,
aring,
ae,
ccedilla,
egrave,
eacute,
ecircumflex,
edieresis,
igrave,
iacute,
icircumflex,
idieresis,
eth,
ntilde,
ograve,
oacute,
ocircumflex,
otilde,
odieresis,
divide,
oslash,
ugrave,
uacute,
ucircumflex,
udieresis,
yacute,
thorn,
ydieresis,
Amacron,
amacron,
Abreve,
abreve,
Aogonek,
aogonek,
Cacute,
cacute,
Ccircumflex,
ccircumflex,
Cdotaccent,
cdotaccent,
Ccaron,

glyphs = (
{
glyphname = .notdef;
layers = (
{
layerId = m01;
shapes = (
{
closed = 1;
nodes = (
(547,0,l),
(547,700,l),
(40,700,l),
(40,0,l)
);
},
{
closed = 1;
nodes = (
(120,630,l),
(467,630,l),
(467,70,l),
(120,70,l)
);
}
);
userData = {
assembly = "NPUSHB[ ]	/* 38 values pushed */
0 0 0 2 3 0 2 101 4 1 3 1 1 3 85 4 1 3 3 1 93 0 1 3 1 77 4 4 4 7 4 7 18 17 16 5 13 23 
CALL[ ]	/* CallFunction */";
};
width = 587;
}
);
note = .notdef;
},
{
glyphname = exclam;
kernLeft = exclam;
kernRight = exclam;
layers = (
{
layerId = m01;
shapes = (
{
closed = 1;
nodes = (
(157,210,l),
(172,700,l),
(88,700,l),
(102,210,l)
);
},
{
closed = 1;
nodes = (
(152,-5,o),
(182,26,o),
(182,47,qs),
(182,69,o),
(152,98,o),
(130,98,qs),
(107,98,o),
(77,69,o),
(77,47,qs),
(77,26,o),
(108,-5,o),
(130,-5,qs)
);
}
);
userData = {
assembly = "NPUSHB[ ]	/* 34 values pushed */
0 1 1 0 93 0 0 0 66 75 0 2 2 3 95 4 1 3 3 76 3 76 4 4 4 15 4 14 37 17 16 5 10 23 
CALL[ ]	/* CallFunction */";
};
width = 260;
}
);
note = exclam;
unicode = 33;
},
{
glyphname = numbersign;
layers = (
{
layerId = m01;
shapes = (
{
closed = 1;
nodes = (
(666,510,l),
(525,510,l),
(548,700,l),
(494,700,l),
(471,510,l),
(265,510,l),
(289,700,l),
(234,700,l),
(211,510,l),
(61,510,l),
(61,455,l),
(204,455,l),
(178,245,l),
(29,245,l),
(29,190,l),
(171,190,l),
(148,0,l),
(202,0,l),
(226,190,l),
(431,190,l),
(408,0,l),
(462,0,l),
(485,190,l),
(634,190,l),
(634,245,l),
(492,245,l),
(518,455,l),
(666,455,l)
);
},
{
closed = 1;
nodes = (
(232,245,l),
(259,455,l),
(464,455,l),
(438,245,l)
);
}
);
userData = {
assembly = "MPPEM[ ]	/* MeasurePixelPerEm */
PUSHB[ ]	/* 1 value pushed */
31 
LT[ ]	/* LessThan */
IF[ ]	/* If */
NPUSHB[ ]	/* 40 values pushed */
15 6 2 0 5 3 2 1 2 0 1 101 11 1 9 9 66 75 14 16 13 3 7 7 8 93 12 10 2 8 8 69 75 4 1 2 2 67 2 76 
ELSE[ ]	/* Else */
NPUSHB[ ]	/* 38 values pushed */
12 10 2 8 14 16 13 3 7 0 8 7 102 15 6 2 0 5 3 2 1 2 0 1 101 11 1 9 9 66 75 4 1 2 2 67 2 76 
EIF[ ]	/* EndIf */
NPUSHB[ ]	/* 30 values pushed */
0 0 31 30 29 28 0 27 0 27 26 25 24 23 22 21 20 19 17 17 17 17 17 17 17 17 17 17 10 29 
CALL[ ]	/* CallFunction */";
};
width = 696;
}
);
note = numbersign;
unicode = 35;
},
{
glyphname = dollar;
kernLeft = dollar;
kernRight = dollar;
layers = (
{
layerId = m01;
shapes = (
{
closed = 1;
nodes = (
(568,247,o),
(504,323,o),
(410,360,o),
(336,378,q),
(336,643,l),
(381,641,o),
(473,611,o),
(514,585,q),
(539,644,l),
(500,671,o),
(393,704,o),
(336,706,q),
(336,820,l),
(286,820,l),
(286,705,l),
(176,696,o),
(64,591,o),
(64,514,qs),
(64,452,o),
(125,377,o),
(217,338,o),
(286,321,q),
(286,58,l),
(224,62,o),
(111,108,o),
(76,142,q),
(47,85,l),
(84,47,o),
(213,-2,o),
(286,-6,q),
(286,-120,l),
(336,-120,l),
(336,-5,l),
(450,1,o),
(568,108,o),
(568,185,qs)
);
},
{
closed = 1;
nodes = (
(137,566,o),
(212,635,o),
(286,641,q),
(286,391,l),
(214,410,o),
(137,464,o),
(137,516,qs)
);
},
{
closed = 1;
nodes = (
(336,308,l),
(413,289,o),
(495,235,o),
(495,181,qs),
(495,130,o),
(415,64,o),
(336,58,q)
);
}
);
userData = {
assembly = "NPUSHB[ ]	/* 68 values pushed */
26 1 6 5 48 39 38 31 27 13 9 8 8 3 6 49 1 0 3 3 74 20 1 5 1 73 0 4 5 4 131 0 1 0 1 132 0 6 6 5 95 0 5 5 72 75 0 3 3 0 95 2 1 0 0 67 0 76 21 17 25 21 17 17 17 7 10 27 
CALL[ ]	/* CallFunction */";
};
width = 615;
}
);
note = dollar;
unicode = 36;
},
{
glyphname = percent;
kernLeft = percent;
kernRight = percent;
layers = (
{
layerId = m01;
shapes = (
{
closed = 1;
nodes = (
(270,325,o),
(358,429,o),
(358,515,qs),
(358,601,o),
(270,705,o),
(200,705,qs),
(129,705,o),
(42,600,o),
(42,515,qs),
(42,430,o),
(129,325,o),
(200,325,qs)
);
},
{
closed = 1;
nodes = (
(205,0,l),
(683,700,l),
(624,700,l),
(146,0,l)
);
},
{
closed = 1;
nodes = (
(150,370,o),
(92,448,o),
(92,515,qs),
(92,582,o),
(150,660,o),
(200,660,qs),
(249,660,o),
(308,583,o),
(308,515,qs),
(308,447,o),
(249,370,o),
(200,370,qs)
);
},
{
closed = 1;
nodes = (
(700,-5,o),
(787,100,o),
(787,185,qs),
(787,270,o),
(700,375,o),
(629,375,qs),
(559,375,o),
(471,270,o),
(471,185,qs),
(471,100,o),
(559,-5,o),
(629,-5,qs)
);
},
{
closed = 1;
nodes = (
(580,40,o),
(521,117,o),
(521,185,qs),
(521,253,o),
(580,330,o),
(629,330,qs),
(679,330,o),
(737,252,o),
(737,185,qs),
(737,118,o),
(679,40,o),
(629,40,qs)
);
}
);
userData = {
assembly = "MPPEM[ ]	/* MeasurePixelPerEm */
PUSHB[ ]	/* 1 value pushed */
46 
LT[ ]	/* LessThan */
IF[ ]	/* If */
NPUSHB[ ]	/* 37 values pushed */
6 11 2 5 8 10 2 1 9 5 1 104 0 4 4 0 95 2 1 0 0 72 75 13 1 9 9 3 95 12 7 2 3 3 67 3 76 
ELSE[ ]	/* Else */
NPUSHB[ ]	/* 51 values pushed */
0 6 0 8 1 6 8 104 11 1 5 10 1 1 9 5 1 103 0 2 2 66 75 0 4 4 0 95 0 0 0 72 75 0 3 3 67 75 13 1 9 9 7 95 12 1 7 7 76 7 76 
EIF[ ]	/* EndIf */
NPUSHB[ ]	/* 38 values pushed */
40 40 28 28 16 16 0 0 40 51 40 50 46 44 28 39 28 38 34 32 16 27 16 26 22 20 15 14 13 12 0 11 0 10 36 14 10 21 
CALL[ ]	/* CallFunction */";
};
width = 829;
}
);
note = percent;
unicode = 37;
},
{
glyphname = ampersand;
kernLeft = ampersand;
layers = (
{
layerId = m01;
shapes = (
{
closed = 1;
nodes = (
(556,139,l),
(599,206,o),
(618,300,q),
(560,318,l),
(545,240,o),
(513,183,q),
(321,381,l),
(407,431,o),
(477,514,o),
(477,566,qs),
(477,631,o),
(389,705,o),
(314,705,qs),
(233,705,o),
(137,623,o),
(137,556,qs),
(137,515,o),
(175,442,o),
(225,390,q),
(129,335,o),
(49,235,o),
(49,172,qs),
(49,120,o),
(109,39,o),
(216,-6,o),
(284,-6,qs),
(429,-6,o),
(518,89,q),
(615,-11,l),
(656,36,l)
);
},
{
closed = 1;
nodes = (
(362,652,o),
(416,605,o),
(416,565,qs),
(416,528,o),
(358,466,o),
(282,422,q),
(235,470,o),
(203,526,o),
(203,557,qs),
(203,600,o),
(262,652,o),
(314,652,qs)
);
},
{
closed = 1;
nodes = (
(212,53,o),
(119,122,o),
(119,179,qs),
(119,226,o),
(182,302,o),
(265,349,q),
(476,132,l),
(404,53,o),
(288,53,qs)
);
}
);
userData = {
assembly = "NPUSHB[ ]	/* 59 values pushed */
44 43 35 28 26 25 23 22 10 1 10 3 2 29 1 0 3 2 74 4 1 2 2 1 95 0 1 1 72 75 5 1 3 3 0 95 0 0 0 73 0 76 42 42 30 30 42 50 42 49 30 41 30 40 43 34 6 10 22 
CALL[ ]	/* CallFunction */";
};
width = 669;
}
);
note = ampersand;
unicode = 38;
},
{
glyphname = quotesingle;
kernLeft = quotedbl;
kernRight = quotedbl;
layers = (
{
layerId = m01;
shapes = (
{
closed = 1;
nodes = (
(127,436,l),
(132,700,l),
(69,700,l),
(74,436,l)
);
}
);
userData = {
assembly = "NPUSHB[ ]	/* 16 values pushed */
0 1 1 0 93 0 0 0 66 1 76 17 16 2 10 22 
CALL[ ]	/* CallFunction */";
};
width = 202;
}
);
note = quotesingle;
unicode = 39;
},
{
glyphname = parenleft;
kernLeft = parenleft;
kernRight = parenleft;
layers = (
{
layerId = m01;
shapes = (
{
closed = 1;
nodes = (
(288,-194,l),
(229,-93,o),
(174,139,o),
(174,274,qs),
(174,409,o),
(229,641,o),
(288,742,q),
(220,742,l),
(164,652,o),
(104,411,o),
(104,274,qs),
(104,137,o),
(164,-102,o),
(220,-194,q)
);
}
);
userData = {
assembly = "NPUSHB[ ]	/* 16 values pushed */
0 0 0 68 75 0 1 1 71 1 76 22 21 2 10 22 
CALL[ ]	/* CallFunction */";
};
width = 329;
}
);
note = parenleft;
unicode = 40;
},
{
glyphname = parenright;
kernLeft = parenright;
kernRight = parenright;
layers = (
{
layerId = m01;
shapes = (
{
closed = 1;
nodes = (
(165,-103,o),
(225,137,o),
(225,274,qs),
(225,411,o),
(164,652,o),
(108,742,q),
(40,742,l),
(99,641,o),
(155,410,o),
(155,274,qs),
(155,138,o),
(99,-93,o),
(40,-194,q),
(108,-194,l)
);
}
);
userData = {
assembly = "NPUSHB[ ]	/* 22 values pushed */
0 0 0 68 75 2 1 1 1 71 1 76 0 0 0 13 0 13 22 3 10 21 
CALL[ ]	/* CallFunction */";
};
width = 329;
}
);
note = parenright;
unicode = 41;
},
{
glyphname = asterisk;
kernLeft = asterisk;
layers = (
{
layerId = m01;
shapes = (
{
closed = 1;
nodes = (
(341,674,l),
(216,600,l),
(216,742,l),
(170,742,l),
(171,600,l),
(46,674,l),
(22,631,l),
(147,561,l),
(22,491,l),
(46,449,l),
(171,522,l),
(170,380,l),
(216,380,l),
(216,522,l),
(341,449,l),
(364,491,l),
(240,561,l),
(364,631,l)
);
}
);
userData = {
assembly = "NPUSHB[ ]	/* 34 values pushed */
17 16 15 12 11 10 9 8 7 6 3 2 1 13 0 1 1 74 0 0 0 1 93 0 1 1 68 0 76 24 20 2 10 22 
CALL[ ]	/* CallFunction */";
};
width = 386;
}
);
note = asterisk;
unicode = 42;
},
{
glyphname = plus;
kernLeft = plus;
kernRight = plus;
layers = (
{
layerId = m01;
shapes = (
{
closed = 1;
nodes = (
(319,379,l),
(319,562,l),
(256,562,l),
(256,379,l),
(70,379,l),
(70,320,l),
(256,320,l),
(256,138,l),
(319,138,l),
(319,320,l),
(505,320,l),
(505,379,l)
);
}
);
userData = {
assembly = "NPUSHB[ ]	/* 35 values pushed */
0 4 3 1 4 85 5 1 3 2 1 0 1 3 0 101 0 4 4 1 93 0 1 4 1 77 17 17 17 17 17 16 6 10 26 
CALL[ ]	/* CallFunction */";
};
width = 575;
}
);
note = plus;
unicode = 43;
},
{
glyphname = comma;
kernLeft = comma;
kernRight = comma;
layers = (
{
layerId = m01;
shapes = (
{
closed = 1;
nodes = (
(84,104,o),
(54,73,o),
(54,50,qs),
(54,31,o),
(74,4,o),
(90,-1,q),
(56,-146,l),
(104,-146,l),
(146,-8,l),
(153,10,o),
(160,38,o),
(160,50,qs),
(160,73,o),
(130,104,o),
(107,104,qs)
);
}
);
userData = {
assembly = "NPUSHB[ ]	/* 34 values pushed */
8 1 0 1 1 74 2 1 1 0 0 1 87 2 1 1 1 0 93 0 0 1 0 77 0 0 0 14 0 13 22 3 10 21 
CALL[ ]	/* CallFunction */";
};
width = 212;
}
);
note = comma;
unicode = 44;
},
{
glyphname = hyphen;
kernLeft = plus;
kernRight = plus;
layers = (
{
layerId = m01;
shapes = (
{
closed = 1;
nodes = (
(322,240,l),
(322,302,l),
(60,302,l),
(60,240,l)
);
}
);
userData = {
assembly = "NPUSHB[ ]	/* 21 values pushed */
0 0 1 1 0 85 0 0 0 1 93 0 1 0 1 77 17 16 2 10 22 
CALL[ ]	/* CallFunction */";
};
width = 382;
}
);
note = hyphen;
unicode = 45;
},
{
glyphname = period;
kernLeft = comma;
kernRight = comma;
layers = (
{
layerId = m01;
shapes = (
{
closed = 1;
nodes = (
(128,-5,o),
(160,27,o),
(160,50,qs),
(160,73,o),
(128,104,o),
(106,104,qs),
(84,104,o),
(53,73,o),
(53,50,qs),
(53,27,o),
(84,-5,o),
(106,-5,qs)
);
}
);
userData = {
assembly = "NPUSHB[ ]	/* 22 values pushed */
0 0 0 1 95 2 1 1 1 76 1 76 0 0 0 11 0 10 36 3 10 21 
CALL[ ]	/* CallFunction */";
};
width = 212;
}
);
note = period;
unicode = 46;
},
{
glyphname = slash;
kernLeft = slash;
kernRight = slash;
layers = (
{
layerId = m01;
shapes = (
{
closed = 1;
nodes = (
(40,-100,l),
(370,842,l),
(305,842,l),
(-25,-100,l)
);
}
);
userData = {
assembly = "NPUSHB[ ]	/* 14 values pushed */
0 0 1 0 131 0 1 1 116 17 16 2 10 22 
CALL[ ]	/* CallFunction */";
};
width = 335;
}
);
note = slash;
unicode = 47;
},
{
glyphname = zero;
kernLeft = zero;
kernRight = zero;
layers = (
{
layerId = m01;
shapes = (
{
closed = 1;
nodes = (
(412,-6,o),
(539,80,o),
(611,241,o),
(611,350,qs),
(611,459,o),
(539,620,o),
(412,706,o),
(331,706,qs),
(250,706,o),
(123,620,o),
(52,459,o),
(52,350,qs),
(52,241,o),
(123,80,o),
(250,-6,o),
(331,-6,qs)
);
},
{
closed = 1;
nodes = (
(270,60,o),
(177,128,o),
(125,258,o),
(125,350,qs),
(125,442,o),
(177,572,o),
(270,640,o),
(331,640,qs),
(392,640,o),
(485,572,o),
(537,442,o),
(537,350,qs),
(537,258,o),
(485,128,o),
(392,60,o),
(331,60,qs)
);
}
);
userData = {
assembly = "NPUSHB[ ]	/* 41 values pushed */
0 2 2 0 95 0 0 0 72 75 5 1 3 3 1 95 4 1 1 1 73 1 76 16 16 0 0 16 31 16 30 24 22 0 15 0 14 38 6 10 21 
CALL[ ]	/* CallFunction */";
};
width = 662;
}
);
note = zero;
unicode = 48;
},
{
glyphname = one;
kernLeft = one;
kernRight = one;
layers = (
{
layerId = m01;
shapes = (
{
closed = 1;
nodes = (
(9,636,l),
(174,636,l),
(174,0,l),
(246,0,l),
(246,700,l),
(9,700,l)
);
}
);
userData = {
assembly = "NPUSHB[ ]	/* 28 values pushed */
0 1 1 2 93 3 1 2 2 66 75 0 0 0 67 0 76 0 0 0 5 0 5 17 17 4 10 22 
CALL[ ]	/* CallFunction */";
};
width = 361;
}
);
note = one;
unicode = 49;
},
{
glyphname = two;
kernLeft = two;
kernRight = two;
layers = (
{
layerId = m01;
shapes = (
{
closed = 1;
nodes = (
(383,298,ls),
(450,363,o),
(498,463,o),
(498,517,qs),
(498,605,o),
(373,706,o),
(266,706,qs),
(186,706,o),
(59,654,o),
(18,606,q),
(69,562,l),
(137,640,o),
(260,640,qs),
(339,640,o),
(424,571,o),
(424,509,qs),
(424,469,o),
(385,390,o),
(330,336,qs),
(39,51,l),
(39,0,l),
(530,0,l),
(530,64,l),
(145,64,l)
);
}
);
userData = {
assembly = "NPUSHB[ ]	/* 45 values pushed */
13 12 2 3 1 3 1 0 3 2 74 0 1 1 2 95 0 2 2 72 75 4 1 3 3 0 93 0 0 0 67 0 76 0 0 0 23 0 23 36 39 17 5 10 23 
CALL[ ]	/* CallFunction */";
};
width = 568;
}
);
note = two;
unicode = 50;
},
{
glyphname = three;
kernLeft = three;
kernRight = three;
layers = (
{
layerId = m01;
shapes = (
{
closed = 1;
nodes = (
(488,649,l),
(488,700,l),
(38,700,l),
(38,636,l),
(396,636,l),
(202,393,l),
(202,340,l),
(252,340,ls),
(347,340,o),
(441,266,o),
(441,201,qs),
(441,135,o),
(347,60,o),
(261,60,qs),
(195,60,o),
(79,105,o),
(44,141,q),
(9,84,l),
(50,43,o),
(185,-6,o),
(261,-6,qs),
(343,-6,o),
(457,48,o),
(515,141,o),
(515,201,qs),
(515,287,o),
(400,394,o),
(290,400,q)
);
}
);
userData = {
assembly = "NPUSHB[ ]	/* 59 values pushed */
26 1 3 4 21 1 2 5 10 9 2 1 2 3 74 6 1 5 0 2 1 5 2 103 0 3 3 4 93 0 4 4 66 75 0 1 1 0 95 0 0 0 73 0 76 0 0 0 27 0 27 17 18 36 37 37 7 10 25 
CALL[ ]	/* CallFunction */";
};
width = 564;
}
);
note = three;
unicode = 51;
},
{
glyphname = four;
kernLeft = four;
kernRight = four;
layers = (
{
layerId = m01;
shapes = (
{
closed = 1;
nodes = (
(507,248,l),
(507,410,l),
(437,410,l),
(437,248,l),
(133,248,l),
(491,700,l),
(411,700,l),
(40,236,l),
(40,184,l),
(435,184,l),
(435,0,l),
(507,0,l),
(507,184,l),
(647,184,l),
(647,248,l)
);
}
);
userData = {
assembly = "NPUSHB[ ]	/* 42 values pushed */
6 1 0 4 1 74 6 1 4 2 1 0 1 4 0 102 0 3 3 66 75 0 5 5 1 93 0 1 1 67 1 76 17 17 17 18 17 17 16 7 10 27 
CALL[ ]	/* CallFunction */";
};
width = 661;
}
);
note = four;
unicode = 52;
},
{
glyphname = five;
kernLeft = five;
kernRight = five;
layers = (
{
layerId = m01;
shapes = (
{
closed = 1;
nodes = (
(146,413,l),
(170,636,l),
(490,636,l),
(490,700,l),
(107,700,l),
(71,349,l),
(220,349,ls),
(347,349,o),
(454,275,o),
(454,203,qs),
(454,138,o),
(359,60,o),
(272,60,qs),
(206,60,o),
(92,105,o),
(57,141,q),
(22,84,l),
(63,43,o),
(198,-6,o),
(273,-6,qs),
(356,-6,o),
(470,49,o),
(527,145,o),
(527,206,qs),
(527,304,o),
(388,413,o),
(236,413,qs)
);
}
);
userData = {
assembly = "NPUSHB[ ]	/* 51 values pushed */
10 9 2 1 2 1 74 6 1 5 0 2 1 5 2 101 0 4 4 3 93 0 3 3 66 75 0 1 1 0 95 0 0 0 73 0 76 0 0 0 26 0 25 17 17 36 37 37 7 10 25 
CALL[ ]	/* CallFunction */";
};
width = 566;
}
);
note = five;
unicode = 53;
},
{
glyphname = six;
kernLeft = zero;
kernRight = six;
layers = (
{
layerId = m01;
shapes = (
{
closed = 1;
nodes = (
(268,419,o),
(154,356,o),
(128,299,q),
(125,331,o),
(125,356,qs),
(125,496,o),
(257,643,o),
(373,643,qs),
(459,643,o),
(509,610,q),
(538,668,l),
(476,706,o),
(372,706,qs),
(276,706,o),
(132,623,o),
(52,461,o),
(52,344,qs),
(52,177,o),
(200,-6,o),
(339,-6,qs),
(407,-6,o),
(516,47,o),
(578,145,o),
(578,209,qs),
(578,272,o),
(518,367,o),
(411,419,o),
(342,419,qs)
);
},
{
closed = 1;
nodes = (
(278,55,o),
(194,97,o),
(151,165,o),
(151,205,qs),
(151,248,o),
(197,318,o),
(278,358,o),
(331,358,qs),
(412,358,o),
(507,276,o),
(507,207,qs),
(507,138,o),
(412,55,o),
(336,55,qs)
);
}
);
userData = {
assembly = "NPUSHB[ ]	/* 65 values pushed */
16 1 2 1 17 1 3 2 24 1 5 4 3 74 6 1 3 0 4 5 3 4 103 0 2 2 1 95 0 1 1 72 75 7 1 5 5 0 95 0 0 0 73 0 76 28 28 0 0 28 41 28 40 34 32 0 27 0 26 35 37 38 8 10 23 
CALL[ ]	/* CallFunction */";
};
width = 609;
}
);
note = six;
unicode = 54;
},
{
glyphname = seven;
kernLeft = seven;
kernRight = seven;
layers = (
{
layerId = m01;
shapes = (
{
closed = 1;
nodes = (
(32,505,l),
(103,505,l),
(103,636,l),
(463,636,l),
(175,0,l),
(253,0,l),
(546,649,l),
(546,700,l),
(32,700,l)
);
}
);
userData = {
assembly = "PUSHB[ ]	/* 6 values pushed */
1 1 1 3 1 74 
MPPEM[ ]	/* MeasurePixelPerEm */
PUSHB[ ]	/* 1 value pushed */
9 
LT[ ]	/* LessThan */
IF[ ]	/* If */
NPUSHB[ ]	/* 25 values pushed */
0 2 1 0 1 2 0 126 0 1 1 3 93 4 1 3 3 66 75 0 0 0 67 0 76 
ELSE[ ]	/* Else */
MPPEM[ ]	/* MeasurePixelPerEm */
PUSHB[ ]	/* 1 value pushed */
10 
LT[ ]	/* LessThan */
IF[ ]	/* If */
NPUSHB[ ]	/* 24 values pushed */
0 2 1 0 1 2 112 0 1 1 3 93 4 1 3 3 66 75 0 0 0 67 0 76 
ELSE[ ]	/* Else */
NPUSHB[ ]	/* 25 values pushed */
0 2 1 0 1 2 0 126 0 1 1 3 93 4 1 3 3 66 75 0 0 0 67 0 76 
EIF[ ]	/* EndIf */
EIF[ ]	/* EndIf */
NPUSHB[ ]	/* 12 values pushed */
0 0 0 8 0 8 17 17 18 5 10 23 
CALL[ ]	/* CallFunction */";
};
width = 589;
}
);
note = seven;
unicode = 55;
},
{
glyphname = eight;
kernLeft = eight;
layers = (
{
layerId = m01;
shapes = (
{
closed = 1;
nodes = (
(507,388,o),
(565,467,o),
(565,521,qs),
(565,577,o),
(503,661,o),
(392,706,o),
(318,706,qs),
(206,706,o),
(73,606,o),
(73,521,qs),
(73,467,o),
(129,388,o),
(183,367,q),
(117,345,o),
(48,258,o),
(48,195,qs),
(48,102,o),
(192,-6,o),
(318,-6,qs),
(401,-6,o),
(524,43,o),
(590,134,o),
(590,195,qs),
(590,257,o),
(519,345,o),
(453,367,q)
);
},
{
closed = 1;
nodes = (
(145,577,o),
(238,645,o),
(318,645,qs),
(397,645,o),
(492,577,o),
(492,518,qs),
(492,461,o),
(399,393,o),
(318,393,qs),
(237,393,o),
(145,461,o),
(145,519,qs)
);
},
{
closed = 1;
nodes = (
(225,55,o),
(121,130,o),
(121,196,qs),
(121,261,o),
(226,336,o),
(318,336,qs),
(411,336,o),
(516,261,o),
(516,196,qs),
(516,131,o),
(411,55,o),
(318,55,qs)
);
}
);
userData = {
assembly = "NPUSHB[ ]	/* 51 values pushed */
25 12 2 4 2 1 74 0 2 0 4 5 2 4 103 0 3 3 1 95 0 1 1 72 75 6 1 5 5 0 95 0 0 0 73 0 76 38 38 38 49 38 48 39 36 40 42 37 7 10 25 
CALL[ ]	/* CallFunction */";
};
width = 638;
}
);
note = eight;
unicode = 56;
},
{
glyphname = nine;
kernLeft = nine;
kernRight = zero;
layers = (
{
layerId = m01;
shapes = (
{
closed = 1;
nodes = (
(202,706,o),
(93,653,o),
(31,555,o),
(31,491,qs),
(31,428,o),
(91,333,o),
(198,281,o),
(267,281,qs),
(341,281,o),
(455,344,o),
(481,401,q),
(484,370,o),
(484,344,qs),
(484,204,o),
(352,57,o),
(236,57,qs),
(150,57,o),
(100,90,q),
(71,32,l),
(133,-6,o),
(237,-6,qs),
(333,-6,o),
(477,77,o),
(557,239,o),
(557,356,qs),
(557,523,o),
(409,706,o),
(270,706,qs)
);
},
{
closed = 1;
nodes = (
(197,342,o),
(102,424,o),
(102,493,qs),
(102,562,o),
(197,645,o),
(273,645,qs),
(331,645,o),
(415,603,o),
(458,535,o),
(458,495,qs),
(458,452,o),
(412,382,o),
(331,342,o),
(278,342,qs)
);
}
);
userData = {
assembly = "NPUSHB[ ]	/* 65 values pushed */
16 1 5 4 9 1 1 2 8 1 0 1 3 74 7 1 5 0 2 1 5 2 103 0 4 4 3 95 6 1 3 3 72 75 0 1 1 0 95 0 0 0 73 0 76 28 28 0 0 28 41 28 40 36 34 0 27 0 26 38 35 37 8 10 23 
CALL[ ]	/* CallFunction */";
};
width = 609;
}
);
note = nine;
unicode = 57;
},
{
glyphname = less;
layers = (
{
layerId = m01;
shapes = (
{
closed = 1;
nodes = (
(70,383,l),
(70,317,l),
(505,143,l),
(505,205,l),
(137,350,l),
(505,495,l),
(505,558,l)
);
}
);
userData = {
assembly = "PUSHB[ ]	/* 4 values pushed */
6 3 1 48 
CALL[ ]	/* CallFunction */";
};
width = 575;
}
);
note = less;
unicode = 60;
},
{
glyphname = equal;
layers = (
{
layerId = m01;
shapes = (
{
closed = 1;
nodes = (
(505,436,l),
(505,495,l),
(70,495,l),
(70,436,l)
);
},
{
closed = 1;
nodes = (
(505,205,l),
(505,264,l),
(70,264,l),
(70,205,l)
);
}
);
userData = {
assembly = "NPUSHB[ ]	/* 31 values pushed */
0 0 0 1 2 0 1 101 0 2 3 3 2 85 0 2 2 3 93 0 3 2 3 77 17 17 17 16 4 10 24 
CALL[ ]	/* CallFunction */";
};
width = 575;
}
);
note = equal;
unicode = 61;
},
{
glyphname = greater;
layers = (
{
layerId = m01;
shapes = (
{
closed = 1;
nodes = (
(70,495,l),
(438,350,l),
(70,205,l),
(70,143,l),
(505,317,l),
(505,383,l),
(70,558,l)
);
}
);
userData = {
assembly = "PUSHB[ ]	/* 4 values pushed */
6 2 1 48 
CALL[ ]	/* CallFunction */";
};
width = 575;
}
);
note = greater;
unicode = 62;
},
{
glyphname = question;
kernLeft = question;
kernRight = question;
layers = (
{
layerId = m01;
shapes = (
{
closed = 1;
nodes = (
(309,210,l),
(309,255,o),
(351,316,o),
(394,355,qs),
(426,384,o),
(465,428,o),
(492,491,o),
(492,532,qs),
(492,612,o),
(367,706,o),
(262,706,qs),
(98,706,o),
(13,602,q),
(66,562,l),
(133,643,o),
(257,643,qs),
(332,643,o),
(418,576,o),
(418,521,qs),
(418,480,o),
(377,423,o),
(334,385,qs),
(302,357,o),
(262,313,o),
(235,251,o),
(235,210,q)
);
},
{
closed = 1;
nodes = (
(294,-5,o),
(325,26,o),
(325,47,qs),
(325,69,o),
(295,98,o),
(272,98,qs),
(250,98,o),
(220,69,o),
(220,47,qs),
(220,26,o),
(250,-5,o),
(272,-5,qs)
);
}
);
userData = {
assembly = "NPUSHB[ ]	/* 50 values pushed */
12 11 2 2 0 1 74 0 2 0 3 0 2 3 126 0 0 0 1 95 0 1 1 72 75 0 3 3 4 95 5 1 4 4 76 4 76 26 26 26 37 26 36 37 25 35 40 6 10 24 
CALL[ ]	/* CallFunction */";
};
width = 567;
}
);
note = question;
unicode = 63;
},
{
glyphname = at;
kernLeft = at;
kernRight = at;
layers = (
{
layerId = m01;
shapes = (
{
closed = 1;
nodes = (
(383,706,o),
(170,591,o),
(52,386,o),
(52,254,qs),
(52,123,o),
(169,-84,o),
(379,-200,o),
(515,-200,qs),
(568,-200,o),
(681,-176,o),
(724,-154,q),
(707,-105,l),
(665,-127,o),
(562,-149,o),
(515,-149,qs),
(395,-149,o),
(210,-47,o),
(107,137,o),
(107,254,qs),
(107,371,o),
(211,554,o),
(398,655,o),
(519,655,qs),
(639,655,o),
(826,557,o),
(930,380,o),
(930,264,qs),
(930,164,o),
(875,52,o),
(828,52,qs),
(800,52,o),
(766,88,o),
(766,128,qs),
(766,507,l),
(701,507,l),
(701,406,l),
(670,456,o),
(567,511,o),
(503,511,qs),
(433,511,o),
(320,445,o),
(255,328,o),
(255,254,qs),
(255,180,o),
(320,62,o),
(433,-5,o),
(503,-5,qs),
(569,-5,o),
(673,52,o),
(703,104,q),
(706,53,o),
(767,-5,o),
(816,-5,qs),
(894,-5,o),
(982,138,o),
(982,265,qs),
(982,394,o),
(864,595,o),
(653,706,o),
(519,706,qs)
);
},
{
closed = 1;
nodes = (
(457,53,o),
(370,104,o),
(321,195,o),
(321,254,qs),
(321,313,o),
(370,403,o),
(457,453,o),
(512,453,qs),
(566,453,o),
(652,404,o),
(702,313,o),
(702,254,qs),
(702,194,o),
(652,103,o),
(566,53,o),
(512,53,qs)
);
}
);
userData = {
assembly = "NPUSHB[ ]	/* 15 values pushed */
23 9 2 4 9 47 1 6 0 48 1 7 6 3 74 
MPPEM[ ]	/* MeasurePixelPerEm */
PUSHB[ ]	/* 1 value pushed */
33 
LT[ ]	/* LessThan */
IF[ ]	/* If */
NPUSHB[ ]	/* 46 values pushed */
0 5 5 8 95 11 1 8 8 72 75 0 9 9 2 95 3 1 2 2 69 75 12 10 2 4 4 0 95 1 1 0 0 76 75 0 6 6 7 95 0 7 7 77 7 76 
ELSE[ ]	/* Else */
NPUSHB[ ]	/* 44 values pushed */
3 1 2 0 9 4 2 9 103 0 5 5 8 95 11 1 8 8 72 75 12 10 2 4 4 0 95 1 1 0 0 76 75 0 6 6 7 95 0 7 7 77 7 76 
EIF[ ]	/* EndIf */
NPUSHB[ ]	/* 25 values pushed */
60 60 0 0 60 75 60 74 68 66 0 59 0 58 37 38 37 35 19 38 36 37 13 10 28 
CALL[ ]	/* CallFunction */";
};
width = 1033;
}
);
note = at;
unicode = 64;
},
{
glyphname = A;
kernLeft = A;
layers = (
{
layerId = m01;
shapes = (
{
closed = 1;
nodes = (
(715,0,l),
(395,700,l),
(322,700,l),
(2,0,l),
(79,0,l),
(163,187,l),
(553,187,l),
(637,0,l)
);
},
{
closed = 1;
nodes = (
(358,623,l),
(526,247,l),
(190,247,l)
);
}
);
userData = {
assembly = "NPUSHB[ ]	/* 40 values pushed */
9 1 4 2 1 74 5 1 4 0 0 1 4 0 102 0 2 2 66 75 3 1 1 1 67 1 76 8 8 8 10 8 10 17 17 17 16 6 10 24 
CALL[ ]	/* CallFunction */";
};
width = 717;
}
);
note = A;
unicode = 65;
},
{
glyphname = B;
kernLeft = B;
kernRight = B;
layers = (
{
layerId = m01;
shapes = (
{
closed = 1;
nodes = (
(605,381,o),
(662,462,o),
(662,520,qs),
(662,606,o),
(533,700,o),
(416,700,qs),
(114,700,l),
(114,0,l),
(436,0,ls),
(566,0,o),
(699,97,o),
(699,187,qs),
(699,257,o),
(624,346,o),
(555,361,q)
);
},
{
closed = 1;
nodes = (
(496,639,o),
(588,574,o),
(588,512,qs),
(588,450,o),
(496,385,o),
(411,385,qs),
(188,385,l),
(188,639,l),
(411,639,ls)
);
},
{
closed = 1;
nodes = (
(188,61,l),
(188,324,l),
(435,324,ls),
(625,324,o),
(625,193,qs),
(625,125,o),
(529,61,o),
(435,61,qs)
);
}
);
userData = {
assembly = "NPUSHB[ ]	/* 57 values pushed */
14 1 4 2 1 74 0 2 0 4 5 2 4 101 6 1 3 3 1 93 0 1 1 66 75 7 1 5 5 0 93 0 0 0 67 0 76 24 24 15 15 24 31 24 30 29 27 15 23 15 22 39 33 36 8 10 23 
CALL[ ]	/* CallFunction */";
};
width = 754;
}
);
note = B;
unicode = 66;
},
{
glyphname = C;
kernLeft = at;
kernRight = C;
layers = (
{
layerId = m01;
shapes = (
{
closed = 1;
nodes = (
(496,-6,o),
(629,47,o),
(675,97,q),
(628,144,l),
(547,60,o),
(421,60,qs),
(338,60,o),
(202,136,o),
(125,268,o),
(125,350,qs),
(125,432,o),
(202,564,o),
(338,640,o),
(421,640,qs),
(546,640,o),
(628,557,q),
(675,604,l),
(629,654,o),
(497,706,o),
(419,706,qs),
(315,706,o),
(147,614,o),
(52,451,o),
(52,350,qs),
(52,249,o),
(147,86,o),
(314,-6,o),
(418,-6,qs)
);
}
);
userData = {
assembly = "NPUSHB[ ]	/* 43 values pushed */
24 23 11 10 4 2 1 1 74 0 1 1 0 95 0 0 0 72 75 0 2 2 3 95 4 1 3 3 73 3 76 0 0 0 27 0 26 38 36 38 5 10 23 
CALL[ ]	/* CallFunction */";
};
width = 719;
}
);
note = C;
unicode = 67;
},
{
glyphname = D;
kernLeft = B;
kernRight = at;
layers = (
{
layerId = m01;
shapes = (
{
closed = 1;
nodes = (
(399,0,ls),
(510,0,o),
(680,89,o),
(774,248,o),
(774,350,qs),
(774,452,o),
(680,611,o),
(510,700,o),
(399,700,qs),
(114,700,l),
(114,0,l)
);
},
{
closed = 1;
nodes = (
(188,636,l),
(395,636,ls),
(487,636,o),
(625,563,o),
(701,434,o),
(701,350,qs),
(701,266,o),
(625,137,o),
(487,64,o),
(395,64,qs),
(188,64,l)
);
}
);
userData = {
assembly = "NPUSHB[ ]	/* 35 values pushed */
0 3 3 0 93 0 0 0 66 75 4 1 2 2 1 93 0 1 1 67 1 76 12 11 20 18 11 21 12 21 38 32 5 10 22 
CALL[ ]	/* CallFunction */";
};
width = 826;
}
);
note = D;
unicode = 68;
},
{
glyphname = E;
kernLeft = B;
kernRight = E;
layers = (
{
layerId = m01;
shapes = (
{
closed = 1;
nodes = (
(188,324,l),
(550,324,l),
(550,387,l),
(188,387,l),
(188,636,l),
(594,636,l),
(594,700,l),
(114,700,l),
(114,0,l),
(609,0,l),
(609,64,l),
(188,64,l)
);
}
);
userData = {
assembly = "NPUSHB[ ]	/* 44 values pushed */
0 3 0 4 5 3 4 101 0 2 2 1 93 0 1 1 66 75 6 1 5 5 0 93 0 0 0 67 0 76 0 0 0 11 0 11 17 17 17 17 17 7 10 25 
CALL[ ]	/* CallFunction */";
};
width = 669;
}
);
note = E;
unicode = 69;
},
{
glyphname = F;
kernLeft = B;
kernRight = F;
layers = (
{
layerId = m01;
shapes = (
{
closed = 1;
nodes = (
(594,700,l),
(114,700,l),
(114,0,l),
(188,0,l),
(188,297,l),
(550,297,l),
(550,361,l),
(188,361,l),
(188,636,l),
(594,636,l)
);
}
);
userData = {
assembly = "NPUSHB[ ]	/* 38 values pushed */
0 0 0 1 2 0 1 101 5 1 4 4 3 93 0 3 3 66 75 0 2 2 67 2 76 0 0 0 9 0 9 17 17 17 17 6 10 24 
CALL[ ]	/* CallFunction */";
};
width = 633;
}
);
note = F;
unicode = 70;
},
{
glyphname = G;
kernLeft = at;
kernRight = G;
layers = (
{
layerId = m01;
shapes = (
{
closed = 1;
nodes = (
(532,60,o),
(424,60,qs),
(339,60,o),
(203,136,o),
(125,268,o),
(125,350,qs),
(125,432,o),
(203,565,o),
(340,640,o),
(425,640,qs),
(553,640,o),
(636,558,q),
(682,605,l),
(636,655,o),
(502,706,o),
(422,706,qs),
(316,706,o),
(148,614,o),
(52,451,o),
(52,350,qs),
(52,249,o),
(148,86,o),
(316,-6,o),
(421,-6,qs),
(495,-6,o),
(629,40,o),
(678,83,q),
(678,350,l),
(607,350,l),
(607,114,l)
);
}
);
userData = {
assembly = "NPUSHB[ ]	/* 49 values pushed */
17 16 2 0 3 29 2 2 4 0 2 74 0 0 3 4 3 0 4 126 0 3 3 2 95 0 2 2 72 75 0 4 4 1 95 0 1 1 73 1 76 38 36 38 35 16 5 10 25 
CALL[ ]	/* CallFunction */";
};
width = 773;
}
);
note = G;
unicode = 71;
},
{
glyphname = H;
kernLeft = B;
kernRight = H;
layers = (
{
layerId = m01;
shapes = (
{
closed = 1;
nodes = (
(626,388,l),
(188,388,l),
(188,700,l),
(114,700,l),
(114,0,l),
(188,0,l),
(188,323,l),
(626,323,l),
(626,0,l),
(699,0,l),
(699,700,l),
(626,700,l)
);
}
);
userData = {
assembly = "NPUSHB[ ]	/* 36 values pushed */
0 4 0 1 0 4 1 101 6 5 2 3 3 66 75 2 1 0 0 67 0 76 0 0 0 11 0 11 17 17 17 17 17 7 10 25 
CALL[ ]	/* CallFunction */";
};
width = 813;
}
);
note = H;
unicode = 72;
},
{
glyphname = I;
kernLeft = B;
kernRight = H;
layers = (
{
layerId = m01;
shapes = (
{
closed = 1;
nodes = (
(188,0,l),
(188,700,l),
(114,700,l),
(114,0,l)
);
}
);
userData = {
assembly = "NPUSHB[ ]	/* 16 values pushed */
0 0 0 66 75 0 1 1 67 1 76 17 16 2 10 22 
CALL[ ]	/* CallFunction */";
};
width = 302;
}
);
note = I;
unicode = 73;
},
{
glyphname = J;
kernLeft = J;
kernRight = J;
layers = (
{
layerId = m01;
shapes = (
{
closed = 1;
nodes = (
(290,-6,o),
(393,105,o),
(393,215,qs),
(393,700,l),
(64,700,l),
(64,636,l),
(320,636,l),
(320,212,ls),
(320,58,o),
(190,58,qs),
(97,58,o),
(39,144,q),
(-5,94,l),
(27,46,o),
(129,-6,o),
(189,-6,qs)
);
}
);
userData = {
assembly = "NPUSHB[ ]	/* 41 values pushed */
3 2 2 0 1 1 74 0 1 1 2 93 0 2 2 66 75 0 0 0 3 95 4 1 3 3 73 3 76 0 0 0 15 0 14 17 18 36 5 10 23 
CALL[ ]	/* CallFunction */";
};
width = 501;
}
);
note = J;
unicode = 74;
},
{
glyphname = K;
kernLeft = B;
kernRight = K;
layers = (
{
layerId = m01;
shapes = (
{
closed = 1;
nodes = (
(705,0,l),
(381,383,l),
(684,700,l),
(599,700,l),
(188,277,l),
(188,700,l),
(114,700,l),
(114,0,l),
(188,0,l),
(188,184,l),
(331,329,l),
(617,0,l)
);
}
);
userData = {
assembly = "NPUSHB[ ]	/* 28 values pushed */
9 6 1 3 0 1 1 74 2 1 1 1 66 75 3 1 0 0 67 0 76 18 18 17 18 4 10 24 
CALL[ ]	/* CallFunction */";
};
width = 711;
}
);
note = K;
unicode = 75;
},
{
glyphname = L;
kernLeft = B;
kernRight = L;
layers = (
{
layerId = m01;
shapes = (
{
closed = 1;
nodes = (
(580,0,l),
(580,64,l),
(188,64,l),
(188,700,l),
(114,700,l),
(114,0,l)
);
}
);
userData = {
assembly = "NPUSHB[ ]	/* 22 values pushed */
0 0 0 66 75 0 1 1 2 93 0 2 2 67 2 76 17 17 16 3 10 23 
CALL[ ]	/* CallFunction */";
};
width = 589;
}
);
note = L;
unicode = 76;
},
{
glyphname = M;
kernLeft = B;
kernRight = H;
layers = (
{
layerId = m01;
shapes = (
{
closed = 1;
nodes = (
(479,181,l),
(175,700,l),
(114,700,l),
(114,0,l),
(185,0,l),
(185,557,l),
(460,89,l),
(495,89,l),
(770,560,l),
(770,0,l),
(841,0,l),
(841,700,l),
(780,700,l)
);
}
);
userData = {
assembly = "NPUSHB[ ]	/* 43 values pushed */
11 6 3 3 1 3 1 74 0 1 3 0 3 1 0 126 5 4 2 3 3 66 75 2 1 0 0 67 0 76 0 0 0 12 0 12 17 18 18 17 6 10 24 
CALL[ ]	/* CallFunction */";
};
width = 955;
}
);
note = M;
unicode = 77;
},
{
glyphname = N;
kernLeft = B;
kernRight = H;
layers = (
{
layerId = m01;
shapes = (
{
closed = 1;
nodes = (
(626,132,l),
(175,700,l),
(114,700,l),
(114,0,l),
(188,0,l),
(188,568,l),
(638,0,l),
(699,0,l),
(699,700,l),
(626,700,l)
);
}
);
userData = {
assembly = "NPUSHB[ ]	/* 33 values pushed */
8 3 2 0 2 1 74 4 3 2 2 2 66 75 1 1 0 0 67 0 76 0 0 0 9 0 9 17 18 17 5 10 23 
CALL[ ]	/* CallFunction */";
};
width = 813;
}
);
note = N;
unicode = 78;
},
{
glyphname = O;
kernLeft = at;
kernRight = at;
layers = (
{
layerId = m01;
shapes = (
{
closed = 1;
nodes = (
(524,-6,o),
(691,86,o),
(787,249,o),
(787,350,qs),
(787,451,o),
(691,614,o),
(524,706,o),
(420,706,qs),
(316,706,o),
(147,613,o),
(52,451,o),
(52,350,qs),
(52,249,o),
(147,87,o),
(316,-6,o),
(420,-6,qs)
);
},
{
closed = 1;
nodes = (
(337,60,o),
(202,135,o),
(125,268,o),
(125,350,qs),
(125,432,o),
(202,565,o),
(337,640,o),
(420,640,qs),
(503,640,o),
(637,565,o),
(713,432,o),
(713,350,qs),
(713,268,o),
(637,135,o),
(503,60,o),
(420,60,qs)
);
}
);
userData = {
assembly = "NPUSHB[ ]	/* 41 values pushed */
0 2 2 0 95 0 0 0 72 75 5 1 3 3 1 95 4 1 1 1 73 1 76 16 16 0 0 16 31 16 30 24 22 0 15 0 14 38 6 10 21 
CALL[ ]	/* CallFunction */";
};
width = 839;
}
);
note = O;
unicode = 79;
},
{
glyphname = P;
kernLeft = B;
kernRight = P;
layers = (
{
layerId = m01;
shapes = (
{
closed = 1;
nodes = (
(114,700,l),
(114,0,l),
(188,0,l),
(188,221,l),
(376,221,ls),
(510,221,o),
(662,348,o),
(662,460,qs),
(662,572,o),
(510,700,o),
(376,700,qs)
);
},
{
closed = 1;
nodes = (
(188,286,l),
(188,636,l),
(374,636,ls),
(478,636,o),
(588,545,o),
(588,460,qs),
(588,377,o),
(478,286,o),
(374,286,qs)
);
}
);
userData = {
assembly = "NPUSHB[ ]	/* 45 values pushed */
6 1 4 0 0 1 4 0 101 0 3 3 2 93 5 1 2 2 66 75 0 1 1 67 1 76 11 11 0 0 11 19 11 18 17 15 0 10 0 9 17 36 7 10 22 
CALL[ ]	/* CallFunction */";
};
width = 718;
}
);
note = P;
unicode = 80;
},
{
glyphname = Q;
kernLeft = at;
kernRight = at;
layers = (
{
layerId = m01;
shapes = (
{
closed = 1;
nodes = (
(728,-80,o),
(650,-80,qs),
(575,-80,o),
(498,1,q),
(583,17,o),
(714,115,o),
(787,262,o),
(787,350,qs),
(787,451,o),
(691,614,o),
(524,706,o),
(420,706,qs),
(316,706,o),
(147,613,o),
(52,451,o),
(52,350,qs),
(52,251,o),
(144,91,o),
(306,-3,o),
(407,-6,q),
(476,-78,o),
(587,-139,o),
(649,-139,qs),
(700,-139,o),
(787,-98,o),
(819,-59,q),
(783,-16,l)
);
},
{
closed = 1;
nodes = (
(125,432,o),
(202,564,o),
(337,640,o),
(420,640,qs),
(503,640,o),
(637,564,o),
(713,432,o),
(713,350,qs),
(713,268,o),
(637,136,o),
(503,60,o),
(420,60,qs),
(337,60,o),
(202,136,o),
(125,268,o),
(125,350,qs)
);
}
);
userData = {
assembly = "NPUSHB[ ]	/* 47 values pushed */
22 1 1 4 26 1 3 1 2 74 0 3 0 0 3 0 99 0 5 5 2 95 0 2 2 72 75 0 4 4 1 95 0 1 1 76 1 76 38 36 40 38 18 34 6 10 26 
CALL[ ]	/* CallFunction */";
};
width = 839;
}
);
note = Q;
unicode = 81;
},
{
glyphname = R;
kernLeft = B;
kernRight = R;
layers = (
{
layerId = m01;
shapes = (
{
closed = 1;
nodes = (
(502,240,l),
(579,265,o),
(662,378,o),
(662,460,qs),
(662,572,o),
(510,700,o),
(376,700,qs),
(114,700,l),
(114,0,l),
(188,0,l),
(188,222,l),
(376,222,ls),
(405,222,o),
(432,225,q),
(592,0,l),
(673,0,l)
);
},
{
closed = 1;
nodes = (
(188,285,l),
(188,636,l),
(374,636,ls),
(478,636,o),
(588,545,o),
(588,460,qs),
(588,377,o),
(478,285,o),
(374,285,qs)
);
}
);
userData = {
assembly = "NPUSHB[ ]	/* 53 values pushed */
14 1 0 5 1 74 7 1 5 0 0 1 5 0 101 0 4 4 2 93 0 2 2 66 75 6 3 2 1 1 67 1 76 16 16 0 0 16 24 16 23 22 20 0 15 0 15 33 17 34 8 10 23 
CALL[ ]	/* CallFunction */";
};
width = 723;
}
);
note = R;
unicode = 82;
},
{
glyphname = S;
kernLeft = dollar;
kernRight = dollar;
layers = (
{
layerId = m01;
shapes = (
{
closed = 1;
nodes = (
(393,-6,o),
(511,45,o),
(568,132,o),
(568,185,qs),
(568,249,o),
(502,324,o),
(407,361,o),
(330,380,qs),
(265,396,o),
(188,423,o),
(137,474,o),
(137,516,qs),
(137,572,o),
(230,643,o),
(322,643,qs),
(370,643,o),
(470,614,o),
(514,585,q),
(539,644,l),
(497,673,o),
(382,706,o),
(322,706,qs),
(236,706,o),
(120,654,o),
(64,567,o),
(64,514,qs),
(64,449,o),
(131,373,o),
(225,336,o),
(304,316,qs),
(370,300,o),
(444,273,o),
(495,223,o),
(495,181,qs),
(495,126,o),
(401,57,o),
(307,57,qs),
(240,57,o),
(114,104,o),
(76,142,q),
(47,85,l),
(86,44,o),
(229,-6,o),
(307,-6,qs)
);
}
);
userData = {
assembly = "NPUSHB[ ]	/* 46 values pushed */
24 1 2 1 25 3 2 3 0 2 2 74 0 2 2 1 95 0 1 1 72 75 0 0 0 3 95 4 1 3 3 73 3 76 0 0 0 43 0 42 37 45 37 5 10 23 
CALL[ ]	/* CallFunction */";
};
width = 615;
}
);
note = S;
unicode = 83;
},
{
glyphname = T;
kernLeft = T;
kernRight = T;
layers = (
{
layerId = m01;
shapes = (
{
closed = 1;
nodes = (
(324,0,l),
(324,636,l),
(570,636,l),
(570,700,l),
(4,700,l),
(4,636,l),
(250,636,l),
(250,0,l)
);
}
);
userData = {
assembly = "NPUSHB[ ]	/* 24 values pushed */
2 1 0 0 1 93 0 1 1 66 75 0 3 3 67 3 76 17 17 17 16 4 10 24 
CALL[ ]	/* CallFunction */";
};
width = 574;
}
);
note = T;
unicode = 84;
},
{
glyphname = U;
kernLeft = U;
kernRight = J;
layers = (
{
layerId = m01;
shapes = (
{
closed = 1;
nodes = (
(532,-6,o),
(683,150,o),
(683,299,qs),
(683,700,l),
(611,700,l),
(611,302,ls),
(611,180,o),
(501,60,o),
(396,60,qs),
(292,60,o),
(182,180,o),
(182,302,qs),
(182,700,l),
(108,700,l),
(108,299,ls),
(108,150,o),
(260,-6,o),
(396,-6,qs)
);
}
);
userData = {
assembly = "NPUSHB[ ]	/* 30 values pushed */
2 1 0 0 66 75 0 1 1 3 95 4 1 3 3 73 3 76 0 0 0 17 0 16 19 35 19 5 10 23 
CALL[ ]	/* CallFunction */";
};
width = 792;
}
);
note = U;
unicode = 85;
},
{
glyphname = V;
kernLeft = V;
kernRight = V;
layers = (
{
layerId = m01;
shapes = (
{
closed = 1;
nodes = (
(351,92,l),
(83,700,l),
(3,700,l),
(313,0,l),
(386,0,l),
(696,700,l),
(621,700,l)
);
}
);
userData = {
assembly = "NPUSHB[ ]	/* 30 values pushed */
5 1 0 1 1 74 3 2 2 1 1 66 75 0 0 0 67 0 76 0 0 0 6 0 6 17 17 4 10 22 
CALL[ ]	/* CallFunction */";
};
width = 698;
}
);
note = V;
unicode = 86;
},
{
glyphname = W;
kernLeft = V;
kernRight = V;
layers = (
{
layerId = m01;
shapes = (
{
closed = 1;
nodes = (
(799,95,l),
(593,700,l),
(524,700,l),
(315,98,l),
(113,700,l),
(37,700,l),
(273,0,l),
(350,0,l),
(556,597,l),
(761,0,l),
(839,0,l),
(1075,700,l),
(1004,700,l)
);
}
);
userData = {
assembly = "NPUSHB[ ]	/* 36 values pushed */
11 8 3 3 0 2 1 74 5 4 3 3 2 2 66 75 1 1 0 0 67 0 76 0 0 0 12 0 12 18 17 18 17 6 10 24 
CALL[ ]	/* CallFunction */";
};
width = 1111;
}
);
note = W;
unicode = 87;
},
{
glyphname = X;
kernLeft = X;
kernRight = X;
layers = (
{
layerId = m01;
shapes = (
{
closed = 1;
nodes = (
(372,362,l),
(620,700,l),
(540,700,l),
(330,414,l),
(119,700,l),
(34,700,l),
(283,360,l),
(17,0,l),
(102,0,l),
(327,308,l),
(553,0,l),
(639,0,l)
);
}
);
userData = {
assembly = "NPUSHB[ ]	/* 35 values pushed */
10 7 4 1 4 0 1 1 74 2 1 1 1 66 75 4 3 2 0 0 67 0 76 0 0 0 11 0 11 18 18 18 5 10 23 
CALL[ ]	/* CallFunction */";
};
width = 656;
}
);
note = X;
unicode = 88;
},
{
glyphname = Y;
kernLeft = Y;
kernRight = Y;
layers = (
{
layerId = m01;
shapes = (
{
closed = 1;
nodes = (
(560,700,l),
(320,307,l),
(80,700,l),
(1,700,l),
(281,242,l),
(281,0,l),
(354,0,l),
(354,242,l),
(634,700,l)
);
}
);
userData = {
assembly = "NPUSHB[ ]	/* 26 values pushed */
6 3 0 3 0 1 1 74 2 1 1 1 66 75 0 0 0 67 0 76 18 18 17 3 10 23 
CALL[ ]	/* CallFunction */";
};
width = 635;
}
);
note = Y;
unicode = 89;
},
{
glyphname = Z;
kernLeft = Z;
kernRight = Z;
layers = (
{
layerId = m01;
shapes = (
{
closed = 1;
nodes = (
(607,649,l),
(607,700,l),
(52,700,l),
(52,636,l),
(509,636,l),
(45,51,l),
(45,0,l),
(619,0,l),
(619,64,l),
(144,64,l)
);
}
);
userData = {
assembly = "NPUSHB[ ]	/* 44 values pushed */
8 1 1 2 3 1 0 3 2 74 0 1 1 2 93 0 2 2 66 75 4 1 3 3 0 93 0 0 0 67 0 76 0 0 0 9 0 9 17 18 17 5 10 23 
CALL[ ]	/* CallFunction */";
};
width = 651;
}
);
note = Z;
unicode = 90;
},
{
glyphname = bracketleft;
kernLeft = bracketleft;
kernRight = bracketleft;
layers = (
{
layerId = m01;
shapes = (
{
closed = 1;
nodes = (
(297,-194,l),
(297,-135,l),
(185,-135,l),
(185,683,l),
(297,683,l),
(297,742,l),
(114,742,l),
(114,-194,l)
);
}
);
userData = {
assembly = "NPUSHB[ ]	/* 28 values pushed */
0 1 1 0 93 0 0 0 68 75 0 2 2 3 93 0 3 3 71 3 76 17 17 17 16 4 10 24 
CALL[ ]	/* CallFunction */";
};
width = 318;
}
);
note = bracketleft;
unicode = 91;
},
{
glyphname = backslash;
kernLeft = backslash;
layers = (
{
layerId = m01;
shapes = (
{
closed = 1;
nodes = (
(30,842,l),
(-35,842,l),
(295,-100,l),
(360,-100,l)
);
}
);
userData = {
assembly = "NPUSHB[ ]	/* 20 values pushed */
0 0 1 0 131 2 1 1 1 116 0 0 0 3 0 3 17 3 10 21 
CALL[ ]	/* CallFunction */";
};
width = 335;
}
);
note = backslash;
unicode = 92;
},
{
glyphname = bracketright;
kernLeft = bracketright;
kernRight = bracketright;
layers = (
{
layerId = m01;
shapes = (
{
closed = 1;
nodes = (
(204,742,l),
(21,742,l),
(21,683,l),
(133,683,l),
(133,-135,l),
(21,-135,l),
(21,-194,l),
(204,-194,l)
);
}
);
userData = {
assembly = "NPUSHB[ ]	/* 34 values pushed */
0 1 1 2 93 0 2 2 68 75 0 0 0 3 93 4 1 3 3 71 3 76 0 0 0 7 0 7 17 17 17 5 10 23 
CALL[ ]	/* CallFunction */";
};
width = 318;
}
);
note = bracketright;
unicode = 93;
},
{
glyphname = asciicircum;
layers = (
{
layerId = m01;
shapes = (
{
closed = 1;
nodes = (
(319,557,l),
(258,557,l),
(83,143,l),
(142,143,l),
(288,496,l),
(434,143,l),
(493,143,l)
);
}
);
userData = {
assembly = "PUSHB[ ]	/* 2 values pushed */
6 100 
WCVTP[ ]	/* WriteCVTInPixels */
NPUSHB[ ]	/* 28 values pushed */
1 1 0 1 1 74 0 1 0 1 131 3 2 2 0 0 116 0 0 0 6 0 6 17 18 4 10 22 
CALL[ ]	/* CallFunction */
PUSHB[ ]	/* 2 values pushed */
6 0 
WCVTP[ ]	/* WriteCVTInPixels */";
};
width = 576;
}
);
note = asciicircum;
unicode = 94;
},
{
glyphname = underscore;
kernLeft = underscore;
kernRight = underscore;
layers = (
{
layerId = m01;
shapes = (
{
closed = 1;
nodes = (
(500,-48,l),
(500,0,l),
(0,0,l),
(0,-48,l)
);
}
);
userData = {
assembly = "PUSHB[ ]	/* 2 values pushed */
6 100 
WCVTP[ ]	/* WriteCVTInPixels */
NPUSHB[ ]	/* 21 values pushed */
0 0 1 1 0 85 0 0 0 1 93 0 1 0 1 77 17 16 2 10 22 
CALL[ ]	/* CallFunction */
PUSHB[ ]	/* 2 values pushed */
6 0 
WCVTP[ ]	/* WriteCVTInPixels */";
};
width = 500;
}
);
note = underscore;
unicode = 95;
},
{
glyphname = a;
kernLeft = a;
kernRight = a;
layers = (
{
layerId = m01;
shapes = (
{
closed = 1;
nodes = (
(221,530,o),
(109,493,o),
(69,459,q),
(101,406,l),
(134,435,o),
(226,468,o),
(276,468,qs),
(349,468,o),
(425,397,o),
(425,329,qs),
(425,297,l),
(258,297,ls),
(152,297,o),
(55,215,o),
(55,148,qs),
(55,79,o),
(159,-5,o),
(247,-5,qs),
(311,-5,o),
(404,41,o),
(428,82,q),
(428,0,l),
(496,0,l),
(496,326,ls),
(496,427,o),
(386,530,o),
(283,530,qs)
);
},
{
closed = 1;
nodes = (
(195,51,o),
(125,104,o),
(125,150,qs),
(125,244,o),
(260,244,qs),
(425,244,l),
(425,158,l),
(404,106,o),
(318,51,o),
(258,51,qs)
);
}
);
userData = {
assembly = "NPUSHB[ ]	/* 12 values pushed */
23 22 2 2 3 29 5 2 6 5 2 74 
MPPEM[ ]	/* MeasurePixelPerEm */
PUSHB[ ]	/* 1 value pushed */
46 
LT[ ]	/* LessThan */
IF[ ]	/* If */
NPUSHB[ ]	/* 32 values pushed */
0 2 0 5 6 2 5 101 0 3 3 4 95 7 1 4 4 75 75 8 1 6 6 0 95 1 1 0 0 67 0 76 
ELSE[ ]	/* Else */
NPUSHB[ ]	/* 36 values pushed */
0 2 0 5 6 2 5 101 0 3 3 4 95 7 1 4 4 75 75 0 0 0 67 75 8 1 6 6 1 95 0 1 1 76 1 76 
EIF[ ]	/* EndIf */
NPUSHB[ ]	/* 21 values pushed */
27 27 0 0 27 36 27 35 32 30 0 26 0 25 35 36 35 19 9 10 24 
CALL[ ]	/* CallFunction */";
};
width = 590;
}
);
note = a;
unicode = 97;
},
{
glyphname = b;
kernLeft = b;
kernRight = b;
layers = (
{
layerId = m01;
shapes = (
{
closed = 1;
nodes = (
(306,530,o),
(203,477,o),
(170,426,q),
(170,742,l),
(99,742,l),
(99,0,l),
(167,0,l),
(167,104,l),
(199,51,o),
(304,-5,o),
(370,-5,qs),
(444,-5,o),
(564,63,o),
(632,185,o),
(632,263,qs),
(632,341,o),
(564,463,o),
(444,530,o),
(370,530,qs)
);
},
{
closed = 1;
nodes = (
(309,58,o),
(220,109,o),
(169,203,o),
(169,263,qs),
(169,323,o),
(220,417,o),
(309,468,o),
(365,468,qs),
(420,468,o),
(510,417,o),
(561,323,o),
(561,263,qs),
(561,203,o),
(510,109,o),
(420,58,o),
(365,58,qs)
);
}
);
userData = {
assembly = "PUSHB[ ]	/* 7 values pushed */
15 10 2 5 4 1 74 
MPPEM[ ]	/* MeasurePixelPerEm */
PUSHB[ ]	/* 1 value pushed */
46 
LT[ ]	/* LessThan */
IF[ ]	/* If */
NPUSHB[ ]	/* 29 values pushed */
0 2 2 68 75 0 4 4 3 95 6 1 3 3 75 75 7 1 5 5 0 95 1 1 0 0 76 0 76 
ELSE[ ]	/* Else */
NPUSHB[ ]	/* 33 values pushed */
0 2 2 68 75 0 4 4 3 95 6 1 3 3 75 75 0 1 1 67 75 7 1 5 5 0 95 0 0 0 76 0 76 
EIF[ ]	/* EndIf */
NPUSHB[ ]	/* 20 values pushed */
19 19 0 0 19 34 19 33 27 25 0 18 0 17 17 19 38 8 10 23 
CALL[ ]	/* CallFunction */";
};
width = 678;
}
);
note = b;
unicode = 98;
},
{
glyphname = c;
kernLeft = c;
layers = (
{
layerId = m01;
shapes = (
{
closed = 1;
nodes = (
(384,-5,o),
(492,48,o),
(523,99,q),
(470,135,l),
(444,96,o),
(364,58,o),
(317,58,qs),
(260,58,o),
(169,109,o),
(118,202,o),
(118,263,qs),
(118,323,o),
(169,417,o),
(260,468,o),
(317,468,qs),
(364,468,o),
(444,429,o),
(470,390,q),
(523,426,l),
(492,477,o),
(385,530,o),
(317,530,qs),
(239,530,o),
(116,462,o),
(46,340,o),
(46,263,qs),
(46,186,o),
(116,63,o),
(239,-5,o),
(317,-5,qs)
);
}
);
userData = {
assembly = "NPUSHB[ ]	/* 43 values pushed */
26 25 11 10 4 2 1 1 74 0 1 1 0 95 0 0 0 75 75 0 2 2 3 95 4 1 3 3 76 3 76 0 0 0 29 0 28 38 37 38 5 10 23 
CALL[ ]	/* CallFunction */";
};
width = 563;
}
);
note = c;
unicode = 99;
},
{
glyphname = d;
kernLeft = c;
kernRight = d;
layers = (
{
layerId = m01;
shapes = (
{
closed = 1;
nodes = (
(508,426,l),
(475,477,o),
(372,530,o),
(308,530,qs),
(234,530,o),
(114,463,o),
(46,341,o),
(46,263,qs),
(46,185,o),
(114,63,o),
(234,-5,o),
(308,-5,qs),
(374,-5,o),
(479,51,o),
(511,104,q),
(511,0,l),
(579,0,l),
(579,742,l),
(508,742,l)
);
},
{
closed = 1;
nodes = (
(258,58,o),
(169,109,o),
(118,203,o),
(118,263,qs),
(118,323,o),
(169,417,o),
(258,468,o),
(314,468,qs),
(369,468,o),
(458,417,o),
(509,323,o),
(509,263,qs),
(509,203,o),
(458,109,o),
(369,58,o),
(314,58,qs)
);
}
);
userData = {
assembly = "PUSHB[ ]	/* 7 values pushed */
17 3 2 5 4 1 74 
MPPEM[ ]	/* MeasurePixelPerEm */
PUSHB[ ]	/* 1 value pushed */
46 
LT[ ]	/* LessThan */
IF[ ]	/* If */
NPUSHB[ ]	/* 29 values pushed */
6 1 3 3 68 75 0 4 4 2 95 0 2 2 75 75 7 1 5 5 0 95 1 1 0 0 67 0 76 
ELSE[ ]	/* Else */
NPUSHB[ ]	/* 33 values pushed */
6 1 3 3 68 75 0 4 4 2 95 0 2 2 75 75 0 0 0 67 75 7 1 5 5 1 95 0 1 1 76 1 76 
EIF[ ]	/* EndIf */
NPUSHB[ ]	/* 20 values pushed */
19 19 0 0 19 34 19 33 27 25 0 18 0 18 38 35 17 8 10 23 
CALL[ ]	/* CallFunction */";
};
width = 678;
}
);
note = d;
unicode = 100;
},
{
glyphname = e;
kernLeft = c;
kernRight = e;
layers = (
{
layerId = m01;
shapes = (
{
closed = 1;
nodes = (
(558,341,o),
(492,462,o),
(376,530,o),
(303,530,qs),
(230,530,o),
(113,462,o),
(46,340,o),
(46,263,qs),
(46,186,o),
(116,64,o),
(241,-5,o),
(322,-5,qs),
(385,-5,o),
(490,39,o),
(525,81,q),
(485,127,l),
(455,93,o),
(373,58,o),
(324,58,qs),
(237,58,o),
(123,159,o),
(117,241,q),
(557,241,l),
(558,263,ls)
);
},
{
closed = 1;
nodes = (
(380,469,o),
(483,372,o),
(490,294,q),
(117,294,l),
(124,372,o),
(227,469,o),
(303,469,qs)
);
}
);
userData = {
assembly = "NPUSHB[ ]	/* 51 values pushed */
8 7 2 1 0 1 74 0 4 0 0 1 4 0 101 6 1 5 5 3 95 0 3 3 75 75 0 1 1 2 95 0 2 2 76 2 76 24 24 24 30 24 29 22 38 37 34 16 7 10 25 
CALL[ ]	/* CallFunction */";
};
width = 604;
}
);
note = e;
unicode = 101;
},
{
glyphname = f;
kernRight = f;
layers = (
{
layerId = m01;
shapes = (
{
closed = 1;
nodes = (
(320,687,o),
(351,661,q),
(375,714,l),
(356,730,o),
(300,747,o),
(270,747,qs),
(194,747,o),
(111,663,o),
(111,591,qs),
(111,526,l),
(17,526,l),
(17,466,l),
(111,466,l),
(111,0,l),
(182,0,l),
(182,466,l),
(342,466,l),
(342,526,l),
(180,526,l),
(180,588,ls),
(180,637,o),
(227,687,o),
(273,687,qs)
);
}
);
userData = {
assembly = "NPUSHB[ ]	/* 54 values pushed */
19 1 6 5 20 1 0 6 2 74 7 1 6 6 5 95 0 5 5 74 75 3 1 1 1 0 93 4 1 0 0 69 75 0 2 2 67 2 76 0 0 0 22 0 21 35 17 17 17 17 19 8 10 26 
CALL[ ]	/* CallFunction */";
};
width = 339;
}
);
note = f;
unicode = 102;
},
{
glyphname = g;
kernLeft = c;
kernRight = g;
layers = (
{
layerId = m01;
shapes = (
{
closed = 1;
nodes = (
(518,425,l),
(485,476,o),
(377,530,o),
(310,530,qs),
(235,530,o),
(115,466,o),
(46,350,o),
(46,276,qs),
(46,202,o),
(115,85,o),
(236,20,o),
(310,20,qs),
(375,20,o),
(482,72,o),
(515,122,q),
(515,55,ls),
(515,-43,o),
(421,-136,o),
(321,-136,qs),
(261,-136,o),
(152,-98,o),
(114,-64,q),
(78,-118,l),
(119,-156,o),
(250,-199,o),
(323,-199,qs),
(455,-199,o),
(586,-70,o),
(586,64,qs),
(586,526,l),
(518,526,l)
);
},
{
closed = 1;
nodes = (
(260,83,o),
(169,132,o),
(118,220,o),
(118,276,qs),
(118,332,o),
(169,420,o),
(260,468,o),
(317,468,qs),
(375,468,o),
(466,419,o),
(517,332,o),
(517,276,qs),
(517,220,o),
(466,132,o),
(374,83,o),
(317,83,qs)
);
}
);
userData = {
assembly = "NPUSHB[ ]	/* 12 values pushed */
29 15 2 6 5 8 7 2 1 2 2 74 
MPPEM[ ]	/* MeasurePixelPerEm */
PUSHB[ ]	/* 1 value pushed */
26 
LT[ ]	/* LessThan */
IF[ ]	/* If */
NPUSHB[ ]	/* 34 values pushed */
0 5 5 3 95 7 4 2 3 3 75 75 8 1 6 6 2 95 0 2 2 67 75 0 1 1 0 95 0 0 0 77 0 76 
ELSE[ ]	/* Else */
NPUSHB[ ]	/* 32 values pushed */
8 1 6 0 2 1 6 2 103 0 5 5 3 95 7 4 2 3 3 75 75 0 1 1 0 95 0 0 0 77 0 76 
EIF[ ]	/* EndIf */
NPUSHB[ ]	/* 21 values pushed */
31 31 0 0 31 46 31 45 39 37 0 30 0 30 38 37 37 35 9 10 24 
CALL[ ]	/* CallFunction */";
};
width = 686;
}
);
note = g;
unicode = 103;
},
{
glyphname = h;
kernLeft = b;
kernRight = a;
layers = (
{
layerId = m01;
shapes = (
{
closed = 1;
nodes = (
(301,530,o),
(199,480,o),
(170,434,q),
(170,742,l),
(99,742,l),
(99,0,l),
(170,0,l),
(170,276,ls),
(170,365,o),
(269,466,o),
(354,466,qs),
(430,466,o),
(512,380,o),
(512,298,qs),
(512,0,l),
(583,0,l),
(583,305,ls),
(583,415,o),
(466,530,o),
(367,530,qs)
);
}
);
userData = {
assembly = "NPUSHB[ ]	/* 42 values pushed */
16 1 0 1 1 74 0 3 3 68 75 0 1 1 4 95 5 1 4 4 75 75 2 1 0 0 67 0 76 0 0 0 19 0 18 17 19 35 19 6 10 24 
CALL[ ]	/* CallFunction */";
};
width = 677;
}
);
note = h;
unicode = 104;
},
{
glyphname = k;
kernLeft = b;
kernRight = k;
layers = (
{
layerId = m01;
shapes = (
{
closed = 1;
nodes = (
(593,0,l),
(347,311,l),
(572,526,l),
(484,526,l),
(170,239,l),
(170,742,l),
(99,742,l),
(99,0,l),
(170,0,l),
(170,150,l),
(294,264,l),
(506,0,l)
);
}
);
userData = {
assembly = "NPUSHB[ ]	/* 32 values pushed */
9 6 1 3 0 2 1 74 0 1 1 68 75 0 2 2 69 75 3 1 0 0 67 0 76 18 18 17 18 4 10 24 
CALL[ ]	/* CallFunction */";
};
width = 601;
}
);
note = k;
unicode = 107;
},
{
glyphname = l;
kernLeft = b;
kernRight = d;
layers = (
{
layerId = m01;
shapes = (
{
closed = 1;
nodes = (
(170,0,l),
(170,742,l),
(99,742,l),
(99,0,l)
);
}
);
userData = {
assembly = "NPUSHB[ ]	/* 16 values pushed */
0 0 0 68 75 0 1 1 67 1 76 17 16 2 10 22 
CALL[ ]	/* CallFunction */";
};
width = 269;
}
);
note = l;
unicode = 108;
},
{
glyphname = m;
kernLeft = i;
kernRight = a;
layers = (
{
layerId = m01;
shapes = (
{
closed = 1;
nodes = (
(685,530,o),
(576,471,o),
(547,419,q),
(523,474,o),
(426,530,o),
(360,530,qs),
(295,530,o),
(195,478,o),
(167,430,q),
(167,526,l),
(99,526,l),
(99,0,l),
(170,0,l),
(170,276,ls),
(170,365,o),
(265,466,o),
(346,466,qs),
(419,466,o),
(498,380,o),
(498,298,qs),
(498,0,l),
(569,0,l),
(569,276,ls),
(569,365,o),
(663,466,o),
(745,466,qs),
(817,466,o),
(896,380,o),
(896,298,qs),
(896,0,l),
(967,0,l),
(967,305,ls),
(967,416,o),
(854,530,o),
(755,530,qs)
);
}
);
userData = {
assembly = "NPUSHB[ ]	/* 45 values pushed */
31 25 2 0 1 1 74 3 1 1 1 5 95 8 7 6 3 5 5 69 75 4 2 2 0 0 67 0 76 0 0 0 34 0 33 35 17 19 35 19 35 19 9 10 27 
CALL[ ]	/* CallFunction */";
};
width = 1061;
}
);
note = m;
unicode = 109;
},
{
glyphname = n;
kernLeft = i;
kernRight = a;
layers = (
{
layerId = m01;
shapes = (
{
closed = 1;
nodes = (
(299,530,o),
(196,477,o),
(167,429,q),
(167,526,l),
(99,526,l),
(99,0,l),
(170,0,l),
(170,276,ls),
(170,365,o),
(269,466,o),
(354,466,qs),
(430,466,o),
(512,380,o),
(512,298,qs),
(512,0,l),
(583,0,l),
(583,305,ls),
(583,415,o),
(466,530,o),
(367,530,qs)
);
}
);
userData = {
assembly = "NPUSHB[ ]	/* 38 values pushed */
16 1 0 1 1 74 0 1 1 3 95 5 4 2 3 3 69 75 2 1 0 0 67 0 76 0 0 0 19 0 18 17 19 35 19 6 10 24 
CALL[ ]	/* CallFunction */";
};
width = 677;
}
);
note = n;
unicode = 110;
},
{
glyphname = o;
kernLeft = c;
kernRight = b;
layers = (
{
layerId = m01;
shapes = (
{
closed = 1;
nodes = (
(390,-5,o),
(512,64,o),
(581,186,o),
(581,263,qs),
(581,340,o),
(512,462,o),
(390,530,o),
(314,530,qs),
(238,530,o),
(116,462,o),
(46,340,o),
(46,263,qs),
(46,186,o),
(116,64,o),
(238,-5,o),
(314,-5,qs)
);
},
{
closed = 1;
nodes = (
(258,58,o),
(169,109,o),
(118,203,o),
(118,263,qs),
(118,323,o),
(169,417,o),
(258,468,o),
(314,468,qs),
(370,468,o),
(459,417,o),
(509,323,o),
(509,263,qs),
(509,203,o),
(459,109,o),
(370,58,o),
(314,58,qs)
);
}
);
userData = {
assembly = "NPUSHB[ ]	/* 41 values pushed */
0 2 2 0 95 0 0 0 75 75 5 1 3 3 1 95 4 1 1 1 76 1 76 16 16 0 0 16 31 16 30 24 22 0 15 0 14 38 6 10 21 
CALL[ ]	/* CallFunction */";
};
width = 627;
}
);
note = o;
unicode = 111;
},
{
glyphname = p;
kernLeft = i;
kernRight = b;
layers = (
{
layerId = m01;
shapes = (
{
closed = 1;
nodes = (
(304,530,o),
(199,474,o),
(167,422,q),
(167,526,l),
(99,526,l),
(99,-194,l),
(170,-194,l),
(170,99,l),
(203,48,o),
(306,-5,o),
(370,-5,qs),
(445,-5,o),
(564,62,o),
(632,184,o),
(632,263,qs),
(632,341,o),
(564,463,o),
(444,530,o),
(370,530,qs)
);
},
{
closed = 1;
nodes = (
(309,58,o),
(220,109,o),
(169,203,o),
(169,263,qs),
(169,323,o),
(220,416,o),
(309,468,o),
(365,468,qs),
(420,468,o),
(510,416,o),
(561,323,o),
(561,263,qs),
(561,203,o),
(510,109,o),
(420,58,o),
(365,58,qs)
);
}
);
userData = {
assembly = "NPUSHB[ ]	/* 56 values pushed */
15 10 2 5 4 1 74 0 4 4 2 95 6 3 2 2 2 69 75 7 1 5 5 0 95 0 0 0 76 75 0 1 1 71 1 76 19 19 0 0 19 34 19 33 27 25 0 18 0 17 17 19 38 8 10 23 
CALL[ ]	/* CallFunction */";
};
width = 678;
}
);
note = p;
unicode = 112;
},
{
glyphname = q;
kernLeft = c;
kernRight = g;
layers = (
{
layerId = m01;
shapes = (
{
closed = 1;
nodes = (
(511,422,l),
(479,474,o),
(374,530,o),
(308,530,qs),
(234,530,o),
(114,463,o),
(46,341,o),
(46,263,qs),
(46,184,o),
(114,62,o),
(233,-5,o),
(308,-5,qs),
(372,-5,o),
(475,48,o),
(508,99,q),
(508,-194,l),
(579,-194,l),
(579,526,l),
(511,526,l)
);
},
{
closed = 1;
nodes = (
(258,58,o),
(169,109,o),
(118,203,o),
(118,263,qs),
(118,323,o),
(169,416,o),
(258,468,o),
(314,468,qs),
(369,468,o),
(458,416,o),
(509,323,o),
(509,263,qs),
(509,203,o),
(458,109,o),
(369,58,o),
(314,58,qs)
);
}
);
userData = {
assembly = "NPUSHB[ ]	/* 56 values pushed */
17 3 2 5 4 1 74 0 4 4 2 95 6 3 2 2 2 75 75 7 1 5 5 1 95 0 1 1 76 75 0 0 0 71 0 76 19 19 0 0 19 34 19 33 27 25 0 18 0 18 38 35 17 8 10 23 
CALL[ ]	/* CallFunction */";
};
width = 678;
}
);
note = q;
unicode = 113;
},
{
glyphname = r;
kernLeft = i;
kernRight = r;
layers = (
{
layerId = m01;
shapes = (
{
closed = 1;
nodes = (
(167,526,l),
(99,526,l),
(99,0,l),
(170,0,l),
(170,268,ls),
(170,360,o),
(264,462,o),
(347,462,qs),
(364,461,l),
(364,530,l),
(291,530,o),
(192,476,o),
(167,423,q)
);
}
);
userData = {
assembly = "NPUSHB[ ]	/* 30 values pushed */
12 1 2 1 1 74 0 1 1 0 95 3 1 0 0 75 75 0 2 2 67 2 76 17 19 33 17 4 10 24 
CALL[ ]	/* CallFunction */";
};
width = 401;
}
);
note = r;
unicode = 114;
},
{
glyphname = s;
kernLeft = s;
kernRight = s;
layers = (
{
layerId = m01;
shapes = (
{
closed = 1;
nodes = (
(342,-5,o),
(457,76,o),
(457,145,qs),
(457,196,o),
(403,254,o),
(327,278,o),
(264,290,qs),
(213,299,o),
(155,316,o),
(116,352,o),
(116,382,qs),
(116,421,o),
(185,469,o),
(253,469,qs),
(343,469,o),
(408,424,q),
(439,481,l),
(406,503,o),
(304,530,o),
(253,530,qs),
(155,530,o),
(45,446,o),
(45,380,qs),
(45,327,o),
(100,267,o),
(178,242,o),
(242,230,qs),
(290,222,o),
(348,205,o),
(386,172,o),
(386,143,qs),
(386,102,o),
(317,57,o),
(245,57,qs),
(191,57,o),
(91,90,o),
(58,116,q),
(26,60,l),
(59,32,o),
(176,-5,o),
(240,-5,qs)
);
}
);
userData = {
assembly = "NPUSHB[ ]	/* 46 values pushed */
23 1 2 1 24 3 2 3 0 2 2 74 0 2 2 1 95 0 1 1 75 75 0 0 0 3 95 4 1 3 3 76 3 76 0 0 0 40 0 39 36 44 37 5 10 23 
CALL[ ]	/* CallFunction */";
};
width = 489;
}
);
note = s;
unicode = 115;
},
{
glyphname = t;
kernLeft = t;
kernRight = t;
layers = (
{
layerId = m01;
shapes = (
{
closed = 1;
nodes = (
(336,70,o),
(295,56,o),
(273,56,qs),
(229,56,o),
(182,105,o),
(182,152,qs),
(182,466,l),
(342,466,l),
(342,526,l),
(182,526,l),
(182,641,l),
(111,641,l),
(111,526,l),
(17,526,l),
(17,466,l),
(111,466,l),
(111,148,ls),
(111,75,o),
(191,-5,o),
(265,-5,qs),
(297,-5,o),
(356,14,o),
(376,32,q),
(351,83,l)
);
}
);
userData = {
assembly = "NPUSHB[ ]	/* 44 values pushed */
23 1 6 1 1 74 0 3 2 3 131 5 1 1 1 2 93 4 1 2 2 69 75 0 6 6 0 95 0 0 0 76 0 76 35 17 17 17 17 19 34 7 10 27 
CALL[ ]	/* CallFunction */";
};
width = 406;
}
);
note = t;
unicode = 116;
},
{
glyphname = u;
kernLeft = u;
kernRight = g;
layers = (
{
layerId = m01;
shapes = (
{
closed = 1;
nodes = (
(502,250,ls),
(502,160,o),
(406,59,o),
(323,59,qs),
(247,59,o),
(165,145,o),
(165,228,qs),
(165,526,l),
(94,526,l),
(94,221,ls),
(94,110,o),
(213,-5,o),
(316,-5,qs),
(379,-5,o),
(477,48,o),
(505,96,q),
(505,0,l),
(573,0,l),
(573,526,l),
(502,526,l)
);
}
);
userData = {
assembly = "PUSHB[ ]	/* 6 values pushed */
3 1 3 2 1 74 
MPPEM[ ]	/* MeasurePixelPerEm */
PUSHB[ ]	/* 1 value pushed */
46 
LT[ ]	/* LessThan */
IF[ ]	/* If */
NPUSHB[ ]	/* 19 values pushed */
5 4 2 2 2 69 75 0 3 3 0 95 1 1 0 0 67 0 76 
ELSE[ ]	/* Else */
NPUSHB[ ]	/* 23 values pushed */
5 4 2 2 2 69 75 0 0 0 67 75 0 3 3 1 95 0 1 1 76 1 76 
EIF[ ]	/* EndIf */
NPUSHB[ ]	/* 13 values pushed */
0 0 0 19 0 19 35 19 35 17 6 10 24 
CALL[ ]	/* CallFunction */";
};
width = 673;
}
);
note = u;
unicode = 117;
},
{
glyphname = v;
kernLeft = v;
kernRight = v;
layers = (
{
layerId = m01;
shapes = (
{
closed = 1;
nodes = (
(272,78,l),
(75,526,l),
(1,526,l),
(234,0,l),
(307,0,l),
(541,526,l),
(471,526,l)
);
}
);
userData = {
assembly = "NPUSHB[ ]	/* 30 values pushed */
5 1 0 1 1 74 3 2 2 1 1 69 75 0 0 0 67 0 76 0 0 0 6 0 6 17 17 4 10 22 
CALL[ ]	/* CallFunction */";
};
width = 542;
}
);
note = v;
unicode = 118;
},
{
glyphname = w;
kernLeft = v;
kernRight = v;
layers = (
{
layerId = m01;
shapes = (
{
closed = 1;
nodes = (
(639,79,l),
(471,526,l),
(410,526,l),
(241,79,l),
(76,526,l),
(8,526,l),
(206,0,l),
(273,0,l),
(439,431,l),
(605,0,l),
(672,0,l),
(871,526,l),
(806,526,l)
);
}
);
userData = {
assembly = "NPUSHB[ ]	/* 36 values pushed */
11 8 3 3 0 2 1 74 5 4 3 3 2 2 69 75 1 1 0 0 67 0 76 0 0 0 12 0 12 18 17 18 17 6 10 24 
CALL[ ]	/* CallFunction */";
};
width = 879;
}
);
note = w;
unicode = 119;
},
{
glyphname = x;
kernLeft = x;
kernRight = x;
layers = (
{
layerId = m01;
shapes = (
{
closed = 1;
nodes = (
(305,270,l),
(503,526,l),
(425,526,l),
(267,320,l),
(109,526,l),
(29,526,l),
(227,270,l),
(19,0,l),
(99,0,l),
(267,220,l),
(434,0,l),
(515,0,l)
);
}
);
userData = {
assembly = "NPUSHB[ ]	/* 35 values pushed */
10 7 4 1 4 0 1 1 74 2 1 1 1 69 75 4 3 2 0 0 67 0 76 0 0 0 11 0 11 18 18 18 5 10 23 
CALL[ ]	/* CallFunction */";
};
width = 534;
}
);
note = x;
unicode = 120;
},
{
glyphname = y;
kernLeft = v;
kernRight = v;
layers = (
{
layerId = m01;
shapes = (
{
closed = 1;
nodes = (
(273,79,l),
(75,526,l),
(1,526,l),
(236,1,l),
(213,-50,ls),
(191,-98,o),
(140,-138,o),
(104,-138,qs),
(48,-138,o),
(8,-98,q),
(-25,-151,l),
(-1,-175,o),
(65,-199,o),
(103,-199,qs),
(162,-199,o),
(246,-137,o),
(278,-63,qs),
(541,526,l),
(471,526,l)
);
}
);
userData = {
assembly = "NPUSHB[ ]	/* 42 values pushed */
17 14 8 3 1 2 7 1 0 1 2 74 4 3 2 2 2 69 75 0 1 1 0 95 0 0 0 77 0 76 0 0 0 18 0 18 20 36 35 5 10 23 
CALL[ ]	/* CallFunction */";
};
width = 542;
}
);
note = y;
unicode = 121;
},
{
glyphname = z;
kernLeft = z;
kernRight = z;
layers = (
{
layerId = m01;
shapes = (
{
closed = 1;
nodes = (
(464,479,l),
(464,526,l),
(48,526,l),
(48,466,l),
(373,466,l),
(42,47,l),
(42,0,l),
(470,0,l),
(470,59,l),
(133,59,l)
);
}
);
userData = {
assembly = "NPUSHB[ ]	/* 44 values pushed */
8 1 1 2 3 1 0 3 2 74 0 1 1 2 93 0 2 2 69 75 4 1 3 3 0 93 0 0 0 67 0 76 0 0 0 9 0 9 17 18 17 5 10 23 
CALL[ ]	/* CallFunction */";
};
width = 511;
}
);
note = z;
unicode = 122;
},
{
glyphname = braceleft;
kernRight = bracketleft;
layers = (
{
layerId = m01;
shapes = (
{
closed = 1;
nodes = (
(210,603,ls),
(210,683,o),
(286,683,qs),
(313,683,l),
(313,742,l),
(276,742,ls),
(139,742,o),
(139,609,qs),
(139,355,ls),
(139,304,o),
(94,304,qs),
(60,304,l),
(60,244,l),
(94,244,ls),
(139,244,o),
(139,193,qs),
(139,-61,ls),
(139,-194,o),
(276,-194,qs),
(313,-194,l),
(313,-135,l),
(286,-135,ls),
(210,-135,o),
(210,-55,qs),
(210,192,ls),
(210,229,o),
(188,265,o),
(163,274,q),
(188,283,o),
(210,319,o),
(210,356,qs)
);
}
);
userData = {
assembly = "NPUSHB[ ]	/* 44 values pushed */
2 1 2 3 1 74 0 3 0 2 0 3 2 103 0 5 5 4 95 0 4 4 68 75 0 0 0 1 95 0 1 1 71 1 76 33 35 33 35 33 39 6 10 26 
CALL[ ]	/* CallFunction */";
};
width = 334;
}
);
note = braceleft;
unicode = 123;
},
{
glyphname = bar;
layers = (
{
layerId = m01;
shapes = (
{
closed = 1;
nodes = (
(180,-194,l),
(180,742,l),
(114,742,l),
(114,-194,l)
);
}
);
userData = {
assembly = "NPUSHB[ ]	/* 16 values pushed */
0 0 0 68 75 0 1 1 71 1 76 17 16 2 10 22 
CALL[ ]	/* CallFunction */";
};
width = 295;
}
);
note = bar;
unicode = 124;
},
{
glyphname = braceright;
kernLeft = bracketright;
layers = (
{
layerId = m01;
shapes = (
{
closed = 1;
nodes = (
(195,304,o),
(195,355,qs),
(195,609,ls),
(195,742,o),
(59,742,qs),
(21,742,l),
(21,683,l),
(48,683,ls),
(124,683,o),
(124,603,qs),
(124,356,ls),
(124,319,o),
(146,283,o),
(171,274,q),
(146,265,o),
(124,229,o),
(124,192,qs),
(124,-55,ls),
(124,-135,o),
(48,-135,qs),
(21,-135,l),
(21,-194,l),
(59,-194,ls),
(195,-194,o),
(195,-61,qs),
(195,193,ls),
(195,244,o),
(240,244,qs),
(274,244,l),
(274,304,l),
(240,304,ls)
);
}
);
userData = {
assembly = "NPUSHB[ ]	/* 50 values pushed */
16 1 0 5 1 74 6 1 5 0 0 2 5 0 103 0 3 3 4 95 0 4 4 68 75 0 2 2 1 95 0 1 1 71 1 76 0 0 0 30 0 29 33 42 33 35 33 7 10 25 
CALL[ ]	/* CallFunction */";
};
width = 334;
}
);
note = braceright;
unicode = 125;
},
{
glyphname = asciitilde;
kernLeft = plus;
kernRight = plus;
layers = (
{
layerId = m01;
shapes = (
{
closed = 1;
nodes = (
(444,272,o),
(511,350,o),
(513,423,q),
(465,423,l),
(463,379,o),
(422,327,o),
(387,327,qs),
(366,327,o),
(330,349,o),
(304,372,qs),
(270,400,o),
(220,429,o),
(186,429,qs),
(131,429,o),
(64,351,o),
(62,278,q),
(110,278,l),
(112,322,o),
(153,373,o),
(188,373,qs),
(209,373,o),
(244,352,o),
(271,329,qs),
(305,301,o),
(355,272,o),
(389,272,qs)
);
}
);
userData = {
assembly = "PUSHB[ ]	/* 2 values pushed */
6 100 
WCVTP[ ]	/* WriteCVTInPixels */
MPPEM[ ]	/* MeasurePixelPerEm */
PUSHB[ ]	/* 1 value pushed */
39 
LT[ ]	/* LessThan */
IF[ ]	/* If */
NPUSHB[ ]	/* 27 values pushed */
4 1 2 0 0 3 2 0 103 0 3 1 1 3 87 0 3 3 1 95 6 5 2 1 3 1 79 
ELSE[ ]	/* Else */
NPUSHB[ ]	/* 41 values pushed */
0 4 2 0 2 4 0 126 0 1 3 5 3 1 5 126 0 2 0 0 3 2 0 103 0 3 1 5 3 87 0 3 3 5 95 6 1 5 3 5 79 
EIF[ ]	/* EndIf */
NPUSHB[ ]	/* 14 values pushed */
0 0 0 25 0 24 18 36 34 18 36 7 10 25 
CALL[ ]	/* CallFunction */
PUSHB[ ]	/* 2 values pushed */
6 0 
WCVTP[ ]	/* WriteCVTInPixels */";
};
width = 575;
}
);
note = asciitilde;
unicode = 126;
},
{
glyphname = exclamdown;
kernLeft = exclamdown;
kernRight = exclamdown;
layers = (
{
layerId = m01;
shapes = (
{
closed = 1;
nodes = (
(108,530,o),
(77,500,o),
(77,478,qs),
(77,457,o),
(108,427,o),
(130,427,qs),
(152,427,o),
(182,457,o),
(182,478,qs),
(182,500,o),
(152,530,o),
(130,530,qs)
);
},
{
closed = 1;
nodes = (
(102,315,l),
(88,-154,l),
(172,-154,l),
(157,315,l)
);
}
);
userData = {
assembly = "NPUSHB[ ]	/* 33 values pushed */
0 3 0 2 3 2 97 0 0 0 1 95 4 1 1 1 75 0 76 0 0 15 14 13 12 0 11 0 10 36 5 10 21 
CALL[ ]	/* CallFunction */";
};
width = 260;
}
);
note = exclamdown;
unicode = 161;
},
{
glyphname = cent;
kernLeft = c;
layers = (
{
layerId = m01;
shapes = (
{
closed = 1;
nodes = (
(335,467,l),
(377,464,o),
(447,425,o),
(470,390,q),
(523,426,l),
(494,473,o),
(397,526,o),
(335,530,q),
(335,646,l),
(286,646,l),
(286,529,l),
(216,522,o),
(107,451,o),
(46,335,o),
(46,263,qs),
(46,191,o),
(107,75,o),
(216,3,o),
(286,-4,q),
(286,-120,l),
(335,-120,l),
(335,-4,l),
(396,-1,o),
(494,52,o),
(523,99,q),
(470,135,l),
(447,100,o),
(377,62,o),
(335,59,q)
);
},
{
closed = 1;
nodes = (
(118,346,o),
(211,456,o),
(286,466,q),
(286,60,l),
(211,70,o),
(118,179,o),
(118,263,qs)
);
}
);
userData = {
assembly = "NPUSHB[ ]	/* 49 values pushed */
17 1 3 2 32 31 28 27 24 23 3 2 8 0 3 9 1 1 0 3 74 0 2 3 2 131 0 1 0 1 132 0 3 3 69 75 0 0 0 76 0 76 17 26 17 21 4 10 24 
CALL[ ]	/* CallFunction */";
};
width = 563;
}
);
note = cent;
unicode = 162;
},
{
glyphname = sterling;
kernLeft = sterling;
kernRight = sterling;
layers = (
{
layerId = m01;
shapes = (
{
closed = 1;
nodes = (
(493,325,l),
(493,375,l),
(216,375,l),
(216,459,ls),
(216,547,o),
(316,640,o),
(415,640,qs),
(528,640,o),
(594,592,q),
(621,653,l),
(544,706,o),
(421,706,qs),
(287,706,o),
(143,573,o),
(143,459,qs),
(143,375,l),
(30,375,l),
(30,325,l),
(143,325,l),
(143,64,l),
(30,64,l),
(30,0,l),
(608,0,l),
(608,64,l),
(216,64,l),
(216,325,l)
);
}
);
userData = {
assembly = "NPUSHB[ ]	/* 54 values pushed */
15 1 6 5 16 1 4 6 2 74 7 1 4 8 1 3 0 4 3 101 0 6 6 5 95 0 5 5 72 75 2 1 0 0 1 93 0 1 1 67 1 76 17 19 35 35 17 17 17 17 16 9 10 29 
CALL[ ]	/* CallFunction */";
};
width = 637;
}
);
note = sterling;
unicode = 163;
},
{
glyphname = currency;
kernLeft = currency;
kernRight = currency;
layers = (
{
layerId = m01;
shapes = (
{
closed = 1;
nodes = (
(626,365,o),
(593,452,o),
(563,487,q),
(666,590,l),
(624,635,l),
(519,530,l),
(483,557,o),
(396,586,o),
(350,586,qs),
(303,586,o),
(217,556,o),
(182,529,q),
(75,635,l),
(34,590,l),
(137,487,l),
(76,412,o),
(76,318,qs),
(76,271,o),
(108,184,o),
(138,149,q),
(34,45,l),
(75,0,l),
(183,107,l),
(218,81,o),
(304,52,o),
(350,52,qs),
(445,52,o),
(517,107,q),
(624,0,l),
(666,45,l),
(562,149,l),
(593,184,o),
(626,271,o),
(626,318,qs)
);
},
{
closed = 1;
nodes = (
(135,374,o),
(193,470,o),
(292,526,o),
(350,526,qs),
(408,526,o),
(508,470,o),
(567,374,o),
(567,318,qs),
(567,262,o),
(508,168,o),
(409,112,o),
(350,112,qs),
(292,112,o),
(193,168,o),
(135,262,o),
(135,318,qs)
);
}
);
userData = {
assembly = "NPUSHB[ ]	/* 64 values pushed */
27 21 2 3 1 30 18 13 2 4 2 3 10 5 2 0 2 3 74 29 28 20 19 4 1 72 12 11 4 3 4 0 71 0 1 0 3 2 1 3 103 0 2 0 0 2 87 0 2 2 0 95 0 0 2 0 79 38 43 47 38 4 10 24 
CALL[ ]	/* CallFunction */";
};
width = 700;
}
);
note = currency;
unicode = 164;
},
{
glyphname = yen;
kernLeft = yen;
kernRight = yen;
layers = (
{
layerId = m01;
shapes = (
{
closed = 1;
nodes = (
(618,700,l),
(349,335,l),
(79,700,l),
(1,700,l),
(286,312,l),
(91,312,l),
(91,268,l),
(311,268,l),
(311,174,l),
(91,174,l),
(91,130,l),
(311,130,l),
(311,0,l),
(384,0,l),
(384,130,l),
(604,130,l),
(604,174,l),
(384,174,l),
(384,268,l),
(604,268,l),
(604,312,l),
(409,312,l),
(694,700,l)
);
}
);
userData = {
assembly = "NPUSHB[ ]	/* 54 values pushed */
20 1 0 9 1 74 8 1 0 7 1 1 2 0 1 101 6 1 2 5 1 3 4 2 3 101 10 1 9 9 66 75 0 4 4 67 4 76 22 21 19 18 17 17 17 17 17 17 17 17 16 11 10 29 
CALL[ ]	/* CallFunction */";
};
width = 695;
}
);
note = yen;
unicode = 165;
},
{
glyphname = brokenbar;
layers = (
{
layerId = m01;
shapes = (
{
closed = 1;
nodes = (
(180,392,l),
(180,742,l),
(114,742,l),
(114,392,l)
);
},
{
closed = 1;
nodes = (
(180,-194,l),
(180,156,l),
(114,156,l),
(114,-194,l)
);
}
);
userData = {
assembly = "NPUSHB[ ]	/* 28 values pushed */
0 1 1 0 93 0 0 0 68 75 0 2 2 3 93 0 3 3 71 3 76 17 17 17 16 4 10 24 
CALL[ ]	/* CallFunction */";
};
width = 295;
}
);
note = brokenbar;
unicode = 166;
},
{
glyphname = section;
kernLeft = section;
kernRight = section;
layers = (
{
layerId = m01;
shapes = (
{
closed = 1;
nodes = (
(454,341,o),
(402,403,o),
(328,433,o),
(268,449,qs),
(219,462,o),
(163,482,o),
(126,520,o),
(126,551,qs),
(126,598,o),
(202,647,o),
(274,647,qs),
(369,647,o),
(435,600,q),
(460,654,l),
(429,677,o),
(327,705,o),
(279,705,qs),
(177,705,o),
(62,621,o),
(62,549,qs),
(62,510,o),
(93,458,o),
(121,440,q),
(83,420,o),
(39,353,o),
(39,310,qs),
(39,258,o),
(90,197,o),
(163,168,o),
(223,153,qs),
(273,140,o),
(329,120,o),
(367,81,o),
(367,49,qs),
(367,2,o),
(296,-47,o),
(232,-47,qs),
(181,-47,o),
(84,-11,o),
(53,16,q),
(28,-39,l),
(59,-68,o),
(173,-105,o),
(230,-105,qs),
(321,-105,o),
(432,-21,o),
(432,50,qs),
(432,123,o),
(373,160,q),
(410,179,o),
(454,246,o),
(454,288,qs)
);
},
{
closed = 1;
nodes = (
(278,198,o),
(250,204,qs),
(199,217,o),
(141,239,o),
(102,280,o),
(102,313,qs),
(102,350,o),
(149,401,o),
(187,412,q),
(211,404,o),
(244,397,qs),
(295,384,o),
(352,362,o),
(391,321,o),
(391,288,qs),
(391,250,o),
(345,199,o),
(307,189,q)
);
}
);
userData = {
assembly = "NPUSHB[ ]	/* 43 values pushed */
37 1 3 2 69 60 38 28 11 10 2 7 1 3 2 74 0 1 0 0 1 0 99 0 3 3 2 95 0 2 2 72 3 76 41 39 35 33 37 38 4 10 22 
CALL[ ]	/* CallFunction */";
};
width = 490;
}
);
note = section;
unicode = 167;
},
{
glyphname = copyright;
kernLeft = at;
kernRight = at;
layers = (
{
layerId = m01;
shapes = (
{
closed = 1;
nodes = (
(502,-3,o),
(664,91,o),
(758,254,o),
(758,352,qs),
(758,450,o),
(666,611,o),
(505,703,o),
(406,703,qs),
(307,703,o),
(145,609,o),
(52,447,o),
(52,350,qs),
(52,253,o),
(145,91,o),
(306,-3,o),
(404,-3,qs)
);
},
{
closed = 1;
nodes = (
(316,34,o),
(172,118,o),
(89,263,o),
(89,350,qs),
(89,437,o),
(172,582,o),
(317,666,o),
(406,666,qs),
(495,666,o),
(638,583,o),
(720,440,o),
(720,352,qs),
(720,264,o),
(636,119,o),
(492,34,o),
(404,34,qs)
);
},
{
closed = 1;
nodes = (
(464,142,o),
(547,183,o),
(572,220,q),
(529,251,l),
(508,222,o),
(448,194,o),
(412,194,qs),
(347,194,o),
(262,280,o),
(262,350,qs),
(262,420,o),
(347,506,o),
(412,506,qs),
(448,506,o),
(508,478,o),
(529,449,q),
(572,481,l),
(547,517,o),
(464,558,o),
(413,558,qs),
(354,558,o),
(259,505,o),
(205,410,o),
(205,350,qs),
(205,290,o),
(259,195,o),
(354,142,o),
(413,142,qs)
);
}
);
userData = {
assembly = "PUSHB[ ]	/* 2 values pushed */
6 100 
WCVTP[ ]	/* WriteCVTInPixels */
NPUSHB[ ]	/* 83 values pushed */
56 55 43 42 4 6 5 1 74 0 0 0 2 4 0 2 103 0 4 0 5 6 4 5 103 0 6 10 1 7 3 6 7 103 9 1 3 1 1 3 87 9 1 3 3 1 95 8 1 1 3 1 79 32 32 16 16 0 0 32 59 32 58 53 51 47 45 40 38 16 31 16 30 24 22 0 15 0 14 38 11 10 21 
CALL[ ]	/* CallFunction */
PUSHB[ ]	/* 2 values pushed */
6 0 
WCVTP[ ]	/* WriteCVTInPixels */";
};
width = 809;
}
);
note = copyright;
unicode = 169;
},
{
glyphname = ordfeminine;
kernLeft = asterisk;
layers = (
{
layerId = m01;
shapes = (
{
closed = 1;
nodes = (
(151,746,o),
(77,722,o),
(51,702,q),
(72,667,l),
(93,684,o),
(152,704,o),
(185,704,qs),
(231,704,o),
(277,665,o),
(277,624,qs),
(277,608,l),
(172,608,ls),
(104,608,o),
(41,559,o),
(41,518,qs),
(41,477,o),
(105,427,o),
(164,427,qs),
(206,427,o),
(266,455,o),
(281,478,q),
(281,430,l),
(330,430,l),
(330,622,ls),
(330,684,o),
(258,746,o),
(190,746,qs)
);
},
{
closed = 1;
nodes = (
(135,464,o),
(91,494,o),
(91,521,qs),
(91,545,o),
(133,573,o),
(178,573,qs),
(277,573,l),
(277,522,l),
(250,464,o),
(175,464,qs)
);
}
);
userData = {
assembly = "NPUSHB[ ]	/* 62 values pushed */
23 22 2 2 3 28 5 2 6 5 2 74 0 2 0 5 6 2 5 101 8 1 6 1 1 0 6 0 99 0 3 3 4 95 7 1 4 4 104 3 76 27 27 0 0 27 36 27 35 31 29 0 26 0 25 35 36 35 19 9 12 24 
CALL[ ]	/* CallFunction */";
};
width = 401;
}
);
note = ordfeminine;
unicode = 170;
},
{
glyphname = logicalnot;
kernLeft = plus;
layers = (
{
layerId = m01;
shapes = (
{
closed = 1;
nodes = (
(70,380,l),
(70,321,l),
(442,321,l),
(442,141,l),
(505,141,l),
(505,380,l)
);
}
);
userData = {
assembly = "NPUSHB[ ]	/* 27 values pushed */
0 0 1 0 132 0 2 1 1 2 85 0 2 2 1 93 0 1 2 1 77 17 17 16 3 10 23 
CALL[ ]	/* CallFunction */";
};
width = 575;
}
);
note = logicalnot;
unicode = 172;
},
{
glyphname = registered;
kernLeft = at;
kernRight = at;
layers = (
{
layerId = m01;
shapes = (
{
closed = 1;
nodes = (
(307,703,o),
(145,609,o),
(52,447,o),
(52,350,qs),
(52,253,o),
(145,91,o),
(306,-3,o),
(404,-3,qs),
(502,-3,o),
(664,91,o),
(758,254,o),
(758,352,qs),
(758,450,o),
(666,611,o),
(505,703,o),
(406,703,qs)
);
},
{
closed = 1;
nodes = (
(316,34,o),
(172,118,o),
(89,263,o),
(89,350,qs),
(89,437,o),
(172,582,o),
(317,666,o),
(406,666,qs),
(495,666,o),
(638,583,o),
(720,440,o),
(720,352,qs),
(720,264,o),
(636,119,o),
(492,34,o),
(404,34,qs)
);
},
{
closed = 1;
nodes = (
(583,480,o),
(497,552,o),
(423,552,qs),
(267,552,l),
(267,148,l),
(319,148,l),
(319,282,l),
(423,282,ls),
(438,282,o),
(446,283,q),
(533,148,l),
(587,148,l),
(493,292,l),
(536,307,o),
(583,372,o),
(583,418,qs)
);
},
{
closed = 1;
nodes = (
(318,326,l),
(318,508,l),
(420,508,ls),
(473,508,o),
(532,461,o),
(532,418,qs),
(532,374,o),
(473,326,o),
(420,326,qs)
);
}
);
userData = {
assembly = "PUSHB[ ]	/* 2 values pushed */
6 100 
WCVTP[ ]	/* WriteCVTInPixels */
NPUSHB[ ]	/* 93 values pushed */
34 1 5 9 1 74 6 1 4 5 3 5 4 3 126 10 1 1 0 2 7 1 2 103 0 7 0 8 9 7 8 101 12 1 9 0 5 4 9 5 101 11 1 3 0 0 3 87 11 1 3 3 0 95 0 0 3 0 79 48 48 16 16 0 0 48 56 48 55 54 52 45 43 42 41 40 38 36 35 16 31 16 30 24 22 0 15 0 14 38 13 10 21 
CALL[ ]	/* CallFunction */
PUSHB[ ]	/* 2 values pushed */
6 0 
WCVTP[ ]	/* WriteCVTInPixels */";
};
width = 809;
}
);
note = registered;
unicode = 174;
},
{
glyphname = degree;
kernLeft = degree;
kernRight = degree;
layers = (
{
layerId = m01;
shapes = (
{
closed = 1;
nodes = (
(253,388,o),
(327,430,o),
(369,503,o),
(369,547,qs),
(369,590,o),
(327,663,o),
(253,705,o),
(209,705,qs),
(165,705,o),
(92,663,o),
(50,590,o),
(50,547,qs),
(50,503,o),
(92,430,o),
(165,388,o),
(209,388,qs)
);
},
{
closed = 1;
nodes = (
(160,430,o),
(94,497,o),
(94,547,qs),
(94,596,o),
(160,663,o),
(209,663,qs),
(258,663,o),
(325,596,o),
(325,547,qs),
(325,497,o),
(258,430,o),
(209,430,qs)
);
}
);
userData = {
assembly = "PUSHB[ ]	/* 2 values pushed */
6 100 
WCVTP[ ]	/* WriteCVTInPixels */
NPUSHB[ ]	/* 45 values pushed */
0 0 0 2 3 0 2 103 5 1 3 1 1 3 87 5 1 3 3 1 95 4 1 1 3 1 79 16 16 0 0 16 27 16 26 22 20 0 15 0 14 38 6 10 21 
CALL[ ]	/* CallFunction */
PUSHB[ ]	/* 2 values pushed */
6 0 
WCVTP[ ]	/* WriteCVTInPixels */";
};
width = 419;
}
);
note = degree;
unicode = 176;
},
{
glyphname = plusminus;
layers = (
{
layerId = m01;
shapes = (
{
closed = 1;
nodes = (
(319,591,l),
(256,591,l),
(256,412,l),
(70,412,l),
(70,352,l),
(256,352,l),
(256,173,l),
(319,173,l),
(319,352,l),
(505,352,l),
(505,412,l),
(319,412,l)
);
},
{
closed = 1;
nodes = (
(505,0,l),
(505,59,l),
(70,59,l),
(70,0,l)
);
}
);
userData = {
assembly = "NPUSHB[ ]	/* 48 values pushed */
8 5 2 3 2 1 0 1 3 0 101 0 4 0 1 6 4 1 101 0 6 6 7 93 0 7 7 67 7 76 0 0 15 14 13 12 0 11 0 11 17 17 17 17 17 9 10 25 
CALL[ ]	/* CallFunction */";
};
width = 575;
}
);
note = plusminus;
unicode = 177;
},
{
glyphname = paragraph;
kernLeft = paragraph;
kernRight = H;
layers = (
{
layerId = m01;
shapes = (
{
closed = 1;
nodes = (
(286,-100,l),
(286,686,l),
(458,686,l),
(458,-100,l),
(518,-100,l),
(518,742,l),
(236,742,ls),
(138,742,o),
(21,649,o),
(21,569,qs),
(21,490,o),
(134,396,o),
(226,395,q),
(226,-100,l)
);
}
);
userData = {
assembly = "NPUSHB[ ]	/* 32 values pushed */
0 0 3 2 3 0 2 126 4 1 2 2 130 0 3 3 1 93 0 1 1 68 3 76 17 17 17 36 16 5 10 25 
CALL[ ]	/* CallFunction */";
};
width = 632;
}
);
note = paragraph;
unicode = 182;
},
{
glyphname = periodcentered;
kernLeft = plus;
kernRight = plus;
layers = (
{
layerId = m01;
shapes = (
{
closed = 1;
nodes = (
(149,216,o),
(180,247,o),
(180,271,qs),
(180,295,o),
(149,326,o),
(126,326,qs),
(103,326,o),
(73,295,o),
(73,271,qs),
(73,247,o),
(103,216,o),
(126,216,qs)
);
}
);
userData = {
assembly = "NPUSHB[ ]	/* 27 values pushed */
0 0 1 1 0 87 0 0 0 1 95 2 1 1 0 1 79 0 0 0 11 0 10 36 3 10 21 
CALL[ ]	/* CallFunction */";
};
width = 252;
}
);
note = periodcentered;
unicode = 183;
},
{
glyphname = ordmasculine;
kernLeft = asterisk;
layers = (
{
layerId = m01;
shapes = (
{
closed = 1;
nodes = (
(256,427,o),
(335,468,o),
(380,541,o),
(380,587,qs),
(380,633,o),
(335,705,o),
(256,746,o),
(207,746,qs),
(158,746,o),
(79,705,o),
(34,633,o),
(34,587,qs),
(34,541,o),
(79,468,o),
(158,427,o),
(207,427,qs)
);
},
{
closed = 1;
nodes = (
(153,472,o),
(86,536,o),
(86,587,qs),
(86,638,o),
(154,702,o),
(207,702,qs),
(260,702,o),
(328,638,o),
(328,587,qs),
(328,536,o),
(261,472,o),
(207,472,qs)
);
}
);
userData = {
assembly = "NPUSHB[ ]	/* 38 values pushed */
5 1 3 4 1 1 3 1 99 0 2 2 0 95 0 0 0 104 2 76 16 16 0 0 16 27 16 26 22 20 0 15 0 14 38 6 12 21 
CALL[ ]	/* CallFunction */";
};
width = 414;
}
);
note = ordmasculine;
unicode = 186;
},
{
glyphname = questiondown;
kernLeft = questiondown;
kernRight = questiondown;
layers = (
{
layerId = m01;
shapes = (
{
closed = 1;
nodes = (
(317,427,o),
(347,457,o),
(347,478,qs),
(347,500,o),
(317,530,o),
(295,530,qs),
(273,530,o),
(243,500,o),
(243,478,qs),
(243,457,o),
(273,427,o),
(295,427,qs)
);
},
{
closed = 1;
nodes = (
(469,-160,o),
(554,-56,q),
(501,-16,l),
(434,-97,o),
(310,-97,qs),
(236,-97,o),
(149,-33,o),
(149,16,qs),
(149,56,o),
(190,111,o),
(233,148,qs),
(266,176,o),
(305,217,o),
(332,276,o),
(332,315,q),
(258,315,l),
(258,272,o),
(216,214,o),
(173,177,qs),
(141,150,o),
(102,108,o),
(75,48,o),
(75,8,qs),
(75,-42,o),
(132,-118,o),
(236,-160,o),
(305,-160,qs)
);
}
);
userData = {
assembly = "NPUSHB[ ]	/* 55 values pushed */
36 35 2 3 2 1 74 0 2 1 3 1 2 3 126 0 3 6 1 4 3 4 100 5 1 1 1 0 95 0 0 0 75 1 76 12 12 0 0 12 38 12 37 34 32 23 22 0 11 0 10 36 7 10 21 
CALL[ ]	/* CallFunction */";
};
width = 567;
}
);
note = questiondown;
unicode = 191;
},
{
glyphname = AE;
kernLeft = A;
kernRight = E;
layers = (
{
layerId = m01;
shapes = (
{
closed = 1;
nodes = (
(552,324,l),
(915,324,l),
(915,387,l),
(552,387,l),
(552,636,l),
(958,636,l),
(958,700,l),
(429,700,l),
(2,0,l),
(79,0,l),
(192,187,l),
(479,187,l),
(479,0,l),
(973,0,l),
(973,64,l),
(552,64,l)
);
},
{
closed = 1;
nodes = (
(464,636,l),
(479,636,l),
(479,247,l),
(228,247,l)
);
}
);
userData = {
assembly = "NPUSHB[ ]	/* 65 values pushed */
0 5 0 6 9 5 6 101 11 1 9 0 1 7 9 1 101 8 1 4 4 3 93 0 3 3 66 75 10 1 7 7 0 93 2 1 0 0 67 0 76 16 16 0 0 16 19 16 19 18 17 0 15 0 15 17 17 17 17 17 17 17 12 10 27 
CALL[ ]	/* CallFunction */";
};
width = 1033;
}
);
note = AE;
unicode = 198;
},
{
glyphname = multiply;
layers = (
{
layerId = m01;
shapes = (
{
closed = 1;
nodes = (
(421,526,l),
(288,392,l),
(154,526,l),
(114,483,l),
(246,350,l),
(114,217,l),
(154,174,l),
(288,308,l),
(421,174,l),
(461,217,l),
(329,350,l),
(461,483,l)
);
}
);
userData = {
assembly = "PUSHB[ ]	/* 4 values pushed */
8 2 1 48 
CALL[ ]	/* CallFunction */";
};
width = 575;
}
);
note = multiply;
unicode = 215;
},
{
glyphname = Thorn;
kernLeft = B;
kernRight = Thorn;
layers = (
{
layerId = m01;
shapes = (
{
closed = 1;
nodes = (
(188,609,l),
(188,700,l),
(114,700,l),
(114,0,l),
(188,0,l),
(188,129,l),
(376,129,ls),
(510,129,o),
(662,257,o),
(662,369,qs),
(662,481,o),
(510,609,o),
(376,609,qs)
);
},
{
closed = 1;
nodes = (
(188,194,l),
(188,545,l),
(374,545,ls),
(478,545,o),
(588,454,o),
(588,369,qs),
(588,285,o),
(478,194,o),
(374,194,qs)
);
}
);
userData = {
assembly = "NPUSHB[ ]	/* 49 values pushed */
6 1 3 0 4 5 3 4 101 7 1 5 0 0 1 5 0 101 0 2 2 66 75 0 1 1 67 1 76 13 13 0 0 13 21 13 20 19 17 0 12 0 11 17 17 36 8 10 23 
CALL[ ]	/* CallFunction */";
};
width = 718;
}
);
note = Thorn;
unicode = 222;
},
{
glyphname = germandbls;
kernLeft = b;
kernRight = b;
layers = (
{
layerId = m01;
shapes = (
{
closed = 1;
nodes = (
(507,412,o),
(563,499,o),
(563,556,qs),
(563,611,o),
(509,697,o),
(408,747,o),
(340,747,qs),
(232,747,o),
(99,618,o),
(99,498,qs),
(99,0,l),
(170,0,l),
(170,504,ls),
(170,592,o),
(260,685,o),
(340,685,qs),
(412,685,o),
(494,613,o),
(494,553,qs),
(494,485,o),
(400,405,o),
(317,404,q),
(317,343,l),
(375,343,ls),
(454,343,o),
(550,268,o),
(550,201,qs),
(550,133,o),
(458,57,o),
(382,57,qs),
(327,57,o),
(285,71,q),
(273,11,l),
(318,-5,o),
(385,-5,qs),
(453,-5,o),
(561,44,o),
(622,136,o),
(622,199,qs),
(622,274,o),
(535,373,o),
(462,389,q)
);
}
);
userData = {
assembly = "MPPEM[ ]	/* MeasurePixelPerEm */
PUSHB[ ]	/* 1 value pushed */
46 
LT[ ]	/* LessThan */
IF[ ]	/* If */
NPUSHB[ ]	/* 14 values pushed */
41 1 2 3 9 1 1 2 8 1 0 1 3 74 
ELSE[ ]	/* Else */
NPUSHB[ ]	/* 14 values pushed */
41 1 2 3 9 1 1 2 8 1 5 1 3 74 
EIF[ ]	/* EndIf */
MPPEM[ ]	/* MeasurePixelPerEm */
PUSHB[ ]	/* 1 value pushed */
46 
LT[ ]	/* LessThan */
IF[ ]	/* If */
NPUSHB[ ]	/* 30 values pushed */
0 3 0 2 1 3 2 103 0 4 4 6 95 0 6 6 74 75 0 1 1 0 95 5 1 0 0 76 0 76 
ELSE[ ]	/* Else */
NPUSHB[ ]	/* 34 values pushed */
0 3 0 2 1 3 2 103 0 4 4 6 95 0 6 6 74 75 0 5 5 67 75 0 1 1 0 95 0 0 0 76 0 76 
EIF[ ]	/* EndIf */
NPUSHB[ ]	/* 10 values pushed */
35 19 36 17 36 35 37 7 10 27 
CALL[ ]	/* CallFunction */";
};
width = 668;
}
);
note = germandbls;
unicode = 223;
},
{
glyphname = ae;
kernLeft = a;
kernRight = e;
layers = (
{
layerId = m01;
shapes = (
{
closed = 1;
nodes = (
(940,342,o),
(874,462,o),
(757,530,o),
(684,530,qs),
(618,530,o),
(509,473,o),
(475,422,q),
(434,530,o),
(282,530,qs),
(221,530,o),
(109,493,o),
(69,459,q),
(101,406,l),
(134,435,o),
(226,468,o),
(276,468,qs),
(349,468,o),
(425,397,o),
(425,329,qs),
(425,296,l),
(258,296,ls),
(152,296,o),
(55,214,o),
(55,150,qs),
(55,80,o),
(161,-5,o),
(254,-5,qs),
(325,-5,o),
(439,54,o),
(467,116,q),
(504,56,o),
(626,-5,o),
(702,-5,qs),
(765,-5,o),
(869,39,o),
(905,81,q),
(865,127,l),
(804,58,o),
(704,58,qs),
(616,58,o),
(502,160,o),
(497,243,q),
(938,243,l),
(940,259,o),
(940,267,qs)
);
},
{
closed = 1;
nodes = (
(731,469,o),
(813,427,o),
(865,348,o),
(870,296,q),
(497,296,l),
(502,349,o),
(555,427,o),
(636,469,o),
(683,469,qs)
);
},
{
closed = 1;
nodes = (
(196,51,o),
(125,105,o),
(125,152,qs),
(125,194,o),
(189,243,o),
(260,243,qs),
(425,243,l),
(425,201,ls),
(425,132,o),
(335,51,o),
(259,51,qs)
);
}
);
userData = {
assembly = "NPUSHB[ ]	/* 18 values pushed */
37 32 31 3 4 5 44 1 0 4 14 8 7 3 1 0 3 74 
MPPEM[ ]	/* MeasurePixelPerEm */
PUSHB[ ]	/* 1 value pushed */
33 
LT[ ]	/* LessThan */
IF[ ]	/* If */
NPUSHB[ ]	/* 37 values pushed */
8 1 4 10 1 0 1 4 0 101 12 9 2 5 5 6 95 7 1 6 6 75 75 13 11 2 1 1 2 95 3 1 2 2 76 2 76 
ELSE[ ]	/* Else */
NPUSHB[ ]	/* 47 values pushed */
8 1 4 10 1 0 1 4 0 101 12 9 2 5 5 6 95 7 1 6 6 75 75 0 1 1 2 95 3 1 2 2 76 75 13 1 11 11 2 95 3 1 2 2 76 2 76 
EIF[ ]	/* EndIf */
NPUSHB[ ]	/* 26 values pushed */
54 54 45 45 54 64 54 63 59 57 45 53 45 52 23 35 37 35 36 36 36 34 17 14 10 29 
CALL[ ]	/* CallFunction */";
};
width = 986;
}
);
note = ae;
unicode = 230;
},
{
glyphname = eth;
kernLeft = c;
kernRight = eth;
layers = (
{
layerId = m01;
shapes = (
{
closed = 1;
nodes = (
(548,658,l),
(528,707,l),
(439,670,l),
(363,718,o),
(253,718,qs),
(166,718,o),
(94,697,q),
(106,636,l),
(178,658,o),
(253,658,qs),
(314,658,o),
(363,638,q),
(132,542,l),
(152,493,l),
(420,605,l),
(466,567,o),
(515,445,o),
(515,362,qs),
(515,324,o),
(513,303,q),
(487,367,o),
(372,436,o),
(296,436,qs),
(223,436,o),
(110,382,o),
(46,281,o),
(46,215,qs),
(46,149,o),
(110,49,o),
(222,-6,o),
(292,-6,qs),
(433,-6,o),
(587,183,o),
(587,347,qs),
(587,535,o),
(487,633,q)
);
},
{
closed = 1;
nodes = (
(216,55,o),
(118,143,o),
(118,215,qs),
(118,288,o),
(217,375,o),
(303,375,qs),
(356,375,o),
(439,333,o),
(486,260,o),
(486,215,qs),
(486,173,o),
(441,100,o),
(355,55,o),
(296,55,qs)
);
}
);
userData = {
assembly = "NPUSHB[ ]	/* 26 values pushed */
33 32 28 3 2 3 35 27 23 22 21 20 6 1 2 15 1 5 4 3 74 34 1 2 1 73 
MPPEM[ ]	/* MeasurePixelPerEm */
PUSHB[ ]	/* 1 value pushed */
41 
LT[ ]	/* LessThan */
IF[ ]	/* If */
NPUSHB[ ]	/* 30 values pushed */
0 1 0 4 5 1 4 103 0 2 2 3 95 0 3 3 72 75 6 1 5 5 0 95 0 0 0 73 0 76 
ELSE[ ]	/* Else */
NPUSHB[ ]	/* 28 values pushed */
0 3 0 2 1 3 2 103 0 1 0 4 5 1 4 103 6 1 5 5 0 95 0 0 0 73 0 76 
EIF[ ]	/* EndIf */
NPUSHB[ ]	/* 14 values pushed */
36 36 36 49 36 48 43 35 43 38 35 7 10 25 
CALL[ ]	/* CallFunction */";
};
width = 633;
}
);
note = eth;
unicode = 240;
},
{
glyphname = divide;
kernLeft = plus;
kernRight = plus;
layers = (
{
layerId = m01;
shapes = (
{
closed = 1;
nodes = (
(307,493,o),
(335,521,o),
(335,541,qs),
(335,563,o),
(308,590,o),
(287,590,qs),
(267,590,o),
(240,562,o),
(240,541,qs),
(240,521,o),
(267,493,o),
(287,493,qs)
);
},
{
closed = 1;
nodes = (
(505,320,l),
(505,379,l),
(70,379,l),
(70,320,l)
);
},
{
closed = 1;
nodes = (
(307,110,o),
(335,138,o),
(335,159,qs),
(335,180,o),
(307,207,o),
(287,207,qs),
(267,207,o),
(240,180,o),
(240,159,qs),
(240,138,o),
(267,110,o),
(287,110,qs)
);
}
);
userData = {
assembly = "NPUSHB[ ]	/* 56 values pushed */
0 0 6 1 1 2 0 1 103 0 2 0 3 4 2 3 101 0 4 5 5 4 87 0 4 4 5 95 7 1 5 4 5 79 16 16 0 0 16 27 16 26 22 20 15 14 13 12 0 11 0 10 36 8 10 21 
CALL[ ]	/* CallFunction */";
};
width = 575;
}
);
note = divide;
unicode = 247;
},
{
glyphname = thorn;
kernLeft = b;
kernRight = b;
layers = (
{
layerId = m01;
shapes = (
{
closed = 1;
nodes = (
(306,530,o),
(202,477,o),
(170,427,q),
(170,742,l),
(99,742,l),
(99,-194,l),
(170,-194,l),
(170,99,l),
(203,48,o),
(306,-5,o),
(370,-5,qs),
(445,-5,o),
(564,62,o),
(632,184,o),
(632,263,qs),
(632,341,o),
(564,463,o),
(444,530,o),
(370,530,qs)
);
},
{
closed = 1;
nodes = (
(309,58,o),
(220,109,o),
(169,203,o),
(169,263,qs),
(169,323,o),
(220,416,o),
(309,468,o),
(365,468,qs),
(420,468,o),
(510,416,o),
(561,323,o),
(561,263,qs),
(561,203,o),
(510,109,o),
(420,58,o),
(365,58,qs)
);
}
);
userData = {
assembly = "NPUSHB[ ]	/* 60 values pushed */
15 10 2 5 4 1 74 0 2 2 68 75 0 4 4 3 95 6 1 3 3 75 75 7 1 5 5 0 95 0 0 0 76 75 0 1 1 71 1 76 19 19 0 0 19 34 19 33 27 25 0 18 0 17 17 19 38 8 10 23 
CALL[ ]	/* CallFunction */";
};
width = 678;
}
);
note = thorn;
unicode = 254;
},
{
glyphname = eogonek;
kernLeft = c;
kernRight = e;
layers = (
{
layerId = m01;
shapes = (
{
closed = 1;
nodes = (
(558,341,o),
(492,462,o),
(376,530,o),
(303,530,qs),
(230,530,o),
(113,462,o),
(46,340,o),
(46,263,qs),
(46,186,o),
(116,64,o),
(241,-5,o),
(322,-5,qs),
(347,-5,o),
(377,0,q),
(320,-58,o),
(320,-122,qs),
(320,-167,o),
(380,-220,o),
(430,-220,qs),
(479,-220,o),
(515,-196,q),
(499,-157,l),
(488,-166,o),
(455,-176,o),
(438,-176,qs),
(408,-176,o),
(372,-147,o),
(372,-118,qs),
(372,-85,o),
(421,-12,o),
(487,45,qs),
(515,70,o),
(525,81,q),
(485,127,l),
(455,93,o),
(373,58,o),
(324,58,qs),
(237,58,o),
(123,159,o),
(117,241,q),
(557,241,l),
(558,263,ls)
);
},
{
closed = 1;
nodes = (
(380,469,o),
(483,372,o),
(490,294,q),
(117,294,l),
(124,372,o),
(227,469,o),
(303,469,qs)
);
}
);
userData = {
assembly = "NPUSHB[ ]	/* 19 values pushed */
8 7 2 1 0 27 1 4 1 19 1 2 4 20 1 3 2 4 74 
MPPEM[ ]	/* MeasurePixelPerEm */
PUSHB[ ]	/* 1 value pushed */
24 
LT[ ]	/* LessThan */
IF[ ]	/* If */
NPUSHB[ ]	/* 40 values pushed */
0 6 0 0 1 6 0 101 8 1 7 7 5 95 0 5 5 75 75 0 1 1 4 95 0 4 4 76 75 0 2 2 3 95 0 3 3 77 3 76 
ELSE[ ]	/* Else */
NPUSHB[ ]	/* 37 values pushed */
0 6 0 0 1 6 0 101 0 2 0 3 2 3 99 8 1 7 7 5 95 0 5 5 75 75 0 1 1 4 95 0 4 4 76 4 76 
EIF[ ]	/* EndIf */
NPUSHB[ ]	/* 16 values pushed */
42 42 42 48 42 47 22 38 37 36 42 34 16 9 10 27 
CALL[ ]	/* CallFunction */";
};
width = 604;
}
);
note = eogonek;
unicode = 281;
},
{
glyphname = dotlessi;
kernLeft = i;
kernRight = g;
layers = (
{
layerId = m01;
shapes = (
{
closed = 1;
nodes = (
(170,0,l),
(170,526,l),
(99,526,l),
(99,0,l)
);
}
);
userData = {
assembly = "NPUSHB[ ]	/* 16 values pushed */
0 0 0 69 75 0 1 1 67 1 76 17 16 2 10 22 
CALL[ ]	/* CallFunction */";
};
width = 269;
}
);
note = dotlessi;
unicode = 305;
},
{
glyphname = IJ;
kernLeft = B;
kernRight = J;
layers = (
{
layerId = m01;
shapes = (
{
closed = 1;
nodes = (
(458,-6,o),
(610,152,o),
(610,302,qs),
(610,700,l),
(536,700,l),
(536,299,ls),
(536,179,o),
(429,60,o),
(329,60,qs),
(273,60,o),
(170,92,o),
(128,122,q),
(98,63,l),
(143,31,o),
(262,-6,o),
(327,-6,qs)
);
},
{
closed = 1;
nodes = (
(182,302,l),
(182,700,l),
(108,700,l),
(108,302,l)
);
}
);
userData = {
assembly = "NPUSHB[ ]	/* 45 values pushed */
3 2 2 0 4 1 74 0 4 4 1 93 3 1 1 1 66 75 0 0 0 2 95 5 1 2 2 73 2 76 0 0 19 18 17 16 0 15 0 14 19 37 6 10 22 
CALL[ ]	/* CallFunction */";
};
width = 718;
}
);
note = IJ;
unicode = 306;
},
{
glyphname = kgreenlandic;
kernLeft = i;
kernRight = k;
layers = (
{
layerId = m01;
shapes = (
{
closed = 1;
nodes = (
(593,0,l),
(347,311,l),
(572,526,l),
(484,526,l),
(170,239,l),
(170,526,l),
(99,526,l),
(99,0,l),
(170,0,l),
(170,150,l),
(294,264,l),
(506,0,l)
);
}
);
userData = {
assembly = "NPUSHB[ ]	/* 28 values pushed */
9 6 1 3 0 1 1 74 2 1 1 1 69 75 3 1 0 0 67 0 76 18 18 17 18 4 10 24 
CALL[ ]	/* CallFunction */";
};
width = 590;
}
);
note = kgreenlandic;
unicode = 312;
},
{
glyphname = Eng;
kernLeft = B;
kernRight = H;
layers = (
{
layerId = m01;
shapes = (
{
closed = 1;
nodes = (
(626,132,l),
(175,700,l),
(114,700,l),
(114,0,l),
(188,0,l),
(188,568,l),
(626,15,l),
(625,-61,o),
(561,-135,o),
(497,-135,qs),
(411,-135,o),
(356,-61,q),
(319,-113,l),
(350,-154,o),
(443,-199,o),
(497,-199,qs),
(699,-199,o),
(699,28,qs),
(699,700,l),
(626,700,l)
);
}
);
userData = {
assembly = "NPUSHB[ ]	/* 49 values pushed */
18 13 12 3 2 3 7 6 2 1 2 2 74 5 4 2 3 3 66 75 0 2 2 67 75 0 1 1 0 95 0 0 0 77 0 76 0 0 0 19 0 19 17 20 36 34 6 10 24 
CALL[ ]	/* CallFunction */";
};
width = 813;
}
);
note = Eng;
unicode = 330;
},
{
glyphname = eng;
kernLeft = i;
kernRight = a;
layers = (
{
layerId = m01;
shapes = (
{
closed = 1;
nodes = (
(299,530,o),
(196,477,o),
(167,429,q),
(167,526,l),
(99,526,l),
(99,0,l),
(170,0,l),
(170,276,ls),
(170,365,o),
(269,466,o),
(354,466,qs),
(430,466,o),
(512,380,o),
(512,298,qs),
(512,-39,ls),
(512,-88,o),
(467,-138,o),
(425,-138,qs),
(373,-138,o),
(343,-111,q),
(318,-165,l),
(337,-182,o),
(396,-199,o),
(429,-199,qs),
(502,-199,o),
(583,-113,o),
(583,-39,qs),
(583,305,ls),
(583,415,o),
(466,530,o),
(367,530,qs)
);
}
);
userData = {
assembly = "NPUSHB[ ]	/* 56 values pushed */
27 1 3 2 10 1 1 3 9 1 0 1 3 74 0 2 2 4 95 6 5 2 4 4 69 75 0 3 3 67 75 0 1 1 0 95 0 0 0 77 0 76 0 0 0 30 0 29 17 19 37 36 37 7 10 25 
CALL[ ]	/* CallFunction */";
};
width = 677;
}
);
note = eng;
unicode = 331;
},
{
glyphname = OE;
kernLeft = at;
kernRight = E;
layers = (
{
layerId = m01;
shapes = (
{
closed = 1;
nodes = (
(640,324,l),
(1002,324,l),
(1002,387,l),
(640,387,l),
(640,636,l),
(1046,636,l),
(1046,700,l),
(427,700,ls),
(316,700,o),
(146,611,o),
(52,452,o),
(52,349,qs),
(52,247,o),
(146,89,o),
(317,0,o),
(427,0,qs),
(1061,0,l),
(1061,64,l),
(640,64,l)
);
},
{
closed = 1;
nodes = (
(339,64,o),
(200,136,o),
(125,266,o),
(125,349,qs),
(125,433,o),
(200,563,o),
(339,636,o),
(430,636,qs),
(566,636,l),
(566,64,l),
(430,64,ls)
);
}
);
userData = {
assembly = "NPUSHB[ ]	/* 55 values pushed */
0 3 0 4 5 3 4 101 6 1 2 2 1 93 0 1 1 66 75 9 7 8 3 5 5 0 93 0 0 0 67 0 76 19 19 0 0 19 29 19 28 22 20 0 18 0 18 17 17 17 38 33 10 10 25 
CALL[ ]	/* CallFunction */";
};
width = 1121;
}
);
note = OE;
unicode = 338;
},
{
glyphname = oe;
kernLeft = c;
kernRight = e;
layers = (
{
layerId = m01;
shapes = (
{
closed = 1;
nodes = (
(1022,341,o),
(956,462,o),
(840,530,o),
(767,530,qs),
(692,530,o),
(575,458,o),
(544,396,q),
(512,458,o),
(391,530,o),
(314,530,qs),
(238,530,o),
(116,462,o),
(46,340,o),
(46,263,qs),
(46,186,o),
(116,64,o),
(238,-5,o),
(314,-5,qs),
(392,-5,o),
(512,68,o),
(544,131,q),
(577,68,o),
(703,-5,o),
(786,-5,qs),
(849,-5,o),
(953,39,o),
(988,81,q),
(948,127,l),
(919,93,o),
(837,58,o),
(788,58,qs),
(701,58,o),
(586,159,o),
(580,241,q),
(1021,241,l),
(1022,263,ls)
);
},
{
closed = 1;
nodes = (
(843,469,o),
(947,371,o),
(954,294,q),
(580,294,l),
(587,371,o),
(691,469,o),
(767,469,qs)
);
},
{
closed = 1;
nodes = (
(258,58,o),
(169,109,o),
(118,203,o),
(118,263,qs),
(118,323,o),
(169,417,o),
(258,468,o),
(314,468,qs),
(370,468,o),
(459,417,o),
(509,323,o),
(509,263,qs),
(509,203,o),
(459,109,o),
(370,58,o),
(314,58,qs)
);
}
);
userData = {
assembly = "NPUSHB[ ]	/* 71 values pushed */
28 1 6 7 14 8 7 3 1 0 2 74 0 6 0 0 1 6 0 101 8 10 2 7 7 4 95 5 1 4 4 75 75 11 9 2 1 1 2 95 3 1 2 2 76 2 76 43 43 36 36 43 58 43 57 51 49 36 42 36 41 22 36 38 36 37 34 16 12 10 27 
CALL[ ]	/* CallFunction */";
};
width = 1068;
}
);
note = oe;
unicode = 339;
},
{
glyphname = Uogonek;
kernLeft = U;
kernRight = J;
layers = (
{
layerId = m01;
shapes = (
{
closed = 1;
nodes = (
(611,302,ls),
(611,180,o),
(501,60,o),
(396,60,qs),
(292,60,o),
(182,180,o),
(182,302,qs),
(182,700,l),
(108,700,l),
(108,299,ls),
(108,155,o),
(251,-1,o),
(380,-6,q),
(303,-54,o),
(303,-125,qs),
(303,-169,o),
(363,-220,o),
(414,-220,qs),
(464,-220,o),
(498,-196,q),
(482,-157,l),
(459,-176,o),
(421,-176,qs),
(392,-176,o),
(356,-147,o),
(356,-120,qs),
(356,-43,o),
(504,8,qs),
(683,69,o),
(683,299,qs),
(683,700,l),
(611,700,l)
);
}
);
userData = {
assembly = "NPUSHB[ ]	/* 10 values pushed */
10 1 0 2 11 1 1 0 2 74 
MPPEM[ ]	/* MeasurePixelPerEm */
PUSHB[ ]	/* 1 value pushed */
12 
LT[ ]	/* LessThan */
IF[ ]	/* If */
NPUSHB[ ]	/* 28 values pushed */
6 5 2 3 3 66 75 0 4 4 2 95 0 2 2 73 75 0 0 0 1 95 0 1 1 77 1 76 
ELSE[ ]	/* Else */
MPPEM[ ]	/* MeasurePixelPerEm */
PUSHB[ ]	/* 1 value pushed */
24 
LT[ ]	/* LessThan */
IF[ ]	/* If */
NPUSHB[ ]	/* 28 values pushed */
6 5 2 3 3 66 75 0 4 4 2 95 0 2 2 76 75 0 0 0 1 95 0 1 1 77 1 76 
ELSE[ ]	/* Else */
NPUSHB[ ]	/* 25 values pushed */
0 0 0 1 0 1 99 6 5 2 3 3 66 75 0 4 4 2 95 0 2 2 76 2 76 
EIF[ ]	/* EndIf */
EIF[ ]	/* EndIf */
NPUSHB[ ]	/* 14 values pushed */
0 0 0 31 0 31 35 19 20 35 39 7 10 25 
CALL[ ]	/* CallFunction */";
};
width = 792;
}
);
note = Uogonek;
unicode = 370;
},
{
glyphname = longs;
layers = (
{
layerId = m01;
shapes = (
{
closed = 1;
nodes = (
(205,747,o),
(122,663,o),
(122,591,qs),
(122,526,l),
(28,526,l),
(28,466,l),
(122,466,l),
(122,0,l),
(193,0,l),
(193,588,ls),
(193,637,o),
(239,687,o),
(284,687,qs),
(330,687,o),
(361,661,q),
(386,714,l),
(367,730,o),
(311,747,o),
(280,747,qs)
);
}
);
userData = {
assembly = "NPUSHB[ ]	/* 50 values pushed */
2 1 0 4 3 1 3 0 2 74 0 0 0 4 95 5 1 4 4 74 75 0 2 2 3 93 0 3 3 69 75 0 1 1 67 1 76 0 0 0 18 0 17 17 17 19 36 6 10 24 
CALL[ ]	/* CallFunction */";
};
width = 295;
}
);
note = longs;
unicode = 383;
},
{
glyphname = uni018F;
kernLeft = at;
kernRight = at;
layers = (
{
layerId = m01;
shapes = (
{
closed = 1;
nodes = (
(321,706,o),
(182,656,o),
(133,610,q),
(177,559,l),
(265,640,o),
(401,640,qs),
(478,640,o),
(606,571,o),
(685,450,o),
(690,375,q),
(52,375,l),
(52,353,ls),
(52,251,o),
(144,87,o),
(307,-6,o),
(409,-6,qs),
(508,-6,o),
(671,88,o),
(765,251,o),
(765,351,qs),
(765,452,o),
(671,614,o),
(505,706,o),
(401,706,qs)
);
},
{
closed = 1;
nodes = (
(333,58,o),
(210,122,o),
(135,237,o),
(127,312,q),
(689,312,l),
(682,238,o),
(606,123,o),
(484,58,o),
(409,58,qs)
);
}
);
userData = {
assembly = "NPUSHB[ ]	/* 58 values pushed */
20 19 2 1 2 1 74 0 1 0 4 5 1 4 101 0 2 2 3 95 6 1 3 3 72 75 7 1 5 5 0 95 0 0 0 73 0 76 24 24 0 0 24 32 24 31 28 27 0 23 0 22 35 20 38 8 10 23 
CALL[ ]	/* CallFunction */";
};
width = 817;
}
);
note = uni018F;
unicode = 399;
},
{
glyphname = florin;
kernLeft = florin;
kernRight = florin;
layers = (
{
layerId = m01;
shapes = (
{
closed = 1;
nodes = (
(391,686,o),
(429,672,o),
(443,659,q),
(474,713,l),
(457,730,o),
(399,747,o),
(368,747,qs),
(295,747,o),
(203,662,o),
(195,591,qs),
(186,517,l),
(92,517,l),
(85,458,l),
(179,458,l),
(117,-39,ls),
(111,-87,o),
(59,-138,o),
(16,-138,qs),
(-32,-138,o),
(-61,-111,q),
(-90,-165,l),
(-73,-182,o),
(-15,-199,o),
(18,-199,qs),
(90,-199,o),
(180,-115,o),
(188,-43,qs),
(250,458,l),
(409,458,l),
(416,517,l),
(255,517,l),
(264,587,ls),
(278,686,o),
(369,686,qs)
);
}
);
userData = {
assembly = "NPUSHB[ ]	/* 68 values pushed */
29 1 7 6 30 1 0 7 13 1 3 1 12 1 2 3 4 74 8 1 7 7 6 95 0 6 6 74 75 4 1 1 1 0 93 5 1 0 0 69 75 0 3 3 2 95 0 2 2 77 2 76 0 0 0 33 0 32 35 17 19 36 35 17 18 9 10 27 
CALL[ ]	/* CallFunction */";
};
width = 438;
}
);
note = florin;
unicode = 402;
},
{
glyphname = Ohorn;
kernLeft = at;
kernRight = at;
layers = (
{
layerId = m01;
shapes = (
{
closed = 1;
nodes = (
(699,647,o),
(772,710,o),
(772,766,qs),
(772,813,o),
(746,850,q),
(699,832,l),
(719,799,o),
(719,768,qs),
(719,692,o),
(620,692,qs),
(595,692,o),
(537,698,qs),
(469,706,o),
(422,706,qs),
(317,706,o),
(148,614,o),
(52,451,o),
(52,350,qs),
(52,249,o),
(147,87,o),
(316,-6,o),
(420,-6,qs),
(524,-6,o),
(691,86,o),
(787,249,o),
(787,350,qs),
(787,443,o),
(704,599,o),
(631,644,q)
);
},
{
closed = 1;
nodes = (
(337,60,o),
(202,136,o),
(125,268,o),
(125,350,qs),
(125,432,o),
(202,564,o),
(337,640,o),
(420,640,qs),
(503,640,o),
(637,564,o),
(713,431,o),
(713,350,qs),
(713,269,o),
(637,136,o),
(503,60,o),
(420,60,qs)
);
}
);
userData = {
assembly = "PUSHB[ ]	/* 5 values pushed */
23 22 2 1 72 
MPPEM[ ]	/* MeasurePixelPerEm */
PUSHB[ ]	/* 1 value pushed */
46 
LT[ ]	/* LessThan */
IF[ ]	/* If */
NPUSHB[ ]	/* 34 values pushed */
4 1 3 3 1 95 0 1 1 72 75 4 1 3 3 2 95 0 2 2 66 75 6 1 5 5 0 95 0 0 0 73 0 76 
ELSE[ ]	/* Else */
NPUSHB[ ]	/* 32 values pushed */
0 3 3 2 95 0 2 2 66 75 0 4 4 1 95 0 1 1 72 75 6 1 5 5 0 95 0 0 0 73 0 76 
EIF[ ]	/* EndIf */
NPUSHB[ ]	/* 14 values pushed */
29 29 29 44 29 43 39 24 34 38 37 7 10 25 
CALL[ ]	/* CallFunction */";
};
width = 839;
}
);
note = Ohorn;
unicode = 416;
},
{
glyphname = ohorn;
kernLeft = c;
kernRight = ohorn;
layers = (
{
layerId = m01;
shapes = (
{
closed = 1;
nodes = (
(522,489,o),
(572,549,o),
(572,592,qs),
(572,635,o),
(545,676,q),
(499,658,l),
(519,625,o),
(519,594,qs),
(519,564,o),
(478,524,o),
(438,524,qs),
(407,524,o),
(380,527,qs),
(372,527,o),
(334,530,o),
(314,530,qs),
(238,530,o),
(116,462,o),
(46,340,o),
(46,263,qs),
(46,186,o),
(116,64,o),
(238,-5,o),
(314,-5,qs),
(390,-5,o),
(512,64,o),
(581,186,o),
(581,263,qs),
(581,332,o),
(526,443,o),
(476,479,q)
);
},
{
closed = 1;
nodes = (
(258,58,o),
(169,109,o),
(118,203,o),
(118,263,qs),
(118,323,o),
(169,417,o),
(258,468,o),
(314,468,qs),
(370,468,o),
(459,417,o),
(509,323,o),
(509,263,qs),
(509,203,o),
(458,109,o),
(369,58,o),
(314,58,qs)
);
}
);
userData = {
assembly = "MPPEM[ ]	/* MeasurePixelPerEm */
PUSHB[ ]	/* 1 value pushed */
39 
LT[ ]	/* LessThan */
IF[ ]	/* If */
NPUSHB[ ]	/* 11 values pushed */
30 1 3 1 1 74 25 24 2 1 72 
ELSE[ ]	/* Else */
NPUSHB[ ]	/* 11 values pushed */
30 1 3 2 1 74 25 24 2 1 72 
EIF[ ]	/* EndIf */
MPPEM[ ]	/* MeasurePixelPerEm */
PUSHB[ ]	/* 1 value pushed */
39 
LT[ ]	/* LessThan */
IF[ ]	/* If */
NPUSHB[ ]	/* 23 values pushed */
0 3 3 1 95 2 1 1 1 75 75 5 1 4 4 0 95 0 0 0 76 0 76 
ELSE[ ]	/* Else */
NPUSHB[ ]	/* 27 values pushed */
0 2 2 69 75 0 3 3 1 95 0 1 1 75 75 5 1 4 4 0 95 0 0 0 76 0 76 
EIF[ ]	/* EndIf */
NPUSHB[ ]	/* 14 values pushed */
31 31 31 46 31 45 39 37 35 38 37 6 10 23 
CALL[ ]	/* CallFunction */";
};
width = 627;
}
);
note = ohorn;
unicode = 417;
},
{
glyphname = uni01E5;
kernLeft = c;
layers = (
{
layerId = m01;
shapes = (
{
closed = 1;
nodes = (
(580,-11,l),
(586,24,o),
(586,64,qs),
(586,526,l),
(518,526,l),
(518,428,l),
(485,478,o),
(377,530,o),
(310,530,qs),
(235,530,o),
(115,468,o),
(46,355,o),
(46,283,qs),
(46,211,o),
(115,98,o),
(236,35,o),
(310,35,qs),
(375,35,o),
(482,86,o),
(515,133,q),
(515,55,ls),
(515,17,o),
(508,-11,q),
(288,-11,l),
(288,-62,l),
(489,-62,l),
(446,-136,o),
(321,-136,qs),
(261,-136,o),
(152,-98,o),
(114,-64,q),
(78,-118,l),
(119,-156,o),
(250,-199,o),
(323,-199,qs),
(419,-199,o),
(540,-132,o),
(566,-62,q),
(650,-62,l),
(650,-11,l)
);
},
{
closed = 1;
nodes = (
(260,95,o),
(169,143,o),
(118,228,o),
(118,283,qs),
(118,338,o),
(169,423,o),
(260,470,o),
(317,470,qs),
(374,470,o),
(466,423,o),
(517,338,o),
(517,283,qs),
(517,228,o),
(466,143,o),
(374,95,o),
(317,95,qs)
);
}
);
userData = {
assembly = "NPUSHB[ ]	/* 73 values pushed */
33 19 2 10 9 8 7 2 2 0 2 74 11 1 10 0 5 4 10 5 103 8 1 4 3 1 0 2 4 0 102 0 9 9 6 95 7 1 6 6 75 75 0 2 2 1 95 0 1 1 77 1 76 40 40 40 55 40 54 48 46 19 19 38 37 17 17 37 34 16 12 10 29 
CALL[ ]	/* CallFunction */";
};
width = 691;
}
);
note = uni01E5;
unicode = 485;
},
{
glyphname = uni01EA;
kernLeft = at;
kernRight = at;
layers = (
{
layerId = m01;
shapes = (
{
closed = 1;
nodes = (
(316,706,o),
(148,614,o),
(52,451,o),
(52,350,qs),
(52,253,o),
(140,96,o),
(294,1,o),
(392,-5,q),
(314,-55,o),
(314,-125,qs),
(314,-169,o),
(373,-220,o),
(424,-220,qs),
(473,-220,o),
(509,-196,q),
(492,-157,l),
(469,-176,o),
(431,-176,qs),
(402,-176,o),
(366,-147,o),
(366,-120,qs),
(366,-79,o),
(450,-10,o),
(516,6,qs),
(592,24,o),
(715,118,o),
(787,262,o),
(787,350,qs),
(787,451,o),
(691,614,o),
(524,706,o),
(420,706,qs)
);
},
{
closed = 1;
nodes = (
(337,60,o),
(202,135,o),
(125,268,o),
(125,350,qs),
(125,432,o),
(202,565,o),
(337,640,o),
(420,640,qs),
(503,640,o),
(637,565,o),
(713,432,o),
(713,350,qs),
(713,268,o),
(637,135,o),
(503,60,o),
(420,60,qs)
);
}
);
userData = {
assembly = "NPUSHB[ ]	/* 10 values pushed */
15 1 0 2 16 1 1 0 2 74 
MPPEM[ ]	/* MeasurePixelPerEm */
PUSHB[ ]	/* 1 value pushed */
24 
LT[ ]	/* LessThan */
IF[ ]	/* If */
NPUSHB[ ]	/* 33 values pushed */
0 4 4 3 95 6 1 3 3 72 75 7 1 5 5 2 95 0 2 2 67 75 0 0 0 1 95 0 1 1 77 1 76 
ELSE[ ]	/* Else */
NPUSHB[ ]	/* 30 values pushed */
0 0 0 1 0 1 99 0 4 4 3 95 6 1 3 3 72 75 7 1 5 5 2 95 0 2 2 67 2 76 
EIF[ ]	/* EndIf */
NPUSHB[ ]	/* 20 values pushed */
32 32 0 0 32 47 32 46 40 38 0 31 0 30 20 35 44 8 10 23 
CALL[ ]	/* CallFunction */";
};
width = 839;
}
);
note = uni01EA;
unicode = 490;
},
{
glyphname = uni01EB;
kernLeft = c;
kernRight = b;
layers = (
{
layerId = m01;
shapes = (
{
closed = 1;
nodes = (
(498,49,o),
(581,178,o),
(581,263,qs),
(581,340,o),
(512,462,o),
(390,530,o),
(314,530,qs),
(238,530,o),
(116,462,o),
(46,340,o),
(46,263,qs),
(46,187,o),
(114,66,o),
(233,-4,o),
(308,-5,q),
(232,-56,o),
(232,-127,qs),
(232,-169,o),
(292,-220,o),
(343,-220,qs),
(393,-220,o),
(427,-196,q),
(411,-157,l),
(388,-176,o),
(350,-176,qs),
(321,-176,o),
(285,-147,o),
(285,-120,qs),
(285,-86,o),
(344,-20,o),
(426,17,qs)
);
},
{
closed = 1;
nodes = (
(118,323,o),
(169,417,o),
(258,468,o),
(314,468,qs),
(370,468,o),
(459,417,o),
(509,323,o),
(509,263,qs),
(509,203,o),
(459,109,o),
(370,58,o),
(314,58,qs),
(258,58,o),
(169,109,o),
(118,203,o),
(118,263,qs)
);
}
);
userData = {
assembly = "NPUSHB[ ]	/* 10 values pushed */
7 1 0 2 8 1 1 0 2 74 
MPPEM[ ]	/* MeasurePixelPerEm */
PUSHB[ ]	/* 1 value pushed */
24 
LT[ ]	/* LessThan */
IF[ ]	/* If */
NPUSHB[ ]	/* 31 values pushed */
0 5 5 3 95 0 3 3 75 75 0 4 4 2 95 0 2 2 76 75 0 0 0 1 95 0 1 1 77 1 76 
ELSE[ ]	/* Else */
NPUSHB[ ]	/* 28 values pushed */
0 0 0 1 0 1 99 0 5 5 3 95 0 3 3 75 75 0 4 4 2 95 0 2 2 76 2 76 
EIF[ ]	/* EndIf */
NPUSHB[ ]	/* 9 values pushed */
38 41 38 20 35 36 6 10 26 
CALL[ ]	/* CallFunction */";
};
width = 627;
}
);
note = uni01EB;
unicode = 491;
},
{
glyphname = uni0237;
kernLeft = j;
kernRight = g;
layers = (
{
layerId = m01;
shapes = (
{
closed = 1;
nodes = (
(95,-199,o),
(175,-113,o),
(175,-39,qs),
(175,526,l),
(104,526,l),
(104,-39,ls),
(104,-88,o),
(59,-138,o),
(17,-138,qs),
(-34,-138,o),
(-65,-111,q),
(-90,-165,l),
(-71,-182,o),
(-12,-199,o),
(21,-199,qs)
);
}
);
userData = {
assembly = "NPUSHB[ ]	/* 38 values pushed */
3 1 0 1 2 1 2 0 2 74 0 1 1 69 75 0 0 0 2 95 3 1 2 2 77 2 76 0 0 0 14 0 13 19 36 4 10 22 
CALL[ ]	/* CallFunction */";
};
width = 274;
}
);
note = uni0237;
unicode = 567;
},
{
glyphname = uni02B9;
layers = (
{
layerId = m01;
shapes = (
{
closed = 1;
nodes = (
(127,436,l),
(132,700,l),
(69,700,l),
(74,436,l)
);
}
);
userData = {
assembly = "PUSHB[ ]	/* 2 values pushed */
6 100 
WCVTP[ ]	/* WriteCVTInPixels */
NPUSHB[ ]	/* 21 values pushed */
0 0 1 1 0 85 0 0 0 1 93 0 1 0 1 77 17 16 2 10 22 
CALL[ ]	/* CallFunction */
PUSHB[ ]	/* 2 values pushed */
6 0 
WCVTP[ ]	/* WriteCVTInPixels */";
};
width = 202;
}
);
note = uni02B9;
unicode = 697;
},
{
glyphname = uni02BC;
layers = (
{
layerId = m01;
shapes = (
{
closed = 1;
nodes = (
(99,440,l),
(112,700,l),
(61,700,l),
(57,440,l)
);
}
);
userData = {
assembly = "PUSHB[ ]	/* 2 values pushed */
6 100 
WCVTP[ ]	/* WriteCVTInPixels */
NPUSHB[ ]	/* 21 values pushed */
0 0 1 1 0 85 0 0 0 1 93 0 1 0 1 77 17 16 2 10 22 
CALL[ ]	/* CallFunction */
PUSHB[ ]	/* 2 values pushed */
6 0 
WCVTP[ ]	/* WriteCVTInPixels */";
};
width = 169;
}
);
note = uni02BC;
unicode = 700;
},
{
glyphname = uni02BE;
layers = (
{
layerId = m01;
shapes = (
{
closed = 1;
nodes = (
(345,595,o),
(405,654,o),
(405,697,qs),
(405,741,o),
(345,802,o),
(299,802,q),
(299,766,l),
(328,766,o),
(367,726,o),
(367,697,qs),
(367,668,o),
(329,631,o),
(299,631,q),
(299,595,l)
);
}
);
userData = {
assembly = "PUSHB[ ]	/* 2 values pushed */
6 100 
WCVTP[ ]	/* WriteCVTInPixels */
NPUSHB[ ]	/* 31 values pushed */
0 2 0 1 0 2 1 103 0 0 3 3 0 87 0 0 0 3 95 0 3 0 3 79 20 17 20 16 4 10 24 
CALL[ ]	/* CallFunction */
PUSHB[ ]	/* 2 values pushed */
6 0 
WCVTP[ ]	/* WriteCVTInPixels */";
};
width = 600;
}
);
note = uni02BE;
unicode = 702;
},
{
glyphname = uni02BF;
layers = (
{
layerId = m01;
shapes = (
{
closed = 1;
nodes = (
(299,631,l),
(269,631,o),
(232,668,o),
(232,697,qs),
(232,726,o),
(270,766,o),
(299,766,q),
(299,802,l),
(254,802,o),
(193,740,o),
(193,697,qs),
(193,655,o),
(254,595,o),
(299,595,q)
);
}
);
userData = {
assembly = "PUSHB[ ]	/* 2 values pushed */
6 100 
WCVTP[ ]	/* WriteCVTInPixels */
NPUSHB[ ]	/* 37 values pushed */
0 0 0 1 2 0 1 103 0 2 3 3 2 87 0 2 2 3 95 4 1 3 2 3 79 0 0 0 13 0 13 20 17 20 5 10 23 
CALL[ ]	/* CallFunction */
PUSHB[ ]	/* 2 values pushed */
6 0 
WCVTP[ ]	/* WriteCVTInPixels */";
};
width = 600;
}
);
note = uni02BF;
unicode = 703;
},
{
glyphname = uni02C8;
layers = (
{
layerId = m01;
shapes = (
{
closed = 1;
nodes = (
(109,513,l),
(109,700,l),
(57,700,l),
(57,513,l)
);
}
);
userData = {
assembly = "PUSHB[ ]	/* 2 values pushed */
6 100 
WCVTP[ ]	/* WriteCVTInPixels */
NPUSHB[ ]	/* 21 values pushed */
0 0 1 1 0 85 0 0 0 1 93 0 1 0 1 77 17 16 2 10 22 
CALL[ ]	/* CallFunction */
PUSHB[ ]	/* 2 values pushed */
6 0 
WCVTP[ ]	/* WriteCVTInPixels */";
};
width = 166;
}
);
note = uni02C8;
unicode = 712;
},
{
glyphname = uni02C9;
layers = (
{
layerId = m01;
shapes = (
{
closed = 1;
nodes = (
(454,645,l),
(454,692,l),
(146,692,l),
(146,645,l)
);
}
);
userData = {
assembly = "PUSHB[ ]	/* 2 values pushed */
6 100 
WCVTP[ ]	/* WriteCVTInPixels */
NPUSHB[ ]	/* 21 values pushed */
0 0 1 1 0 85 0 0 0 1 93 0 1 0 1 77 17 16 2 10 22 
CALL[ ]	/* CallFunction */
PUSHB[ ]	/* 2 values pushed */
6 0 
WCVTP[ ]	/* WriteCVTInPixels */";
};
width = 600;
}
);
note = uni02C9;
unicode = 713;
},
{
glyphname = uni02CA;
layers = (
{
layerId = m01;
shapes = (
{
closed = 1;
nodes = (
(305,607,l),
(467,731,l),
(372,731,l),
(235,607,l)
);
}
);
userData = {
assembly = "PUSHB[ ]	/* 2 values pushed */
6 100 
WCVTP[ ]	/* WriteCVTInPixels */
NPUSHB[ ]	/* 14 values pushed */
0 0 1 0 131 0 1 1 116 17 16 2 10 22 
CALL[ ]	/* CallFunction */
PUSHB[ ]	/* 2 values pushed */
6 0 
WCVTP[ ]	/* WriteCVTInPixels */";
};
width = 600;
}
);
note = uni02CA;
unicode = 714;
},
{
glyphname = uni02CB;
layers = (
{
layerId = m01;
shapes = (
{
closed = 1;
nodes = (
(365,607,l),
(228,731,l),
(133,731,l),
(295,607,l)
);
}
);
userData = {
assembly = "PUSHB[ ]	/* 2 values pushed */
6 100 
WCVTP[ ]	/* WriteCVTInPixels */
NPUSHB[ ]	/* 14 values pushed */
0 0 1 0 131 0 1 1 116 17 16 2 10 22 
CALL[ ]	/* CallFunction */
PUSHB[ ]	/* 2 values pushed */
6 0 
WCVTP[ ]	/* WriteCVTInPixels */";
};
width = 600;
}
);
note = uni02CB;
unicode = 715;
},
{
glyphname = uni02CC;
layers = (
{
layerId = m01;
shapes = (
{
closed = 1;
nodes = (
(109,-217,l),
(109,-30,l),
(57,-30,l),
(57,-217,l)
);
}
);
userData = {
assembly = "PUSHB[ ]	/* 2 values pushed */
6 100 
WCVTP[ ]	/* WriteCVTInPixels */
NPUSHB[ ]	/* 21 values pushed */
0 0 1 1 0 85 0 0 0 1 93 0 1 0 1 77 17 16 2 10 22 
CALL[ ]	/* CallFunction */
PUSHB[ ]	/* 2 values pushed */
6 0 
WCVTP[ ]	/* WriteCVTInPixels */";
};
width = 166;
}
);
note = uni02CC;
unicode = 716;
},
{
glyphname = gravecomb;
layers = (
{
layerId = m01;
shapes = (
{
closed = 1;
nodes = (
(-235,607,l),
(-372,731,l),
(-467,731,l),
(-305,607,l)
);
}
);
userData = {
assembly = "PUSHB[ ]	/* 2 values pushed */
6 100 
WCVTP[ ]	/* WriteCVTInPixels */
NPUSHB[ ]	/* 14 values pushed */
0 0 1 0 131 0 1 1 116 17 16 2 10 22 
CALL[ ]	/* CallFunction */
PUSHB[ ]	/* 2 values pushed */
6 0 
WCVTP[ ]	/* WriteCVTInPixels */";
};
width = 0;
}
);
note = gravecomb;
unicode = 768;
},
{
glyphname = acutecomb;
layers = (
{
layerId = m01;
shapes = (
{
closed = 1;
nodes = (
(-295,607,l),
(-133,731,l),
(-228,731,l),
(-365,607,l)
);
}
);
userData = {
assembly = "PUSHB[ ]	/* 2 values pushed */
6 100 
WCVTP[ ]	/* WriteCVTInPixels */
NPUSHB[ ]	/* 14 values pushed */
0 0 1 0 131 0 1 1 116 17 16 2 10 22 
CALL[ ]	/* CallFunction */
PUSHB[ ]	/* 2 values pushed */
6 0 
WCVTP[ ]	/* WriteCVTInPixels */";
};
width = 0;
}
);
note = acutecomb;
unicode = 769;
},
{
glyphname = uni0302;
layers = (
{
layerId = m01;
shapes = (
{
closed = 1;
nodes = (
(-264,731,l),
(-336,731,l),
(-465,607,l),
(-399,607,l),
(-300,690,l),
(-201,607,l),
(-135,607,l)
);
}
);
userData = {
assembly = "PUSHB[ ]	/* 2 values pushed */
6 100 
WCVTP[ ]	/* WriteCVTInPixels */
NPUSHB[ ]	/* 28 values pushed */
1 1 0 1 1 74 0 1 0 1 131 3 2 2 0 0 116 0 0 0 6 0 6 17 18 4 10 22 
CALL[ ]	/* CallFunction */
PUSHB[ ]	/* 2 values pushed */
6 0 
WCVTP[ ]	/* WriteCVTInPixels */";
};
width = 0;
}
);
note = uni0302;
unicode = 770;
},
{
glyphname = tildecomb;
layers = (
{
layerId = m01;
shapes = (
{
closed = 1;
nodes = (
(-192,613,o),
(-144,672,o),
(-142,721,q),
(-185,721,l),
(-187,692,o),
(-215,659,o),
(-237,659,qs),
(-249,659,o),
(-271,673,o),
(-287,687,qs),
(-310,707,o),
(-345,727,o),
(-368,727,qs),
(-408,727,o),
(-456,667,o),
(-458,617,q),
(-415,617,l),
(-414,647,o),
(-386,681,o),
(-363,681,qs),
(-351,681,o),
(-330,668,o),
(-312,653,qs),
(-291,634,o),
(-255,613,o),
(-232,613,qs)
);
}
);
userData = {
assembly = "PUSHB[ ]	/* 2 values pushed */
6 100 
WCVTP[ ]	/* WriteCVTInPixels */
MPPEM[ ]	/* MeasurePixelPerEm */
PUSHB[ ]	/* 1 value pushed */
39 
LT[ ]	/* LessThan */
IF[ ]	/* If */
NPUSHB[ ]	/* 27 values pushed */
4 1 2 0 0 3 2 0 103 0 3 1 1 3 87 0 3 3 1 95 6 5 2 1 3 1 79 
ELSE[ ]	/* Else */
NPUSHB[ ]	/* 34 values pushed */
0 4 2 0 2 4 0 126 0 2 0 0 3 2 0 103 0 3 1 1 3 87 0 3 3 1 95 6 5 2 1 3 1 79 
EIF[ ]	/* EndIf */
NPUSHB[ ]	/* 14 values pushed */
0 0 0 25 0 24 18 36 34 18 36 7 10 25 
CALL[ ]	/* CallFunction */
PUSHB[ ]	/* 2 values pushed */
6 0 
WCVTP[ ]	/* WriteCVTInPixels */";
};
width = 0;
}
);
note = tildecomb;
unicode = 771;
},
{
glyphname = uni0304;
layers = (
{
layerId = m01;
shapes = (
{
closed = 1;
nodes = (
(-146,645,l),
(-146,692,l),
(-454,692,l),
(-454,645,l)
);
}
);
userData = {
assembly = "PUSHB[ ]	/* 2 values pushed */
6 100 
WCVTP[ ]	/* WriteCVTInPixels */
NPUSHB[ ]	/* 21 values pushed */
0 0 1 1 0 85 0 0 0 1 93 0 1 0 1 77 17 16 2 10 22 
CALL[ ]	/* CallFunction */
PUSHB[ ]	/* 2 values pushed */
6 0 
WCVTP[ ]	/* WriteCVTInPixels */";
};
width = 0;
}
);
note = uni0304;
unicode = 772;
},
{
glyphname = uni0306;
layers = (
{
layerId = m01;
shapes = (
{
closed = 1;
nodes = (
(-236,602,o),
(-150,672,o),
(-148,731,q),
(-198,731,l),
(-199,692,o),
(-257,646,o),
(-300,646,qs),
(-343,646,o),
(-401,692,o),
(-402,731,q),
(-452,731,l),
(-450,672,o),
(-364,602,o),
(-300,602,qs)
);
}
);
userData = {
assembly = "PUSHB[ ]	/* 2 values pushed */
6 100 
WCVTP[ ]	/* WriteCVTInPixels */
NPUSHB[ ]	/* 35 values pushed */
2 1 0 1 0 131 0 1 3 3 1 87 0 1 1 3 95 4 1 3 1 3 79 0 0 0 13 0 12 18 34 18 5 10 23 
CALL[ ]	/* CallFunction */
PUSHB[ ]	/* 2 values pushed */
6 0 
WCVTP[ ]	/* WriteCVTInPixels */";
};
width = 0;
}
);
note = uni0306;
unicode = 774;
},
{
glyphname = uni0307;
layers = (
{
layerId = m01;
shapes = (
{
closed = 1;
nodes = (
(-280,630,o),
(-252,658,o),
(-252,678,qs),
(-252,698,o),
(-280,726,o),
(-300,726,qs),
(-320,726,o),
(-348,698,o),
(-348,678,qs),
(-348,658,o),
(-320,630,o),
(-300,630,qs)
);
}
);
userData = {
assembly = "PUSHB[ ]	/* 2 values pushed */
6 100 
WCVTP[ ]	/* WriteCVTInPixels */
NPUSHB[ ]	/* 27 values pushed */
0 0 1 1 0 87 0 0 0 1 95 2 1 1 0 1 79 0 0 0 11 0 10 36 3 10 21 
CALL[ ]	/* CallFunction */
PUSHB[ ]	/* 2 values pushed */
6 0 
WCVTP[ ]	/* WriteCVTInPixels */";
};
width = 0;
}
);
note = uni0307;
unicode = 775;
},
{
glyphname = uni0308;
layers = (
{
layerId = m01;
shapes = (
{
closed = 1;
nodes = (
(-371,630,o),
(-346,655,o),
(-346,673,qs),
(-346,691,o),
(-372,716,o),
(-389,716,qs),
(-407,716,o),
(-432,691,o),
(-432,673,qs),
(-432,654,o),
(-407,630,o),
(-389,630,qs)
);
},
{
closed = 1;
nodes = (
(-193,630,o),
(-168,654,o),
(-168,673,qs),
(-168,691,o),
(-193,716,o),
(-211,716,qs),
(-228,716,o),
(-254,691,o),
(-254,673,qs),
(-254,655,o),
(-229,630,o),
(-211,630,qs)
);
}
);
userData = {
assembly = "PUSHB[ ]	/* 2 values pushed */
6 100 
WCVTP[ ]	/* WriteCVTInPixels */
NPUSHB[ ]	/* 39 values pushed */
2 1 0 1 1 0 87 2 1 0 0 1 95 5 3 4 3 1 0 1 79 12 12 0 0 12 23 12 22 18 16 0 11 0 10 36 6 10 21 
CALL[ ]	/* CallFunction */
PUSHB[ ]	/* 2 values pushed */
6 0 
WCVTP[ ]	/* WriteCVTInPixels */";
};
width = 0;
}
);
note = uni0308;
unicode = 776;
},
{
glyphname = hookabovecomb;
layers = (
{
layerId = m01;
shapes = (
{
closed = 1;
nodes = (
(-207,637,o),
(-207,707,qs),
(-207,746,o),
(-260,793,o),
(-302,793,qs),
(-324,793,o),
(-369,779,o),
(-385,767,q),
(-368,732,l),
(-339,751,o),
(-308,751,qs),
(-284,751,o),
(-253,723,o),
(-253,702,qs),
(-253,658,o),
(-312,631,q),
(-287,600,l)
);
}
);
userData = {
assembly = "PUSHB[ ]	/* 2 values pushed */
6 100 
WCVTP[ ]	/* WriteCVTInPixels */
NPUSHB[ ]	/* 32 values pushed */
8 1 0 1 1 74 16 7 2 0 71 0 1 0 0 1 87 0 1 1 0 95 0 0 1 0 79 36 36 2 10 22 
CALL[ ]	/* CallFunction */
PUSHB[ ]	/* 2 values pushed */
6 0 
WCVTP[ ]	/* WriteCVTInPixels */";
};
width = 0;
}
);
note = hookabovecomb;
unicode = 777;
},
{
glyphname = uni030A;
layers = (
{
layerId = m01;
shapes = (
{
closed = 1;
nodes = (
(-256,595,o),
(-196,655,o),
(-196,697,qs),
(-196,740,o),
(-257,802,o),
(-301,802,qs),
(-345,802,o),
(-405,740,o),
(-405,697,qs),
(-405,655,o),
(-346,595,o),
(-301,595,qs)
);
},
{
closed = 1;
nodes = (
(-331,630,o),
(-368,668,o),
(-368,697,qs),
(-368,727,o),
(-330,767,o),
(-301,767,qs),
(-272,767,o),
(-233,726,o),
(-233,697,qs),
(-233,668,o),
(-271,630,o),
(-301,630,qs)
);
}
);
userData = {
assembly = "PUSHB[ ]	/* 2 values pushed */
6 100 
WCVTP[ ]	/* WriteCVTInPixels */
NPUSHB[ ]	/* 45 values pushed */
0 0 0 2 3 0 2 103 5 1 3 1 1 3 87 5 1 3 3 1 95 4 1 1 3 1 79 12 12 0 0 12 23 12 22 18 16 0 11 0 10 36 6 10 21 
CALL[ ]	/* CallFunction */
PUSHB[ ]	/* 2 values pushed */
6 0 
WCVTP[ ]	/* WriteCVTInPixels */";
};
width = 0;
}
);
note = uni030A;
unicode = 778;
},
{
glyphname = uni030B;
layers = (
{
layerId = m01;
shapes = (
{
closed = 1;
nodes = (
(-350,607,l),
(-237,731,l),
(-316,731,l),
(-413,607,l)
);
},
{
closed = 1;
nodes = (
(-187,607,l),
(-75,731,l),
(-154,731,l),
(-250,607,l)
);
}
);
userData = {
assembly = "PUSHB[ ]	/* 2 values pushed */
6 100 
WCVTP[ ]	/* WriteCVTInPixels */
NPUSHB[ ]	/* 26 values pushed */
2 1 0 1 1 0 85 2 1 0 0 1 93 3 1 1 0 1 77 17 17 17 16 4 10 24 
CALL[ ]	/* CallFunction */
PUSHB[ ]	/* 2 values pushed */
6 0 
WCVTP[ ]	/* WriteCVTInPixels */";
};
width = 0;
}
);
note = uni030B;
unicode = 779;
},
{
glyphname = uni030C;
layers = (
{
layerId = m01;
shapes = (
{
closed = 1;
nodes = (
(-300,649,l),
(-399,731,l),
(-465,731,l),
(-336,607,l),
(-264,607,l),
(-135,731,l),
(-201,731,l)
);
}
);
userData = {
assembly = "PUSHB[ ]	/* 2 values pushed */
6 100 
WCVTP[ ]	/* WriteCVTInPixels */
NPUSHB[ ]	/* 28 values pushed */
5 1 0 1 1 74 3 2 2 1 0 1 131 0 0 0 116 0 0 0 6 0 6 17 17 4 10 22 
CALL[ ]	/* CallFunction */
PUSHB[ ]	/* 2 values pushed */
6 0 
WCVTP[ ]	/* WriteCVTInPixels */";
};
width = 0;
}
);
note = uni030C;
unicode = 780;
},
{
glyphname = uni030F;
layers = (
{
layerId = m01;
shapes = (
{
closed = 1;
nodes = (
(-350,607,l),
(-446,731,l),
(-525,731,l),
(-413,607,l)
);
},
{
closed = 1;
nodes = (
(-187,607,l),
(-284,731,l),
(-363,731,l),
(-250,607,l)
);
}
);
userData = {
assembly = "PUSHB[ ]	/* 2 values pushed */
6 100 
WCVTP[ ]	/* WriteCVTInPixels */
NPUSHB[ ]	/* 26 values pushed */
2 1 0 1 1 0 85 2 1 0 0 1 93 3 1 1 0 1 77 17 17 17 16 4 10 24 
CALL[ ]	/* CallFunction */
PUSHB[ ]	/* 2 values pushed */
6 0 
WCVTP[ ]	/* WriteCVTInPixels */";
};
width = 0;
}
);
note = uni030F;
unicode = 783;
},
{
glyphname = uni0311;
layers = (
{
layerId = m01;
shapes = (
{
closed = 1;
nodes = (
(-402,607,l),
(-401,645,o),
(-343,692,o),
(-300,692,qs),
(-257,692,o),
(-199,645,o),
(-198,607,q),
(-148,607,l),
(-150,666,o),
(-236,735,o),
(-300,735,qs),
(-364,735,o),
(-450,666,o),
(-452,607,q)
);
}
);
userData = {
assembly = "PUSHB[ ]	/* 2 values pushed */
6 100 
WCVTP[ ]	/* WriteCVTInPixels */
NPUSHB[ ]	/* 29 values pushed */
3 1 1 2 1 132 0 0 2 2 0 87 0 0 0 2 95 0 2 0 2 79 18 34 18 33 4 10 24 
CALL[ ]	/* CallFunction */
PUSHB[ ]	/* 2 values pushed */
6 0 
WCVTP[ ]	/* WriteCVTInPixels */";
};
width = 0;
}
);
note = uni0311;
unicode = 785;
},
{
glyphname = uni0312;
layers = (
{
layerId = m01;
shapes = (
{
closed = 1;
nodes = (
(-257,781,l),
(-300,781,l),
(-335,685,ls),
(-340,672,o),
(-346,651,o),
(-346,641,qs),
(-346,624,o),
(-322,602,o),
(-300,602,qs),
(-279,602,o),
(-254,624,o),
(-254,641,qs),
(-254,655,o),
(-271,675,o),
(-285,678,q)
);
}
);
userData = {
assembly = "PUSHB[ ]	/* 2 values pushed */
6 100 
WCVTP[ ]	/* WriteCVTInPixels */
NPUSHB[ ]	/* 27 values pushed */
14 1 0 1 1 74 0 1 0 0 1 85 0 1 1 0 95 0 0 1 0 79 22 36 2 10 22 
CALL[ ]	/* CallFunction */
PUSHB[ ]	/* 2 values pushed */
6 0 
WCVTP[ ]	/* WriteCVTInPixels */";
};
width = 0;
}
);
note = uni0312;
unicode = 786;
},
{
glyphname = uni031B;
layers = (
{
layerId = m01;
shapes = (
{
closed = 1;
nodes = (
(-300,471,ls),
(-243,471,o),
(-181,536,o),
(-181,591,qs),
(-181,639,o),
(-207,675,q),
(-254,657,l),
(-234,629,o),
(-234,593,qs),
(-234,563,o),
(-267,526,o),
(-300,526,qs),
(-315,526,l),
(-315,471,l)
);
}
);
userData = {
assembly = "PUSHB[ ]	/* 2 values pushed */
6 100 
WCVTP[ ]	/* WriteCVTInPixels */
NPUSHB[ ]	/* 26 values pushed */
7 6 2 0 72 0 0 1 1 0 87 0 0 0 1 95 0 1 0 1 79 41 32 2 10 22 
CALL[ ]	/* CallFunction */
PUSHB[ ]	/* 2 values pushed */
6 0 
WCVTP[ ]	/* WriteCVTInPixels */";
};
width = 0;
}
);
note = uni031B;
unicode = 795;
},
{
glyphname = dotbelowcomb;
layers = (
{
layerId = m01;
shapes = (
{
closed = 1;
nodes = (
(-282,-190,o),
(-257,-166,o),
(-257,-147,qs),
(-257,-128,o),
(-282,-104,o),
(-300,-104,qs),
(-318,-104,o),
(-343,-128,o),
(-343,-147,qs),
(-343,-166,o),
(-318,-190,o),
(-300,-190,qs)
);
}
);
userData = {
assembly = "PUSHB[ ]	/* 2 values pushed */
6 100 
WCVTP[ ]	/* WriteCVTInPixels */
NPUSHB[ ]	/* 27 values pushed */
0 0 1 1 0 87 0 0 0 1 95 2 1 1 0 1 79 0 0 0 11 0 10 36 3 10 21 
CALL[ ]	/* CallFunction */
PUSHB[ ]	/* 2 values pushed */
6 0 
WCVTP[ ]	/* WriteCVTInPixels */";
};
width = 0;
}
);
note = dotbelowcomb;
unicode = 803;
},
{
glyphname = uni0324;
layers = (
{
layerId = m01;
shapes = (
{
closed = 1;
nodes = (
(-365,-187,o),
(-340,-163,o),
(-340,-145,qs),
(-340,-128,o),
(-366,-104,o),
(-383,-104,qs),
(-400,-104,o),
(-424,-128,o),
(-424,-145,qs),
(-424,-163,o),
(-400,-187,o),
(-383,-187,qs)
);
},
{
closed = 1;
nodes = (
(-200,-187,o),
(-175,-163,o),
(-175,-145,qs),
(-175,-128,o),
(-200,-104,o),
(-217,-104,qs),
(-234,-104,o),
(-259,-128,o),
(-259,-145,qs),
(-259,-163,o),
(-235,-187,o),
(-217,-187,qs)
);
}
);
userData = {
assembly = "PUSHB[ ]	/* 2 values pushed */
6 100 
WCVTP[ ]	/* WriteCVTInPixels */
NPUSHB[ ]	/* 39 values pushed */
2 1 0 1 1 0 87 2 1 0 0 1 95 5 3 4 3 1 0 1 79 12 12 0 0 12 23 12 22 18 16 0 11 0 10 36 6 10 21 
CALL[ ]	/* CallFunction */
PUSHB[ ]	/* 2 values pushed */
6 0 
WCVTP[ ]	/* WriteCVTInPixels */";
};
width = 0;
}
);
note = uni0324;
unicode = 804;
},
{
glyphname = uni0326;
layers = (
{
layerId = m01;
shapes = (
{
closed = 1;
nodes = (
(-319,-104,o),
(-343,-126,o),
(-343,-143,qs),
(-343,-157,o),
(-328,-177,o),
(-314,-180,q),
(-335,-262,l),
(-296,-262,l),
(-268,-188,ls),
(-257,-163,o),
(-257,-143,qs),
(-257,-127,o),
(-281,-104,o),
(-300,-104,qs)
);
}
);
userData = {
assembly = "PUSHB[ ]	/* 2 values pushed */
6 100 
WCVTP[ ]	/* WriteCVTInPixels */
NPUSHB[ ]	/* 34 values pushed */
7 1 0 1 1 74 2 1 1 0 0 1 87 2 1 1 1 0 93 0 0 1 0 77 0 0 0 13 0 12 21 3 10 21 
CALL[ ]	/* CallFunction */
PUSHB[ ]	/* 2 values pushed */
6 0 
WCVTP[ ]	/* WriteCVTInPixels */";
};
width = 0;
}
);
note = uni0326;
unicode = 806;
},
{
glyphname = uni0327;
layers = (
{
layerId = m01;
shapes = (
{
closed = 1;
nodes = (
(-271,-220,o),
(-209,-173,o),
(-209,-133,qs),
(-209,-99,o),
(-253,-56,o),
(-294,-52,q),
(-279,6,l),
(-322,6,l),
(-346,-85,l),
(-323,-85,ls),
(-292,-85,o),
(-261,-110,o),
(-261,-131,qs),
(-261,-154,o),
(-293,-178,o),
(-323,-178,qs),
(-360,-178,o),
(-389,-159,q),
(-406,-197,l),
(-371,-220,o),
(-322,-220,qs)
);
}
);
userData = {
assembly = "PUSHB[ ]	/* 2 values pushed */
6 100 
WCVTP[ ]	/* WriteCVTInPixels */
NPUSHB[ ]	/* 51 values pushed */
14 1 1 2 2 1 0 1 1 1 3 0 3 74 0 2 0 1 0 2 1 103 0 0 3 3 0 87 0 0 0 3 95 4 1 3 0 3 79 0 0 0 20 0 19 17 36 35 5 10 23 
CALL[ ]	/* CallFunction */
PUSHB[ ]	/* 2 values pushed */
6 0 
WCVTP[ ]	/* WriteCVTInPixels */";
};
width = 0;
}
);
note = uni0327;
unicode = 807;
},
{
glyphname = uni0328;
layers = (
{
layerId = m01;
shapes = (
{
closed = 1;
nodes = (
(-314,-220,o),
(-278,-196,q),
(-294,-157,l),
(-317,-176,o),
(-356,-176,qs),
(-385,-176,o),
(-421,-147,o),
(-421,-120,qs),
(-421,-54,o),
(-299,0,q),
(-332,27,l),
(-473,-32,o),
(-473,-125,qs),
(-473,-168,o),
(-413,-220,o),
(-363,-220,qs)
);
}
);
userData = {
assembly = "PUSHB[ ]	/* 2 values pushed */
6 100 
WCVTP[ ]	/* WriteCVTInPixels */
NPUSHB[ ]	/* 39 values pushed */
13 1 1 0 1 74 12 5 4 3 0 72 0 0 1 1 0 87 0 0 0 1 95 2 1 1 0 1 79 0 0 0 15 0 14 41 3 10 21 
CALL[ ]	/* CallFunction */
PUSHB[ ]	/* 2 values pushed */
6 0 
WCVTP[ ]	/* WriteCVTInPixels */";
};
width = 0;
}
);
note = uni0328;
unicode = 808;
},
{
glyphname = uni032E;
layers = (
{
layerId = m01;
shapes = (
{
closed = 1;
nodes = (
(-236,-205,o),
(-150,-139,o),
(-148,-84,q),
(-196,-84,l),
(-197,-120,o),
(-256,-164,o),
(-300,-164,qs),
(-344,-164,o),
(-403,-120,o),
(-404,-84,q),
(-452,-84,l),
(-450,-139,o),
(-364,-205,o),
(-300,-205,qs)
);
}
);
userData = {
assembly = "PUSHB[ ]	/* 2 values pushed */
6 100 
WCVTP[ ]	/* WriteCVTInPixels */
NPUSHB[ ]	/* 35 values pushed */
2 1 0 1 0 131 0 1 3 3 1 87 0 1 1 3 95 4 1 3 1 3 79 0 0 0 13 0 12 18 34 18 5 10 23 
CALL[ ]	/* CallFunction */
PUSHB[ ]	/* 2 values pushed */
6 0 
WCVTP[ ]	/* WriteCVTInPixels */";
};
width = 0;
}
);
note = uni032E;
unicode = 814;
},
{
glyphname = uni0331;
layers = (
{
layerId = m01;
shapes = (
{
closed = 1;
nodes = (
(-146,-169,l),
(-146,-122,l),
(-454,-122,l),
(-454,-169,l)
);
}
);
userData = {
assembly = "PUSHB[ ]	/* 2 values pushed */
6 100 
WCVTP[ ]	/* WriteCVTInPixels */
NPUSHB[ ]	/* 21 values pushed */
0 0 1 1 0 85 0 0 0 1 93 0 1 0 1 77 17 16 2 10 22 
CALL[ ]	/* CallFunction */
PUSHB[ ]	/* 2 values pushed */
6 0 
WCVTP[ ]	/* WriteCVTInPixels */";
};
width = 0;
}
);
note = uni0331;
unicode = 817;
},
{
glyphname = uni0335;
layers = (
{
layerId = m01;
shapes = (
{
closed = 1;
nodes = (
(-105,413,l),
(-105,465,l),
(-495,465,l),
(-495,413,l)
);
}
);
userData = {
assembly = "PUSHB[ ]	/* 2 values pushed */
6 100 
WCVTP[ ]	/* WriteCVTInPixels */
NPUSHB[ ]	/* 21 values pushed */
0 0 1 1 0 85 0 0 0 1 93 0 1 0 1 77 17 16 2 10 22 
CALL[ ]	/* CallFunction */
PUSHB[ ]	/* 2 values pushed */
6 0 
WCVTP[ ]	/* WriteCVTInPixels */";
};
width = 0;
}
);
note = uni0335;
unicode = 821;
},
{
glyphname = uni0336;
layers = (
{
layerId = m01;
shapes = (
{
closed = 1;
nodes = (
(-26,409,l),
(-26,469,l),
(-823,469,l),
(-823,409,l)
);
}
);
userData = {
assembly = "PUSHB[ ]	/* 2 values pushed */
6 100 
WCVTP[ ]	/* WriteCVTInPixels */
NPUSHB[ ]	/* 21 values pushed */
0 0 1 1 0 85 0 0 0 1 93 0 1 0 1 77 17 16 2 10 22 
CALL[ ]	/* CallFunction */
PUSHB[ ]	/* 2 values pushed */
6 0 
WCVTP[ ]	/* WriteCVTInPixels */";
};
width = 0;
}
);
note = uni0336;
unicode = 822;
},
{
glyphname = uni0337;
layers = (
{
layerId = m01;
shapes = (
{
closed = 1;
nodes = (
(-65,452,l),
(-97,496,l),
(-339,314,l),
(-306,271,l)
);
}
);
userData = {
assembly = "PUSHB[ ]	/* 4 values pushed */
3 1 1 48 
CALL[ ]	/* CallFunction */";
};
width = 0;
}
);
note = uni0337;
unicode = 823;
},
{
glyphname = uni0338;
layers = (
{
layerId = m01;
shapes = (
{
closed = 1;
nodes = (
(-505,-70,l),
(-63,595,l),
(-110,595,l),
(-553,-70,l)
);
}
);
userData = {
assembly = "PUSHB[ ]	/* 2 values pushed */
6 100 
WCVTP[ ]	/* WriteCVTInPixels */
NPUSHB[ ]	/* 14 values pushed */
0 0 1 0 131 0 1 1 116 17 16 2 10 22 
CALL[ ]	/* CallFunction */
PUSHB[ ]	/* 2 values pushed */
6 0 
WCVTP[ ]	/* WriteCVTInPixels */";
};
width = 0;
}
);
note = uni0338;
unicode = 824;
},
{
glyphname = uni0345;
layers = (
{
layerId = m01;
shapes = (
{
closed = 1;
nodes = (
(-261,-153,qs),
(-228,-186,o),
(-173,-186,qs),
(-141,-186,o),
(-82,-167,o),
(-62,-149,q),
(-87,-98,l),
(-102,-111,o),
(-143,-125,o),
(-165,-125,qs),
(-190,-125,o),
(-207,-107,qs),
(-228,-85,o),
(-228,-49,qs),
(-228,57,l),
(-299,57,l),
(-299,-48,o),
(-299,-48,q),
(-299,-114,o)
);
}
);
width = 404;
}
);
note = uni0345;
unicode = 837;
},
{
glyphname = uni0370;
layers = (
{
layerId = m01;
shapes = (
{
closed = 1;
nodes = (
(190,386,l),
(190,700,l),
(118,700,l),
(118,0,l),
(190,0,l),
(190,321,l),
(606,321,l),
(606,386,l)
);
}
);
width = 702;
}
);
note = uni0370;
unicode = 880;
},
{
glyphname = uni0371;
layers = (
{
layerId = m01;
shapes = (
{
closed = 1;
nodes = (
(172,295,l),
(172,526,l),
(101,526,l),
(101,0,l),
(172,0,l),
(172,234,l),
(497,234,l),
(497,295,l)
);
}
);
width = 581;
}
);
note = uni0371;
unicode = 881;
},
{
glyphname = uni037B;
layers = (
{
layerId = m01;
shapes = (
{
closed = 1;
nodes = (
(515,263,qs),
(515,340,o),
(445,462,o),
(322,530,o),
(244,530,qs),
(176,530,o),
(69,477,o),
(38,426,q),
(91,390,l),
(117,429,o),
(197,468,o),
(244,468,qs),
(301,468,o),
(392,417,o),
(443,323,o),
(443,263,qs),
(443,202,o),
(392,109,o),
(301,58,o),
(244,58,qs),
(197,58,o),
(117,96,o),
(91,135,q),
(38,99,l),
(69,48,o),
(177,-5,o),
(244,-5,qs),
(322,-5,o),
(445,63,o),
(515,186,o)
);
}
);
width = 563;
}
);
note = uni037B;
unicode = 891;
},
{
glyphname = tonos;
layers = (
{
layerId = m01;
shapes = (
{
closed = 1;
nodes = (
(-295,500,l),
(-133,731,l),
(-228,731,l),
(-365,500,l)
);
}
);
width = 0;
}
);
note = tonos;
unicode = 900;
},
{
glyphname = dieresistonos;
layers = (
{
layerId = m01;
shapes = (
{
closed = 1;
nodes = (
(-355,498,l),
(-193,731,l),
(-288,731,l),
(-425,498,l)
);
},
{
closed = 1;
nodes = (
(-486,547,o),
(-461,572,o),
(-461,590,qs),
(-461,608,o),
(-487,633,o),
(-504,633,qs),
(-522,633,o),
(-547,608,o),
(-547,590,qs),
(-547,571,o),
(-522,547,o),
(-504,547,qs)
);
},
{
closed = 1;
nodes = (
(-138,547,o),
(-114,571,o),
(-114,590,qs),
(-114,608,o),
(-138,633,o),
(-156,633,qs),
(-174,633,o),
(-199,608,o),
(-200,590,qs),
(-199,572,o),
(-174,547,o),
(-156,547,qs)
);
}
);
width = 600;
}
);
note = dieresistonos;
unicode = 901;
},
{
glyphname = uni0394;
kernLeft = A;
layers = (
{
layerId = m01;
shapes = (
{
closed = 1;
nodes = (
(322,700,l),
(2,0,l),
(715,0,l),
(395,700,l)
);
},
{
closed = 1;
nodes = (
(608,64,l),
(107,64,l),
(358,624,l)
);
}
);
userData = {
assembly = "NPUSHB[ ]	/* 33 values pushed */
6 1 2 1 1 74 0 1 2 1 131 0 2 0 0 2 85 0 2 2 0 93 0 0 2 0 77 17 17 16 3 13 23 
CALL[ ]	/* CallFunction */";
};
width = 717;
}
);
note = uni0394;
unicode = 916;
},
{
glyphname = Theta;
layers = (
{
layerId = m01;
shapes = (
{
closed = 1;
nodes = (
(573,320,l),
(573,380,l),
(273,380,l),
(273,320,l)
);
},
{
closed = 1;
nodes = (
(524,-6,o),
(691,86,o),
(787,249,o),
(787,350,qs),
(787,451,o),
(691,614,o),
(524,706,o),
(420,706,qs),
(316,706,o),
(147,613,o),
(52,451,o),
(52,350,qs),
(52,249,o),
(147,87,o),
(316,-6,o),
(420,-6,qs)
);
},
{
closed = 1;
nodes = (
(337,60,o),
(202,135,o),
(125,268,o),
(125,350,qs),
(125,432,o),
(202,565,o),
(337,640,o),
(420,640,qs),
(503,640,o),
(637,565,o),
(713,432,o),
(713,350,qs),
(713,268,o),
(637,135,o),
(503,60,o),
(420,60,qs)
);
}
);
width = 839;
}
);
note = Theta;
unicode = 920;
},
{
glyphname = Lambda;
layers = (
{
layerId = m01;
shapes = (
{
closed = 1;
nodes = (
(715,0,l),
(395,700,l),
(322,700,l),
(2,0,l),
(79,0,l),
(358,623,l),
(637,0,l)
);
}
);
width = 717;
}
);
note = Lambda;
unicode = 923;
},
{
glyphname = Xi;
layers = (
{
layerId = m01;
shapes = (
{
closed = 1;
nodes = (
(575,380,l),
(125,380,l),
(125,320,l),
(575,320,l)
);
},
{
closed = 1;
nodes = (
(665,64,l),
(35,64,l),
(35,0,l),
(665,0,l)
);
},
{
closed = 1;
nodes = (
(650,700,l),
(50,700,l),
(50,636,l),
(650,636,l)
);
}
);
width = 700;
}
);
note = Xi;
unicode = 926;
},
{
glyphname = Sigma;
layers = (
{
layerId = m01;
shapes = (
{
closed = 1;
nodes = (
(594,636,l),
(594,700,l),
(114,700,l),
(114,636,l),
(341,350,l),
(114,64,l),
(114,0,l),
(609,0,l),
(609,64,l),
(198,64,l),
(426,350,l),
(198,636,l)
);
}
);
width = 669;
}
);
note = Sigma;
unicode = 931;
},
{
glyphname = Phi;
layers = (
{
layerId = m01;
shapes = (
{
closed = 1;
nodes = (
(615,624,o),
(469,630,q),
(469,700,l),
(400,700,l),
(400,630,l),
(253,624,o),
(56,466,o),
(56,351,qs),
(56,236,o),
(253,78,o),
(400,72,q),
(400,0,l),
(469,0,l),
(469,72,l),
(616,77,o),
(813,236,o),
(813,465,o)
);
},
{
closed = 1;
nodes = (
(469,570,l),
(583,565,o),
(742,439,o),
(742,351,qs),
(742,263,o),
(584,137,o),
(469,131,q)
);
},
{
closed = 1;
nodes = (
(127,439,o),
(284,564,o),
(400,570,q),
(400,131,l),
(286,138,o),
(127,263,o),
(127,351,qs)
);
}
);
width = 875;
}
);
note = Phi;
unicode = 934;
},
{
glyphname = Psi;
layers = (
{
layerId = m01;
shapes = (
{
closed = 1;
nodes = (
(240,311,o),
(119,432,o),
(119,526,qs),
(119,700,l),
(49,700,l),
(49,526,ls),
(49,403,o),
(210,247,o),
(357,241,q),
(357,0,l),
(426,0,l),
(426,242,l),
(574,248,o),
(736,400,o),
(737,526,qs),
(737,700,l),
(667,700,l),
(667,526,ls),
(666,428,o),
(543,310,o),
(426,304,q),
(426,700,l),
(357,700,l),
(357,304,l)
);
}
);
width = 785;
}
);
note = Psi;
unicode = 936;
},
{
glyphname = uni03A9;
layers = (
{
layerId = m01;
shapes = (
{
closed = 1;
nodes = (
(347,0,l),
(347,60,l),
(255,107,o),
(158,261,o),
(158,353,qs),
(158,436,o),
(233,567,o),
(367,640,o),
(451,640,qs),
(535,640,o),
(669,567,o),
(744,436,o),
(744,353,qs),
(744,261,o),
(647,107,o),
(555,60,q),
(555,0,l),
(893,0,l),
(893,65,l),
(669,65,l),
(741,116,o),
(818,267,o),
(818,356,qs),
(818,457,o),
(722,616,o),
(555,706,o),
(451,706,qs),
(347,706,o),
(180,616,o),
(84,457,o),
(84,356,qs),
(84,267,o),
(161,116,o),
(233,65,q),
(9,65,l),
(9,0,l)
);
}
);
userData = {
assembly = "NPUSHB[ ]	/* 43 values pushed */
33 19 2 3 0 1 74 0 1 0 4 0 1 4 103 2 1 0 3 3 0 85 2 1 0 0 3 93 5 1 3 0 3 77 23 39 17 22 38 16 6 13 26 
CALL[ ]	/* CallFunction */";
};
width = 902;
}
);
note = uni03A9;
unicode = 937;
},
{
glyphname = alpha;
layers = (
{
layerId = m01;
shapes = (
{
closed = 1;
nodes = (
(508,426,l),
(475,477,o),
(372,530,o),
(308,530,qs),
(234,530,o),
(114,463,o),
(46,341,o),
(46,263,qs),
(46,185,o),
(114,63,o),
(234,-5,o),
(308,-5,qs),
(374,-5,o),
(479,51,o),
(511,104,q),
(511,0,l),
(579,0,l),
(579,526,l),
(508,526,l)
);
},
{
closed = 1;
nodes = (
(258,58,o),
(169,109,o),
(118,203,o),
(118,263,qs),
(118,323,o),
(169,417,o),
(258,468,o),
(314,468,qs),
(369,468,o),
(458,417,o),
(509,323,o),
(509,263,qs),
(509,203,o),
(458,109,o),
(369,58,o),
(314,58,qs)
);
}
);
width = 678;
}
);
note = alpha;
unicode = 945;
},
{
glyphname = beta;
layers = (
{
layerId = m01;
shapes = (
{
closed = 1;
nodes = (
(154,-184,l),
(154,71,l),
(185,28,o),
(221,9,qs),
(252,-8,o),
(329,-8,qs),
(395,-8,o),
(510,41,o),
(581,138,o),
(581,207,qs),
(581,278,o),
(500,373,o),
(425,390,q),
(482,410,o),
(546,496,o),
(546,557,qs),
(546,619,o),
(483,707,o),
(380,752,o),
(321,752,qs),
(260,752,o),
(151,703,o),
(83,604,o),
(83,534,qs),
(83,203,l),
(83,-184,l)
);
},
{
closed = 1;
nodes = (
(330,355,ls),
(415,355,o),
(508,283,o),
(508,212,qs),
(508,160,o),
(458,88,o),
(376,52,o),
(284,52,o),
(204,88,o),
(154,159,o),
(154,210,qs),
(154,530,ls),
(154,582,o),
(201,655,o),
(276,690,o),
(319,690,qs),
(383,690,o),
(474,616,o),
(474,482,o),
(386,412,o),
(309,412,qs),
(225,412,l),
(225,355,l)
);
}
);
width = 636;
}
);
note = beta;
unicode = 946;
},
{
glyphname = gamma;
layers = (
{
layerId = m01;
shapes = (
{
closed = 1;
nodes = (
(307,-194,l),
(307,0,l),
(541,526,l),
(471,526,l),
(272,78,l),
(75,526,l),
(1,526,l),
(234,0,l),
(234,-194,l)
);
}
);
width = 542;
}
);
note = gamma;
unicode = 947;
},
{
glyphname = delta;
lastChange = "2021-08-11 00:17:52 +0000";
layers = (
{
layerId = m01;
shapes = (
{
closed = 1;
nodes = (
(509,343,o),
(509,263,qs),
(509,203,o),
(459,109,o),
(370,58,o),
(258,58,o),
(169,109,o),
(118,203,o),
(118,323,o),
(169,417,o),
(258,468,o),
(314,468,qs),
(376,468,o),
(424,430,q),
(462,391,ls)
);
},
{
closed = 1;
nodes = (
(314,530,qs),
(238,530,o),
(116,462,o),
(46,340,o),
(46,263,qs),
(47,186,o),
(116,64,o),
(238,-5,o),
(390,-5,o),
(512,64,o),
(581,186,o),
(581,263,qs),
(581,346,o),
(530,409,qs),
(488,462,o),
(442,503,qs),
(240,685,l),
(518,685,l),
(518,746,l),
(146,746,l),
(146,692,l),
(328,528,l),
(322,530,o)
);
}
);
width = 627;
}
);
note = delta;
unicode = 948;
},
{
glyphname = epsilon;
layers = (
{
layerId = m01;
shapes = (
{
closed = 1;
nodes = (
(44,106,o),
(107,34,o),
(215,-4,o),
(280,-4,qs),
(337,-4,o),
(447,28,o),
(488,60,q),
(464,114,l),
(428,86,o),
(332,56,o),
(283,56,qs),
(210,56,o),
(117,112,o),
(117,158,qs),
(117,200,o),
(193,248,o),
(259,248,qs),
(349,248,l),
(349,300,l),
(263,300,ls),
(204,300,o),
(132,344,o),
(132,382,qs),
(132,424,o),
(213,472,o),
(278,472,qs),
(363,472,o),
(446,430,q),
(466,484,l),
(372,534,o),
(271,534,qs),
(211,534,o),
(114,498,o),
(59,434,o),
(59,392,qs),
(59,352,o),
(114,290,o),
(161,276,q),
(105,262,o),
(44,198,o),
(44,152,qs)
);
}
);
width = 534;
}
);
note = epsilon;
unicode = 949;
},
{
glyphname = zeta;
layers = (
{
layerId = m01;
shapes = (
{
closed = 1;
nodes = (
(83,746,l),
(83,687,l),
(436,687,l),
(36,427,o),
(35,206,qs),
(35,0,o),
(296,0,qs),
(540,0,o),
(412,-186,q),
(480,-195,l),
(633,55,o),
(296,55,qs),
(110,55,o),
(110,220,qs),
(110,392,o),
(528,689,q),
(528,746,l)
);
}
);
width = 580;
}
);
note = zeta;
unicode = 950;
},
{
glyphname = eta;
layers = (
{
layerId = m01;
shapes = (
{
closed = 1;
nodes = (
(299,530,o),
(196,477,o),
(167,429,q),
(167,526,l),
(99,526,l),
(99,0,l),
(170,0,l),
(170,276,ls),
(170,365,o),
(269,466,o),
(354,466,qs),
(430,466,o),
(512,380,o),
(512,298,qs),
(512,-194,l),
(583,-194,l),
(583,305,ls),
(583,415,o),
(466,530,o),
(367,530,qs)
);
}
);
width = 677;
}
);
note = eta;
unicode = 951;
},
{
glyphname = theta;
layers = (
{
layerId = m01;
shapes = (
{
closed = 1;
nodes = (
(131,497,o),
(151,547,qs),
(177,612,o),
(270,680,o),
(331,680,qs),
(392,680,o),
(485,612,o),
(511,547,qs),
(531,496,o),
(536,405,q),
(126,405,l)
);
},
{
closed = 1;
nodes = (
(533,264,o),
(511,202,qs),
(485,128,o),
(392,60,o),
(331,60,qs),
(270,60,o),
(177,128,o),
(151,202,qs),
(130,262,o),
(126,345,q),
(536,345,l)
);
},
{
closed = 1;
nodes = (
(412,-6,o),
(539,80,o),
(611,259,o),
(611,368,qs),
(611,499,o),
(539,660,o),
(412,746,o),
(331,746,qs),
(250,746,o),
(123,660,o),
(52,499,o),
(52,368,qs),
(52,259,o),
(123,80,o),
(250,-6,o),
(331,-6,qs)
);
}
);
width = 662;
}
);
note = theta;
unicode = 952;
},
{
glyphname = iota;
layers = (
{
layerId = m01;
shapes = (
{
closed = 1;
nodes = (
(139,39,qs),
(179,-1,o),
(253,-1,qs),
(285,-1,o),
(344,18,o),
(364,36,q),
(339,87,l),
(324,74,o),
(283,60,o),
(261,60,qs),
(217,60,o),
(170,109,o),
(170,156,qs),
(170,526,l),
(99,526,l),
(99,157,o),
(99,157,q),
(99,80,o)
);
}
);
width = 404;
}
);
note = iota;
unicode = 953;
},
{
glyphname = lambda;
layers = (
{
layerId = m01;
shapes = (
{
closed = 1;
nodes = (
(164,662,qs),
(177,652,o),
(212,576,qs),
(235,526,l),
(0,0,l),
(74,0,l),
(272,448,l),
(470,0,l),
(540,0,l),
(277,589,ls),
(232,690,o),
(203,712,qs),
(160,746,o),
(65,746,q),
(65,685,o),
(65,685,q),
(136,685,o)
);
}
);
width = 542;
}
);
note = lambda;
unicode = 955;
},
{
glyphname = uni03BC;
layers = (
{
layerId = m01;
shapes = (
{
closed = 1;
nodes = (
(508,250,ls),
(508,161,o),
(411,59,o),
(329,59,qs),
(252,59,o),
(170,145,o),
(170,228,qs),
(170,526,l),
(99,526,l),
(99,-194,l),
(170,-194,l),
(170,70,l),
(195,33,o),
(276,-5,o),
(330,-5,qs),
(389,-5,o),
(485,47,o),
(511,98,q),
(511,0,l),
(579,0,l),
(579,526,l),
(508,526,l)
);
}
);
userData = {
assembly = "NPUSHB[ ]	/* 57 values pushed */
9 3 2 4 3 1 74 6 5 2 3 4 3 131 0 0 4 1 4 0 1 126 0 2 1 2 132 0 4 0 1 4 87 0 4 4 1 95 0 1 4 1 79 0 0 0 21 0 21 35 17 19 35 17 7 13 25 
CALL[ ]	/* CallFunction */";
};
width = 678;
}
);
note = uni03BC;
unicode = 956;
},
{
glyphname = nu;
layers = (
{
layerId = m01;
shapes = (
{
closed = 1;
nodes = (
(419,259,o),
(275,78,q),
(75,526,l),
(1,526,l),
(234,0,l),
(307,0,l),
(491,243,o),
(541,526,q),
(471,526,l)
);
}
);
width = 542;
}
);
note = nu;
unicode = 957;
},
{
glyphname = xi;
layers = (
{
layerId = m01;
shapes = (
{
closed = 1;
nodes = (
(138,544,qs),
(138,694,o),
(491,694,q),
(491,746,l),
(43,746,l),
(43,694,l),
(239,694,ls),
(74,694,o),
(74,379,o),
(215,379,q),
(215,379,l),
(56,379,o),
(56,0,o),
(286,0,qs),
(530,0,o),
(402,-186,q),
(470,-195,l),
(595,55,o),
(286,55,qs),
(121,55,o),
(121,197,qs),
(121,349,o),
(314,349,qs),
(443,349,l),
(443,408,l),
(314,408,o),
(314,408,q),
(138,408,o)
);
}
);
width = 570;
}
);
note = xi;
unicode = 958;
},
{
glyphname = pi;
layers = (
{
layerId = m01;
shapes = (
{
closed = 1;
nodes = (
(537,3,o),
(611,3,qs),
(643,3,o),
(702,22,o),
(722,40,q),
(697,91,l),
(682,78,o),
(641,64,o),
(619,64,qs),
(575,64,o),
(528,113,o),
(528,160,qs),
(527,466,l),
(689,466,l),
(689,526,l),
(22,526,l),
(22,466,l),
(165,466,l),
(165,0,l),
(236,0,l),
(236,466,l),
(456,466,l),
(457,156,o),
(457,156,q),
(457,83,o)
);
}
);
width = 737;
}
);
note = pi;
unicode = 960;
},
{
glyphname = rho;
layers = (
{
layerId = m01;
shapes = (
{
closed = 1;
nodes = (
(310,58,o),
(221,109,o),
(170,203,o),
(170,263,qs),
(170,323,o),
(221,417,o),
(310,468,o),
(366,468,qs),
(422,468,o),
(511,417,o),
(561,323,o),
(561,263,qs),
(561,203,o),
(511,109,o),
(422,58,o),
(366,58,qs)
);
},
{
closed = 1;
nodes = (
(170,-194,l),
(170,99,l),
(203,48,o),
(306,-5,o),
(370,-5,qs),
(445,-5,o),
(564,62,o),
(632,184,o),
(632,263,qs),
(632,341,o),
(564,463,o),
(444,530,o),
(365,530,qs),
(289,530,o),
(167,462,o),
(99,340,o),
(99,263,qs),
(99,-194,l)
);
}
);
width = 696;
}
);
note = rho;
unicode = 961;
},
{
glyphname = sigma1;
layers = (
{
layerId = m01;
shapes = (
{
closed = 1;
nodes = (
(149,114,o),
(98,207,o),
(98,268,qs),
(98,328,o),
(149,422,o),
(240,473,o),
(297,473,qs),
(344,473,o),
(424,434,o),
(450,395,q),
(503,431,l),
(472,482,o),
(365,535,o),
(297,535,qs),
(219,535,o),
(96,467,o),
(26,345,o),
(26,268,qs),
(26,191,o),
(96,68,o),
(217,0,o),
(300,0,qs),
(540,0,o),
(426,-178,q),
(494,-187,l),
(620,63,o),
(300,63,qs),
(238,63,o)
);
}
);
width = 563;
}
);
note = sigma1;
unicode = 962;
},
{
glyphname = sigma;
layers = (
{
layerId = m01;
shapes = (
{
closed = 1;
nodes = (
(116,462,o),
(46,340,o),
(46,263,qs),
(46,186,o),
(116,64,o),
(238,-5,o),
(314,-5,qs),
(390,-5,o),
(512,64,o),
(581,186,o),
(581,263,qs),
(581,397,o),
(462,468,q),
(636,468,l),
(636,530,l),
(314,530,o),
(314,530,q),
(233,530,o)
);
},
{
closed = 1;
nodes = (
(258,58,o),
(169,109,o),
(118,203,o),
(118,263,qs),
(118,323,o),
(169,417,o),
(258,468,o),
(314,468,qs),
(370,468,o),
(459,417,o),
(509,323,o),
(509,263,qs),
(509,203,o),
(459,109,o),
(370,58,o),
(314,58,qs)
);
}
);
width = 673;
}
);
note = sigma;
unicode = 963;
},
{
glyphname = tau;
layers = (
{
layerId = m01;
shapes = (
{
closed = 1;
nodes = (
(283,0,o),
(357,0,qs),
(389,0,o),
(448,19,o),
(468,37,q),
(443,88,l),
(428,75,o),
(387,61,o),
(365,61,qs),
(321,61,o),
(272,110,o),
(272,157,qs),
(272,463,l),
(471,463,l),
(471,526,l),
(2,526,l),
(2,463,l),
(201,463,l),
(201,153,o),
(201,153,q),
(201,80,o)
);
}
);
width = 514;
}
);
note = tau;
unicode = 964;
},
{
glyphname = upsilon;
layers = (
{
layerId = m01;
shapes = (
{
closed = 1;
nodes = (
(165,145,o),
(165,228,qs),
(165,526,l),
(94,526,l),
(94,221,ls),
(94,110,o),
(218,-5,o),
(326,-5,qs),
(429,-5,o),
(555,110,o),
(555,221,qs),
(555,526,l),
(484,526,l),
(484,228,ls),
(484,145,o),
(402,59,o),
(326,59,qs),
(245,59,o)
);
}
);
width = 673;
}
);
note = upsilon;
unicode = 965;
},
{
glyphname = phi;
layers = (
{
layerId = m01;
shapes = (
{
closed = 1;
nodes = (
(240,64,o),
(119,170,o),
(119,264,qs),
(119,399,o),
(186,486,q),
(130,522,l),
(49,432,o),
(49,264,qs),
(49,141,o),
(210,1,o),
(357,-5,q),
(357,-194,l),
(426,-194,l),
(426,-5,l),
(574,1,o),
(736,161,o),
(736,284,qs),
(736,526,o),
(552,526,qs),
(358,526,o),
(358,317,qs),
(357,57,l)
);
},
{
closed = 1;
nodes = (
(427,317,ls),
(427,471,o),
(666,471,o),
(666,284,qs),
(666,189,o),
(543,63,o),
(426,57,q)
);
}
);
width = 785;
}
);
note = phi;
unicode = 966;
},
{
glyphname = chi;
layers = (
{
layerId = m01;
shapes = (
{
closed = 1;
nodes = (
(336,175,l),
(562,526,l),
(484,526,l),
(298,225,l),
(109,526,l),
(29,526,l),
(258,175,l),
(19,-196,l),
(99,-196,l),
(298,125,l),
(493,-196,l),
(574,-196,l)
);
}
);
width = 596;
}
);
note = chi;
unicode = 967;
},
{
glyphname = psi;
layers = (
{
layerId = m01;
shapes = (
{
closed = 1;
nodes = (
(240,64,o),
(119,185,o),
(119,279,qs),
(119,526,l),
(49,526,l),
(49,279,ls),
(49,156,o),
(210,1,o),
(357,-5,q),
(357,-194,l),
(426,-194,l),
(426,-5,l),
(574,1,o),
(736,153,o),
(737,279,qs),
(737,526,l),
(667,526,l),
(667,279,ls),
(666,181,o),
(543,63,o),
(426,57,q),
(426,526,l),
(357,526,l),
(357,57,l)
);
}
);
width = 785;
}
);
note = psi;
unicode = 968;
},
{
glyphname = omega;
layers = (
{
layerId = m01;
shapes = (
{
closed = 1;
nodes = (
(388,227,ls),
(388,149,o),
(364,111,qs),
(332,61,o),
(200,61,o),
(164,138,qs),
(138,196,o),
(138,286,qs),
(138,414,o),
(196,505,q),
(130,532,l),
(68,428,o),
(68,284,qs),
(68,213,o),
(114,65,o),
(200,-4,o),
(324,-4,o),
(408,58,o),
(425,114,q),
(442,58,o),
(526,-4,o),
(650,-4,o),
(736,65,o),
(782,203,o),
(782,284,qs),
(782,428,o),
(720,532,q),
(654,505,l),
(712,414,o),
(712,286,qs),
(712,189,o),
(686,138,qs),
(645,61,o),
(586,61,qs),
(518,61,o),
(488,111,qs),
(462,154,o),
(462,227,qs),
(462,435,l),
(388,435,l)
);
}
);
width = 862;
}
);
note = omega;
unicode = 969;
},
{
glyphname = uni03D0;
layers = (
{
layerId = m01;
shapes = (
{
closed = 1;
nodes = (
(330,355,ls),
(415,355,o),
(508,283,o),
(508,212,qs),
(508,160,o),
(458,88,o),
(376,52,o),
(330,52,qs),
(284,52,o),
(204,88,o),
(154,159,o),
(154,210,qs),
(154,530,ls),
(154,582,o),
(201,655,o),
(276,690,o),
(319,690,qs),
(383,690,o),
(474,616,o),
(474,549,qs),
(474,482,o),
(386,412,o),
(309,412,qs),
(225,412,l),
(225,355,l)
);
},
{
closed = 1;
nodes = (
(482,410,o),
(546,496,o),
(546,557,qs),
(546,619,o),
(483,707,o),
(380,752,o),
(321,752,qs),
(260,752,o),
(151,703,o),
(83,604,o),
(83,534,qs),
(83,203,ls),
(83,135,o),
(152,39,o),
(265,-8,o),
(329,-8,qs),
(395,-8,o),
(510,41,o),
(581,138,o),
(581,207,qs),
(581,278,o),
(500,373,o),
(425,390,q)
);
}
);
width = 636;
}
);
note = uni03D0;
unicode = 976;
},
{
glyphname = theta1;
layers = (
{
layerId = m01;
shapes = (
{
closed = 1;
nodes = (
(567,531,o),
(574,424,q),
(504,378,o),
(422,378,qs),
(352,378,o),
(257,444,o),
(257,507,qs),
(257,576,o),
(352,645,o),
(487,645,o),
(532,581,qs)
);
},
{
closed = 1;
nodes = (
(522,129,qs),
(468,55,o),
(202,55,o),
(202,274,qs),
(202,430,o),
(26,430,q),
(26,380,l),
(136,380,o),
(136,258,qs),
(136,132,o),
(202,56,qs),
(255,-6,o),
(329,-6,qs),
(426,-5,o),
(466,18,qs),
(568,75,o),
(609,158,qs),
(649,239,o),
(649,356,qs),
(649,523,o),
(516,706,o),
(414,706,qs),
(357,706,o),
(248,653,o),
(186,569,o),
(186,505,qs),
(186,465,o),
(246,369,o),
(353,317,o),
(411,317,qs),
(515,317,o),
(576,360,q),
(576,202,o)
);
}
);
width = 701;
}
);
note = theta1;
unicode = 977;
},
{
glyphname = Upsilon1;
layers = (
{
layerId = m01;
shapes = (
{
closed = 1;
nodes = (
(261,306,q),
(80,700,l),
(1,700,l),
(230,242,l),
(230,0,l),
(303,0,l),
(303,242,l),
(368,572,o),
(614,661,q),
(614,700,l),
(330,629,o)
);
}
);
width = 635;
}
);
note = Upsilon1;
unicode = 978;
},
{
glyphname = phi1;
layers = (
{
layerId = m01;
shapes = (
{
closed = 1;
nodes = (
(736,385,o),
(574,523,o),
(426,530,q),
(426,742,l),
(357,742,l),
(357,530,l),
(210,524,o),
(49,386,o),
(49,264,qs),
(49,141,o),
(210,0,o),
(357,-6,q),
(357,-194,l),
(426,-194,l),
(426,-5,l),
(574,1,o),
(736,141,o),
(736,264,qs)
);
},
{
closed = 1;
nodes = (
(119,356,o),
(241,461,o),
(357,467,q),
(357,57,l),
(240,64,o),
(119,170,o),
(119,264,qs)
);
},
{
closed = 1;
nodes = (
(426,467,l),
(543,461,o),
(666,357,o),
(666,264,qs),
(666,169,o),
(543,63,o),
(426,57,q)
);
}
);
width = 785;
}
);
note = phi1;
unicode = 981;
},
{
glyphname = omega1;
layers = (
{
layerId = m01;
shapes = (
{
closed = 1;
nodes = (
(410,227,ls),
(410,149,o),
(386,111,qs),
(354,61,o),
(222,61,o),
(186,138,qs),
(160,196,o),
(160,286,qs),
(160,386,o),
(196,464,q),
(698,464,l),
(734,386,o),
(734,286,qs),
(734,189,o),
(708,138,qs),
(667,61,o),
(608,61,qs),
(540,61,o),
(510,111,qs),
(484,154,o),
(484,227,qs),
(484,375,l),
(410,375,l)
);
},
{
closed = 1;
nodes = (
(90,384,o),
(90,284,qs),
(90,213,o),
(136,65,o),
(222,-4,o),
(346,-4,o),
(430,58,o),
(447,114,q),
(464,58,o),
(548,-4,o),
(672,-4,o),
(758,65,o),
(804,203,o),
(804,284,qs),
(804,384,o),
(774,464,q),
(856,464,l),
(856,533,l),
(22,533,l),
(22,464,l),
(120,464,l)
);
}
);
width = 884;
}
);
note = omega1;
unicode = 982;
},
{
glyphname = uni03D7;
layers = (
{
layerId = m01;
shapes = (
{
closed = 1;
nodes = (
(464,80,qs),
(441,103,o),
(441,150,qs),
(441,216,o),
(498,319,qs),
(618,535,l),
(538,535,l),
(188,156,l),
(282,286,o),
(282,384,qs),
(282,461,o),
(242,502,qs),
(202,542,o),
(128,542,qs),
(96,542,o),
(37,523,o),
(17,505,q),
(42,454,l),
(57,467,o),
(98,481,o),
(120,481,qs),
(164,481,o),
(211,432,o),
(211,385,qs),
(211,319,o),
(154,216,qs),
(34,0,l),
(114,0,l),
(464,379,l),
(370,249,o),
(370,151,qs),
(370,74,o),
(410,33,qs),
(450,-7,o),
(524,-7,qs),
(547,-7,ls),
(578,-7,o),
(609,-32,o),
(609,-53,qs),
(609,-76,o),
(577,-100,o),
(547,-100,qs),
(510,-100,o),
(481,-81,q),
(464,-119,l),
(499,-142,o),
(548,-142,qs),
(599,-142,o),
(661,-95,o),
(661,-55,qs),
(661,-8,o),
(635,22,qs),
(608,54,o),
(532,54,qs),
(488,54,o)
);
}
);
width = 662;
}
);
note = uni03D7;
unicode = 983;
},
{
glyphname = uni03D8;
layers = (
{
layerId = m01;
shapes = (
{
closed = 1;
nodes = (
(202,135,o),
(125,268,o),
(125,432,o),
(202,565,o),
(337,640,o),
(503,640,o),
(637,565,o),
(713,432,o),
(713,268,o),
(637,135,o),
(503,60,o),
(337,60,o)
);
},
{
closed = 1;
nodes = (
(388,-5,q),
(388,-158,l),
(456,-158,l),
(456,-5,l),
(539,2,o),
(608,40,qs),
(691,86,o),
(787,249,o),
(787,451,o),
(691,614,o),
(524,706,o),
(316,706,o),
(147,613,o),
(52,451,o),
(52,249,o),
(147,87,o),
(232,40,qs),
(303,1,o)
);
}
);
width = 839;
}
);
note = uni03D8;
unicode = 984;
},
{
glyphname = uni03D9;
layers = (
{
layerId = m01;
shapes = (
{
closed = 1;
nodes = (
(169,109,o),
(118,203,o),
(118,323,o),
(169,417,o),
(258,468,o),
(370,468,o),
(459,417,o),
(509,323,o),
(509,203,o),
(459,109,o),
(370,58,o),
(258,58,o)
);
},
{
closed = 1;
nodes = (
(280,-3,q),
(280,-158,l),
(348,-158,l),
(348,-3,l),
(404,3,o),
(451,30,qs),
(512,64,o),
(581,186,o),
(581,340,o),
(512,462,o),
(390,530,o),
(238,530,o),
(116,462,o),
(46,340,o),
(46,186,o),
(116,64,o),
(177,30,qs),
(224,3,o)
);
}
);
width = 627;
}
);
note = uni03D9;
unicode = 985;
},
{
glyphname = uni03DA;
layers = (
{
layerId = m01;
shapes = (
{
closed = 1;
nodes = (
(672,704,l),
(419,706,ls),
(315,706,o),
(147,614,o),
(52,451,o),
(52,350,qs),
(52,249,o),
(147,86,o),
(230,42,qs),
(317,-2,o),
(421,-3,qs),
(659,-5,o),
(547,-181,q),
(615,-190,l),
(741,60,o),
(421,60,qs),
(338,60,o),
(202,136,o),
(125,268,o),
(125,350,qs),
(125,432,o),
(202,564,o),
(338,640,o),
(421,640,qs),
(672,640,l)
);
}
);
width = 740;
}
);
note = uni03DA;
unicode = 986;
},
{
glyphname = uni03DB;
layers = (
{
layerId = m01;
shapes = (
{
closed = 1;
nodes = (
(96,467,o),
(26,345,o),
(26,268,qs),
(26,191,o),
(96,68,o),
(217,0,o),
(300,0,qs),
(540,0,o),
(426,-178,q),
(494,-187,l),
(620,63,o),
(300,63,qs),
(238,63,o),
(149,114,o),
(98,207,o),
(98,268,qs),
(98,328,o),
(149,422,o),
(240,473,o),
(297,473,qs),
(516,473,l),
(516,535,l),
(297,535,o),
(297,535,q),
(219,535,o)
);
}
);
width = 563;
}
);
note = uni03DB;
unicode = 987;
},
{
glyphname = uni03DD;
layers = (
{
layerId = m01;
shapes = (
{
closed = 1;
nodes = (
(482,526,l),
(52,526,l),
(52,-195,l),
(126,-195,l),
(126,107,l),
(438,107,l),
(438,171,l),
(126,171,l),
(126,462,l),
(482,462,l)
);
}
);
width = 533;
}
);
note = uni03DD;
unicode = 989;
},
{
glyphname = uni03DE;
layers = (
{
layerId = m01;
shapes = (
{
closed = 1;
nodes = (
(496,330,l),
(374,0,l),
(444,0,l),
(586,390,l),
(136,390,l),
(233,700,l),
(164,700,l),
(52,330,l)
);
}
);
width = 638;
}
);
note = uni03DE;
unicode = 990;
},
{
glyphname = uni03DF;
layers = (
{
layerId = m01;
shapes = (
{
closed = 1;
nodes = (
(374,335,l),
(252,0,l),
(322,0,l),
(464,395,l),
(136,395,l),
(233,716,l),
(164,716,l),
(52,335,l)
);
}
);
width = 518;
}
);
note = uni03DF;
unicode = 991;
},
{
glyphname = uni03E0;
layers = (
{
layerId = m01;
shapes = (
{
closed = 1;
nodes = (
(518,-102,o),
(603,39,qs),
(679,165,o),
(680,349,qs),
(679,450,o),
(632,532,qs),
(587,611,o),
(500,659,qs),
(416,705,o),
(312,705,qs),
(234,705,o),
(168,679,qs),
(102,653,o),
(56,603,q),
(104,556,l),
(186,639,o),
(310,639,qs),
(394,639,o),
(462,601,qs),
(508,575,o),
(541,536,q),
(204,366,l),
(230,306,l),
(573,488,l),
(600,436,o),
(605,376,q),
(319,272,o),
(258,18,q),
(330,18,l),
(385,226,o),
(605,307,q),
(597,174,o),
(539,74,qs),
(474,-40,o),
(348,-130,q),
(387,-188,l)
);
}
);
width = 719;
}
);
note = uni03E0;
unicode = 992;
},
{
glyphname = uni03E1;
layers = (
{
layerId = m01;
shapes = (
{
closed = 1;
nodes = (
(528,-53,o),
(491,192,o),
(385,444,o),
(236,643,o),
(150,705,q),
(87,679,l),
(181,608,o),
(251,512,qs),
(285,466,o),
(315,412,q),
(88,317,l),
(113,258,l),
(345,355,l),
(360,324,o),
(373,291,qs),
(384,267,o),
(392,243,q),
(160,146,l),
(184,87,l),
(413,182,l),
(434,114,o),
(444,48,qs),
(463,-69,o),
(447,-185,q),
(510,-159,l)
);
}
);
width = 602;
}
);
note = uni03E1;
unicode = 993;
},
{
glyphname = uni03F0;
layers = (
{
layerId = m01;
shapes = (
{
closed = 1;
nodes = (
(282,286,o),
(282,384,qs),
(282,461,o),
(242,502,qs),
(202,542,o),
(128,542,qs),
(96,542,o),
(37,523,o),
(17,505,q),
(42,454,l),
(57,467,o),
(98,481,o),
(120,481,qs),
(164,481,o),
(211,432,o),
(211,385,qs),
(211,319,o),
(154,216,qs),
(34,0,l),
(114,0,l),
(464,379,l),
(370,249,o),
(370,151,qs),
(370,74,o),
(410,33,qs),
(450,-7,o),
(524,-7,qs),
(556,-7,o),
(615,12,o),
(635,30,q),
(610,81,l),
(595,68,o),
(554,54,o),
(532,54,qs),
(488,54,o),
(441,103,o),
(441,150,qs),
(441,216,o),
(498,319,qs),
(618,535,l),
(538,535,l),
(188,156,l)
);
}
);
width = 662;
}
);
note = uni03F0;
unicode = 1008;
},
{
glyphname = uni03F1;
layers = (
{
layerId = m01;
shapes = (
{
closed = 1;
nodes = (
(592,247,qs),
(592,324,o),
(525,443,o),
(405,509,o),
(327,509,qs),
(196,509,o),
(52,325,o),
(52,163,qs),
(52,43,o),
(114,-44,qs),
(180,-135,o),
(316,-166,qs),
(552,-220,l),
(564,-155,l),
(342,-104,ls),
(229,-78,o),
(123,47,o),
(120,120,q),
(152,59,o),
(266,-10,o),
(340,-10,qs),
(413,-10,o),
(528,55,o),
(592,172,o)
);
},
{
closed = 1;
nodes = (
(520,249,qs),
(520,191,o),
(472,103,o),
(385,54,o),
(329,54,qs),
(273,54,o),
(186,103,o),
(137,191,o),
(137,249,qs),
(137,307,o),
(186,399,o),
(274,450,o),
(329,450,qs),
(384,450,o),
(471,399,o),
(520,307,o)
);
}
);
width = 659;
}
);
note = uni03F1;
unicode = 1009;
},
{
glyphname = uni03FA;
layers = (
{
layerId = m01;
shapes = (
{
closed = 1;
nodes = (
(483,323,l),
(179,700,l),
(118,700,l),
(118,0,l),
(189,0,l),
(189,578,l),
(464,242,l),
(499,242,l),
(774,581,l),
(774,0,l),
(845,0,l),
(845,700,l),
(784,700,l)
);
}
);
width = 963;
}
);
note = uni03FA;
unicode = 1018;
},
{
glyphname = uni03FB;
layers = (
{
layerId = m01;
shapes = (
{
closed = 1;
nodes = (
(396,241,l),
(173,526,l),
(101,526,l),
(101,-185,l),
(166,-185,l),
(166,443,l),
(379,176,l),
(411,176,l),
(624,442,l),
(624,0,l),
(689,0,l),
(689,526,l),
(623,526,l)
);
}
);
width = 790;
}
);
note = uni03FB;
unicode = 1019;
},
{
glyphname = uni03FC;
layers = (
{
layerId = m01;
shapes = (
{
closed = 1;
nodes = (
(26,-54,l),
(26,-106,l),
(99,-106,l),
(99,-194,l),
(170,-194,l),
(170,-106,l),
(380,-106,l),
(380,-54,l),
(170,-54,l),
(170,99,l),
(203,48,o),
(306,-5,o),
(370,-5,qs),
(445,-5,o),
(564,62,o),
(632,184,o),
(632,263,qs),
(632,341,o),
(564,463,o),
(444,530,o),
(365,530,qs),
(289,530,o),
(167,462,o),
(99,340,o),
(99,263,qs),
(99,-54,l)
);
},
{
closed = 1;
nodes = (
(221,109,o),
(170,203,o),
(170,323,o),
(221,417,o),
(310,468,o),
(422,468,o),
(511,417,o),
(561,323,o),
(561,203,o),
(511,109,o),
(422,58,o),
(310,58,o)
);
}
);
width = 696;
}
);
note = uni03FC;
unicode = 1020;
},
{
glyphname = uni03FD;
layers = (
{
layerId = m01;
shapes = (
{
closed = 1;
nodes = (
(219,706,o),
(86,653,o),
(40,603,q),
(87,556,l),
(168,640,o),
(294,640,qs),
(377,640,o),
(513,564,o),
(590,432,o),
(590,350,qs),
(590,268,o),
(513,136,o),
(377,60,o),
(294,60,qs),
(169,60,o),
(87,143,q),
(40,96,l),
(86,46,o),
(218,-6,o),
(296,-6,qs),
(400,-6,o),
(568,86,o),
(663,249,o),
(663,350,qs),
(663,451,o),
(568,614,o),
(401,706,o),
(297,706,qs)
);
}
);
width = 719;
}
);
note = uni03FD;
unicode = 1021;
},
{
glyphname = uni0402;
kernLeft = T;
kernRight = uni0402;
layers = (
{
layerId = m01;
shapes = (
{
closed = 1;
nodes = (
(332,636,l),
(598,636,l),
(598,700,l),
(12,700,l),
(12,636,l),
(259,636,l),
(259,0,l),
(332,0,l),
(332,312,l),
(440,359,o),
(531,359,qs),
(613,359,o),
(710,282,o),
(710,207,qs),
(710,133,o),
(618,59,o),
(547,59,qs),
(509,59,o),
(480,67,q),
(470,5,l),
(517,-5,o),
(554,-5,qs),
(653,-5,o),
(783,104,o),
(783,209,qs),
(783,313,o),
(653,422,o),
(545,422,qs),
(447,422,o),
(332,378,q)
);
}
);
userData = {
assembly = "MPPEM[ ]	/* MeasurePixelPerEm */
PUSHB[ ]	/* 1 value pushed */
46 
LT[ ]	/* LessThan */
IF[ ]	/* If */
NPUSHB[ ]	/* 15 values pushed */
29 1 3 0 20 10 2 2 3 9 1 1 2 3 74 
ELSE[ ]	/* Else */
NPUSHB[ ]	/* 15 values pushed */
29 1 3 0 20 10 2 2 3 9 1 4 2 3 74 
EIF[ ]	/* EndIf */
MPPEM[ ]	/* MeasurePixelPerEm */
PUSHB[ ]	/* 1 value pushed */
46 
LT[ ]	/* LessThan */
IF[ ]	/* If */
NPUSHB[ ]	/* 31 values pushed */
0 0 0 3 2 0 3 103 7 1 5 5 6 93 0 6 6 32 75 0 2 2 1 95 4 1 1 1 40 1 76 
ELSE[ ]	/* Else */
NPUSHB[ ]	/* 35 values pushed */
0 0 0 3 2 0 3 103 7 1 5 5 6 93 0 6 6 32 75 0 4 4 33 75 0 2 2 1 95 0 1 1 40 1 76 
EIF[ ]	/* EndIf */
NPUSHB[ ]	/* 11 values pushed */
17 17 17 18 36 35 36 32 8 7 28 
CALL[ ]	/* CallFunction */";
};
width = 825;
}
);
note = uni0402;
unicode = 1026;
},
{
glyphname = uni0406;
kernLeft = B;
kernRight = H;
layers = (
{
layerId = m01;
shapes = (
{
closed = 1;
nodes = (
(191,0,l),
(191,700,l),
(118,700,l),
(118,0,l)
);
}
);
userData = {
assembly = "NPUSHB[ ]	/* 16 values pushed */
0 0 0 32 75 0 1 1 33 1 76 17 16 2 7 22 
CALL[ ]	/* CallFunction */";
};
width = 309;
}
);
note = uni0406;
unicode = 1030;
},
{
glyphname = uni040A;
kernLeft = B;
kernRight = uni0409;
layers = (
{
layerId = m01;
shapes = (
{
closed = 1;
nodes = (
(687,415,l),
(687,700,l),
(614,700,l),
(614,412,l),
(191,412,l),
(191,700,l),
(118,700,l),
(118,0,l),
(191,0,l),
(191,348,l),
(614,348,l),
(614,0,l),
(891,0,ls),
(1010,0,o),
(1144,113,o),
(1144,213,qs),
(1144,309,o),
(1018,415,o),
(905,415,qs)
);
},
{
closed = 1;
nodes = (
(687,59,l),
(687,355,l),
(887,355,ls),
(975,355,o),
(1070,280,o),
(1070,210,qs),
(1070,139,o),
(974,59,o),
(887,59,qs)
);
}
);
userData = {
assembly = "MPPEM[ ]	/* MeasurePixelPerEm */
PUSHB[ ]	/* 1 value pushed */
33 
LT[ ]	/* LessThan */
IF[ ]	/* If */
NPUSHB[ ]	/* 30 values pushed */
9 6 2 4 7 1 1 8 4 1 101 5 1 3 3 32 75 10 1 8 8 0 93 2 1 0 0 33 0 76 
ELSE[ ]	/* Else */
NPUSHB[ ]	/* 35 values pushed */
0 7 1 4 7 85 9 6 2 4 0 1 8 4 1 101 5 1 3 3 32 75 10 1 8 8 0 93 2 1 0 0 33 0 76 
EIF[ ]	/* EndIf */
NPUSHB[ ]	/* 23 values pushed */
19 19 0 0 19 27 19 26 25 23 0 18 0 17 17 17 17 17 17 36 11 7 26 
CALL[ ]	/* CallFunction */";
};
width = 1184;
}
);
note = uni040A;
unicode = 1034;
},
{
glyphname = uni040B;
kernLeft = T;
kernRight = uni0402;
layers = (
{
layerId = m01;
shapes = (
{
closed = 1;
nodes = (
(443,420,o),
(330,373,q),
(330,636,l),
(594,636,l),
(594,700,l),
(11,700,l),
(11,636,l),
(257,636,l),
(257,0,l),
(330,0,l),
(330,305,l),
(441,354,o),
(528,354,qs),
(613,354,o),
(709,268,o),
(709,187,qs),
(709,0,l),
(782,0,l),
(782,195,ls),
(782,306,o),
(654,420,o),
(542,420,qs)
);
}
);
userData = {
assembly = "NPUSHB[ ]	/* 52 values pushed */
19 1 1 6 10 1 0 1 2 74 7 1 6 0 1 0 6 1 103 5 1 3 3 4 93 0 4 4 32 75 2 1 0 0 33 0 76 0 0 0 21 0 20 17 17 17 18 35 19 8 7 26 
CALL[ ]	/* CallFunction */";
};
width = 835;
}
);
note = uni040B;
unicode = 1035;
},
{
glyphname = uni040F;
kernLeft = B;
kernRight = H;
layers = (
{
layerId = m01;
shapes = (
{
closed = 1;
nodes = (
(614,700,l),
(614,64,l),
(191,64,l),
(191,700,l),
(118,700,l),
(118,0,l),
(368,0,l),
(368,-164,l),
(437,-164,l),
(437,0,l),
(687,0,l),
(687,700,l)
);
}
);
userData = {
assembly = "NPUSHB[ ]	/* 32 values pushed */
0 1 0 1 132 5 1 3 3 32 75 0 4 4 0 93 2 1 0 0 33 0 76 17 17 17 17 17 16 6 7 26 
CALL[ ]	/* CallFunction */";
};
width = 806;
}
);
note = uni040F;
unicode = 1039;
},
{
glyphname = uni0411;
kernLeft = B;
layers = (
{
layerId = m01;
shapes = (
{
closed = 1;
nodes = (
(404,0,ls),
(534,0,o),
(673,108,o),
(673,209,qs),
(673,306,o),
(544,408,o),
(420,408,qs),
(191,408,l),
(191,637,l),
(630,637,l),
(630,700,l),
(118,700,l),
(118,0,l)
);
},
{
closed = 1;
nodes = (
(191,349,l),
(403,349,ls),
(502,349,o),
(599,278,o),
(599,206,qs),
(599,133,o),
(500,59,o),
(403,59,qs),
(191,59,l)
);
}
);
userData = {
assembly = "NPUSHB[ ]	/* 45 values pushed */
0 2 0 5 4 2 5 101 0 1 1 0 93 0 0 0 32 75 6 1 4 4 3 93 0 3 3 33 3 76 14 13 20 18 13 21 14 21 36 33 17 16 7 7 24 
CALL[ ]	/* CallFunction */";
};
width = 727;
}
);
note = uni0411;
unicode = 1041;
},
{
glyphname = uni0412;
kernLeft = B;
kernRight = B;
layers = (
{
layerId = m01;
shapes = (
{
closed = 1;
nodes = (
(587,381,o),
(647,462,o),
(647,521,qs),
(647,608,o),
(521,700,o),
(409,700,qs),
(118,700,l),
(118,0,l),
(428,0,ls),
(553,0,o),
(682,98,o),
(682,189,qs),
(682,259,o),
(606,346,o),
(533,361,q)
);
},
{
closed = 1;
nodes = (
(405,641,ls),
(486,641,o),
(573,575,o),
(573,512,qs),
(573,449,o),
(486,383,o),
(405,383,qs),
(191,383,l),
(191,641,l)
);
},
{
closed = 1;
nodes = (
(191,59,l),
(191,326,l),
(428,326,ls),
(609,326,o),
(609,194,qs),
(609,59,o),
(428,59,qs)
);
}
);
userData = {
assembly = "NPUSHB[ ]	/* 50 values pushed */
14 1 4 2 1 74 0 2 0 4 5 2 4 101 0 3 3 1 93 0 1 1 32 75 6 1 5 5 0 93 0 0 0 33 0 76 24 24 24 30 24 29 35 36 38 33 36 7 7 25 
CALL[ ]	/* CallFunction */";
};
width = 749;
}
);
note = uni0412;
unicode = 1042;
},
{
glyphname = uni0413;
kernLeft = B;
kernRight = uni0403;
layers = (
{
layerId = m01;
shapes = (
{
closed = 1;
nodes = (
(118,700,l),
(118,0,l),
(191,0,l),
(190,636,l),
(563,636,l),
(563,700,l)
);
}
);
userData = {
assembly = "NPUSHB[ ]	/* 22 values pushed */
0 0 0 2 93 0 2 2 32 75 0 1 1 33 1 76 17 17 16 3 7 23 
CALL[ ]	/* CallFunction */";
};
width = 572;
}
);
note = uni0413;
unicode = 1043;
},
{
glyphname = uni0414;
kernLeft = uni0409;
kernRight = uni0414;
layers = (
{
layerId = m01;
shapes = (
{
closed = 1;
nodes = (
(656,700,l),
(184,700,l),
(176,473,ls),
(170,279,o),
(116,68,o),
(47,64,qs),
(12,64,l),
(11,-157,l),
(80,-157,l),
(81,0,l),
(692,0,l),
(692,-157,l),
(761,-157,l),
(761,64,l),
(656,64,l)
);
},
{
closed = 1;
nodes = (
(248,636,l),
(583,636,l),
(583,64,l),
(152,64,l),
(198,99,o),
(237,306,o),
(242,466,qs)
);
}
);
userData = {
assembly = "NPUSHB[ ]	/* 48 values pushed */
2 1 0 1 0 132 0 7 7 4 93 0 4 4 32 75 6 8 5 3 3 3 1 93 0 1 1 33 1 76 0 0 20 19 18 17 0 14 0 14 19 33 17 17 17 9 7 25 
CALL[ ]	/* CallFunction */";
};
width = 794;
}
);
note = uni0414;
unicode = 1044;
},
{
glyphname = uni0416;
kernLeft = X;
kernRight = X;
layers = (
{
layerId = m01;
shapes = (
{
closed = 1;
nodes = (
(987,0,l),
(747,361,l),
(969,700,l),
(889,700,l),
(687,386,l),
(542,386,l),
(542,700,l),
(470,700,l),
(470,386,l),
(323,386,l),
(122,700,l),
(42,700,l),
(264,361,l),
(24,0,l),
(110,0,l),
(324,321,l),
(470,321,l),
(470,0,l),
(542,0,l),
(542,321,l),
(687,321,l),
(901,0,l)
);
}
);
userData = {
assembly = "NPUSHB[ ]	/* 46 values pushed */
19 8 2 0 5 1 74 7 1 5 2 1 0 1 5 0 101 8 6 2 4 4 32 75 9 3 2 1 1 33 1 76 21 20 17 17 17 17 18 17 17 17 16 10 7 29 
CALL[ ]	/* CallFunction */";
};
width = 1011;
}
);
note = uni0416;
unicode = 1046;
},
{
glyphname = uni0417;
kernLeft = uni01B7;
kernRight = B;
layers = (
{
layerId = m01;
shapes = (
{
closed = 1;
nodes = (
(478,383,o),
(540,464,o),
(540,520,qs),
(540,578,o),
(471,664,o),
(353,710,o),
(282,710,qs),
(161,710,o),
(57,648,q),
(82,587,l),
(128,616,o),
(230,645,o),
(280,645,qs),
(360,645,o),
(466,574,o),
(466,512,qs),
(466,456,o),
(383,393,o),
(309,393,qs),
(163,393,l),
(163,333,l),
(313,333,ls),
(400,333,o),
(496,267,o),
(496,206,qs),
(496,160,o),
(439,93,o),
(343,57,o),
(286,57,qs),
(226,57,o),
(108,98,o),
(62,137,q),
(35,84,l),
(89,39,o),
(224,-6,o),
(294,-6,qs),
(368,-6,o),
(494,43,o),
(570,135,o),
(570,196,qs),
(570,259,o),
(491,349,o),
(422,366,q)
);
}
);
userData = {
assembly = "NPUSHB[ ]	/* 57 values pushed */
33 1 4 5 32 1 3 4 42 1 2 3 10 9 2 1 2 4 74 0 3 0 2 1 3 2 101 0 4 4 5 95 0 5 5 37 75 0 1 1 0 95 0 0 0 38 0 76 36 36 33 37 37 37 6 7 26 
CALL[ ]	/* CallFunction */";
};
width = 636;
}
);
note = uni0417;
unicode = 1047;
},
{
glyphname = uni0418;
kernLeft = B;
kernRight = H;
layers = (
{
layerId = m01;
shapes = (
{
closed = 1;
nodes = (
(185,0,l),
(633,579,l),
(633,0,l),
(706,0,l),
(706,700,l),
(639,700,l),
(191,120,l),
(191,700,l),
(118,700,l),
(118,0,l)
);
}
);
userData = {
assembly = "NPUSHB[ ]	/* 27 values pushed */
7 2 2 2 0 1 74 1 1 0 0 32 75 3 1 2 2 33 2 76 18 17 18 16 4 7 24 
CALL[ ]	/* CallFunction */";
};
width = 824;
}
);
note = uni0418;
unicode = 1048;
},
{
glyphname = uni041A;
kernLeft = B;
kernRight = X;
layers = (
{
layerId = m01;
shapes = (
{
closed = 1;
nodes = (
(682,0,l),
(407,360,l),
(667,700,l),
(587,700,l),
(350,386,l),
(190,386,l),
(190,700,l),
(118,700,l),
(118,0,l),
(190,0,l),
(190,321,l),
(350,321,l),
(597,0,l)
);
}
);
userData = {
assembly = "NPUSHB[ ]	/* 36 values pushed */
10 1 0 3 1 74 0 3 0 0 1 3 0 101 4 1 2 2 32 75 5 1 1 1 33 1 76 18 17 17 17 17 16 6 7 26 
CALL[ ]	/* CallFunction */";
};
width = 702;
}
);
note = uni041A;
unicode = 1050;
},
{
glyphname = uni041B;
kernLeft = uni0409;
kernRight = H;
layers = (
{
layerId = m01;
shapes = (
{
closed = 1;
nodes = (
(182,400,ls),
(177,279,o),
(149,132,o),
(94,62,o),
(50,62,qs),
(34,62,o),
(17,66,q),
(11,0,l),
(40,-7,o),
(67,-7,qs),
(130,-7,o),
(206,80,o),
(243,257,o),
(248,402,qs),
(256,636,l),
(594,636,l),
(594,0,l),
(667,0,l),
(667,700,l),
(192,700,l)
);
}
);
userData = {
assembly = "MPPEM[ ]	/* MeasurePixelPerEm */
PUSHB[ ]	/* 1 value pushed */
33 
LT[ ]	/* LessThan */
IF[ ]	/* If */
NPUSHB[ ]	/* 10 values pushed */
12 1 3 1 1 74 11 1 0 71 
ELSE[ ]	/* Else */
NPUSHB[ ]	/* 11 values pushed */
12 1 3 1 1 74 11 1 0 1 73 
EIF[ ]	/* EndIf */
MPPEM[ ]	/* MeasurePixelPerEm */
PUSHB[ ]	/* 1 value pushed */
33 
LT[ ]	/* LessThan */
IF[ ]	/* If */
NPUSHB[ ]	/* 23 values pushed */
0 1 1 4 93 5 1 4 4 32 75 0 3 3 0 95 2 1 0 0 33 0 76 
ELSE[ ]	/* Else */
NPUSHB[ ]	/* 27 values pushed */
0 1 1 4 93 5 1 4 4 32 75 0 0 0 33 75 0 3 3 2 95 0 2 2 38 2 76 
EIF[ ]	/* EndIf */
NPUSHB[ ]	/* 13 values pushed */
0 0 0 19 0 19 35 36 17 17 6 7 24 
CALL[ ]	/* CallFunction */";
};
width = 785;
}
);
note = uni041B;
unicode = 1051;
},
{
glyphname = uni041C;
kernLeft = B;
kernRight = H;
layers = (
{
layerId = m01;
shapes = (
{
closed = 1;
nodes = (
(483,181,l),
(179,700,l),
(118,700,l),
(118,0,l),
(189,0,l),
(189,557,l),
(464,89,l),
(499,89,l),
(774,560,l),
(774,0,l),
(845,0,l),
(845,700,l),
(784,700,l)
);
}
);
userData = {
assembly = "NPUSHB[ ]	/* 43 values pushed */
11 6 3 3 1 3 1 74 0 1 3 0 3 1 0 126 5 4 2 3 3 32 75 2 1 0 0 33 0 76 0 0 0 12 0 12 17 18 18 17 6 7 24 
CALL[ ]	/* CallFunction */";
};
width = 963;
}
);
note = uni041C;
unicode = 1052;
},
{
glyphname = uni041F;
kernLeft = B;
kernRight = H;
layers = (
{
layerId = m01;
shapes = (
{
closed = 1;
nodes = (
(118,0,l),
(191,0,l),
(191,636,l),
(634,636,l),
(634,0,l),
(707,0,l),
(707,700,l),
(118,700,l)
);
}
);
userData = {
assembly = "NPUSHB[ ]	/* 30 values pushed */
0 1 1 3 93 4 1 3 3 32 75 2 1 0 0 33 0 76 0 0 0 7 0 7 17 17 17 5 7 23 
CALL[ ]	/* CallFunction */";
};
width = 825;
}
);
note = uni041F;
unicode = 1055;
},
{
glyphname = uni0422;
kernLeft = T;
kernRight = T;
layers = (
{
layerId = m01;
shapes = (
{
closed = 1;
nodes = (
(11,700,l),
(11,636,l),
(257,636,l),
(257,0,l),
(330,0,l),
(330,636,l),
(576,636,l),
(576,700,l)
);
}
);
userData = {
assembly = "NPUSHB[ ]	/* 24 values pushed */
2 1 0 0 3 93 0 3 3 32 75 0 1 1 33 1 76 17 17 17 16 4 7 24 
CALL[ ]	/* CallFunction */";
};
width = 588;
}
);
note = uni0422;
unicode = 1058;
},
{
glyphname = uni0423;
kernLeft = X;
kernRight = V;
layers = (
{
layerId = m01;
shapes = (
{
closed = 1;
nodes = (
(344,226,l),
(100,700,l),
(21,700,l),
(305,161,l),
(285,127,ls),
(241,52,o),
(172,52,qs),
(142,52,o),
(106,66,q),
(85,6,l),
(131,-13,o),
(171,-13,qs),
(225,-13,o),
(316,48,o),
(350,111,qs),
(668,700,l),
(594,700,l)
);
}
);
userData = {
assembly = "NPUSHB[ ]	/* 42 values pushed */
15 12 7 3 1 2 6 1 0 1 2 74 4 3 2 2 2 32 75 0 1 1 0 95 0 0 0 38 0 76 0 0 0 16 0 16 19 35 35 5 7 23 
CALL[ ]	/* CallFunction */";
};
width = 680;
}
);
note = uni0423;
unicode = 1059;
},
{
glyphname = uni0424;
kernLeft = at;
kernRight = at;
layers = (
{
layerId = m01;
shapes = (
{
closed = 1;
nodes = (
(669,624,o),
(493,630,q),
(493,700,l),
(424,700,l),
(424,630,l),
(247,624,o),
(50,466,o),
(50,351,qs),
(50,236,o),
(247,78,o),
(424,72,q),
(424,0,l),
(493,0,l),
(493,72,l),
(670,77,o),
(867,236,o),
(867,465,o)
);
},
{
closed = 1;
nodes = (
(493,570,l),
(637,565,o),
(796,439,o),
(796,351,qs),
(796,263,o),
(638,137,o),
(493,131,q)
);
},
{
closed = 1;
nodes = (
(121,439,o),
(278,564,o),
(424,570,q),
(424,131,l),
(280,138,o),
(121,263,o),
(121,351,qs)
);
}
);
width = 917;
}
);
note = uni0424;
unicode = 1060;
},
{
glyphname = uni0425;
kernLeft = X;
kernRight = X;
layers = (
{
layerId = m01;
shapes = (
{
closed = 1;
nodes = (
(279,361,l),
(22,0,l),
(107,0,l),
(324,301,l),
(541,0,l),
(628,0,l),
(370,364,l),
(609,700,l),
(522,700,l),
(324,423,l),
(125,700,l),
(40,700,l)
);
}
);
userData = {
assembly = "NPUSHB[ ]	/* 35 values pushed */
10 7 4 1 4 1 0 1 74 4 3 2 0 0 32 75 2 1 1 1 33 1 76 0 0 0 11 0 11 18 18 18 5 7 23 
CALL[ ]	/* CallFunction */";
};
width = 650;
}
);
note = uni0425;
unicode = 1061;
},
{
glyphname = uni0426;
kernLeft = B;
kernRight = uni0414;
layers = (
{
layerId = m01;
shapes = (
{
closed = 1;
nodes = (
(687,700,l),
(614,700,l),
(614,64,l),
(191,64,l),
(191,700,l),
(118,700,l),
(118,0,l),
(729,0,l),
(729,-164,l),
(798,-164,l),
(798,64,l),
(687,64,l)
);
}
);
userData = {
assembly = "NPUSHB[ ]	/* 38 values pushed */
0 0 1 0 132 4 1 2 2 32 75 6 5 2 3 3 1 93 0 1 1 33 1 76 0 0 0 11 0 11 17 17 17 17 17 7 7 25 
CALL[ ]	/* CallFunction */";
};
width = 827;
}
);
note = uni0426;
unicode = 1062;
},
{
glyphname = uni0427;
kernLeft = uni0427;
kernRight = H;
layers = (
{
layerId = m01;
shapes = (
{
closed = 1;
nodes = (
(540,356,l),
(431,306,o),
(326,306,qs),
(234,306,o),
(132,396,o),
(132,477,qs),
(132,700,l),
(59,700,l),
(59,469,ls),
(59,361,o),
(196,241,o),
(319,241,qs),
(426,241,o),
(540,290,q),
(540,0,l),
(612,0,l),
(612,700,l),
(540,700,l)
);
}
);
userData = {
assembly = "NPUSHB[ ]	/* 44 values pushed */
16 1 3 2 3 1 1 3 2 74 0 3 0 1 0 3 1 103 5 4 2 2 2 32 75 0 0 0 33 0 76 0 0 0 17 0 17 35 19 34 17 6 7 24 
CALL[ ]	/* CallFunction */";
};
width = 731;
}
);
note = uni0427;
unicode = 1063;
},
{
glyphname = uni0428;
kernLeft = B;
kernRight = H;
layers = (
{
layerId = m01;
shapes = (
{
closed = 1;
nodes = (
(903,64,l),
(584,64,l),
(584,700,l),
(511,700,l),
(511,64,l),
(191,64,l),
(191,700,l),
(118,700,l),
(118,0,l),
(976,0,l),
(976,700,l),
(903,700,l)
);
}
);
userData = {
assembly = "NPUSHB[ ]	/* 34 values pushed */
6 5 3 3 1 1 32 75 4 1 2 2 0 93 0 0 0 33 0 76 0 0 0 11 0 11 17 17 17 17 17 7 7 25 
CALL[ ]	/* CallFunction */";
};
width = 1094;
}
);
note = uni0428;
unicode = 1064;
},
{
glyphname = uni042A;
kernLeft = T;
kernRight = uni0409;
layers = (
{
layerId = m01;
shapes = (
{
closed = 1;
nodes = (
(302,450,l),
(302,700,l),
(11,700,l),
(11,636,l),
(229,636,l),
(229,0,l),
(506,0,ls),
(637,0,o),
(776,117,o),
(776,230,qs),
(776,338,o),
(646,450,o),
(522,450,qs)
);
},
{
closed = 1;
nodes = (
(302,59,l),
(302,390,l),
(505,390,ls),
(703,390,o),
(703,229,qs),
(703,145,o),
(602,59,o),
(505,59,qs)
);
}
);
userData = {
assembly = "NPUSHB[ ]	/* 51 values pushed */
6 1 3 0 4 5 3 4 101 0 1 1 2 93 0 2 2 32 75 7 1 5 5 0 93 0 0 0 33 0 76 13 13 0 0 13 20 13 19 18 16 0 12 0 11 17 17 36 8 7 23 
CALL[ ]	/* CallFunction */";
};
width = 820;
}
);
note = uni042A;
unicode = 1066;
},
{
glyphname = uni042C;
kernLeft = B;
kernRight = uni0409;
layers = (
{
layerId = m01;
shapes = (
{
closed = 1;
nodes = (
(191,450,l),
(191,700,l),
(118,700,l),
(118,0,l),
(396,0,ls),
(527,0,o),
(666,117,o),
(666,230,qs),
(666,338,o),
(535,450,o),
(411,450,qs)
);
},
{
closed = 1;
nodes = (
(191,59,l),
(191,390,l),
(394,390,ls),
(592,390,o),
(592,229,qs),
(592,145,o),
(491,59,o),
(394,59,qs)
);
}
);
userData = {
assembly = "NPUSHB[ ]	/* 45 values pushed */
5 1 2 0 3 4 2 3 101 0 1 1 32 75 6 1 4 4 0 93 0 0 0 33 0 76 11 11 0 0 11 18 11 17 16 14 0 10 0 9 17 36 7 7 22 
CALL[ ]	/* CallFunction */";
};
width = 710;
}
);
note = uni042C;
unicode = 1068;
},
{
glyphname = uni042D;
kernLeft = uni01B7;
kernRight = at;
layers = (
{
layerId = m01;
shapes = (
{
closed = 1;
nodes = (
(217,706,o),
(81,654,o),
(35,603,q),
(81,556,l),
(164,640,o),
(296,640,qs),
(368,640,o),
(488,575,o),
(563,460,o),
(571,387,q),
(211,387,l),
(211,326,l),
(572,326,l),
(567,250,o),
(492,129,o),
(370,60,o),
(296,60,qs),
(164,60,o),
(81,144,q),
(35,97,l),
(81,46,o),
(217,-6,o),
(299,-6,qs),
(397,-6,o),
(556,86,o),
(647,249,o),
(647,350,qs),
(647,451,o),
(556,614,o),
(397,706,o),
(299,706,qs)
);
}
);
userData = {
assembly = "NPUSHB[ ]	/* 56 values pushed */
27 26 2 3 4 11 10 2 1 2 2 74 0 3 0 2 1 3 2 101 0 4 4 5 95 6 1 5 5 37 75 0 1 1 0 95 0 0 0 38 0 76 0 0 0 30 0 29 35 17 19 36 38 7 7 25 
CALL[ ]	/* CallFunction */";
};
width = 706;
}
);
note = uni042D;
unicode = 1069;
},
{
glyphname = uni042E;
kernLeft = B;
kernRight = at;
layers = (
{
layerId = m01;
shapes = (
{
closed = 1;
nodes = (
(591,706,o),
(439,625,o),
(344,480,o),
(336,389,q),
(191,389,l),
(191,700,l),
(118,700,l),
(118,0,l),
(191,0,l),
(191,322,l),
(335,322,l),
(341,228,o),
(435,78,o),
(589,-6,o),
(683,-6,qs),
(782,-6,o),
(942,86,o),
(1033,249,o),
(1033,350,qs),
(1033,451,o),
(942,614,o),
(782,706,o),
(683,706,qs)
);
},
{
closed = 1;
nodes = (
(606,60,o),
(480,135,o),
(408,267,o),
(408,350,qs),
(408,433,o),
(480,565,o),
(606,640,o),
(683,640,qs),
(761,640,o),
(887,565,o),
(959,433,o),
(959,350,qs),
(959,267,o),
(887,135,o),
(761,60,o),
(683,60,qs)
);
}
);
userData = {
assembly = "MPPEM[ ]	/* MeasurePixelPerEm */
PUSHB[ ]	/* 1 value pushed */
39 
LT[ ]	/* LessThan */
IF[ ]	/* If */
NPUSHB[ ]	/* 33 values pushed */
0 4 0 1 7 4 1 101 0 6 6 3 95 8 5 2 3 3 32 75 9 1 7 7 0 95 2 1 0 0 38 0 76 
ELSE[ ]	/* Else */
NPUSHB[ ]	/* 41 values pushed */
0 4 0 1 7 4 1 101 0 3 3 32 75 0 6 6 5 95 8 1 5 5 37 75 0 2 2 33 75 9 1 7 7 0 95 0 0 0 38 0 76 
EIF[ ]	/* EndIf */
NPUSHB[ ]	/* 22 values pushed */
23 23 0 0 23 38 23 37 31 29 0 22 0 21 17 17 17 19 38 10 7 25 
CALL[ ]	/* CallFunction */";
};
width = 1092;
}
);
note = uni042E;
unicode = 1070;
},
{
glyphname = uni042F;
kernLeft = X;
kernRight = H;
layers = (
{
layerId = m01;
shapes = (
{
closed = 1;
nodes = (
(215,700,o),
(66,570,o),
(66,452,qs),
(66,367,o),
(148,250,o),
(225,227,q),
(66,0,l),
(145,0,l),
(292,214,l),
(318,212,o),
(332,212,qs),
(541,212,l),
(541,0,l),
(614,0,l),
(614,700,l),
(342,700,ls)
);
},
{
closed = 1;
nodes = (
(140,543,o),
(247,636,o),
(345,636,qs),
(541,636,l),
(541,275,l),
(338,275,ls),
(241,275,o),
(140,368,o),
(140,454,qs)
);
}
);
userData = {
assembly = "NPUSHB[ ]	/* 48 values pushed */
9 1 1 4 1 74 0 4 0 1 0 4 1 101 0 5 5 3 93 6 1 3 3 32 75 2 1 0 0 33 0 76 0 0 22 20 19 17 0 15 0 14 18 33 17 7 7 23 
CALL[ ]	/* CallFunction */";
};
width = 732;
}
);
note = uni042F;
unicode = 1071;
},
{
glyphname = uni0431;
kernLeft = at;
kernRight = b;
layers = (
{
layerId = m01;
shapes = (
{
closed = 1;
nodes = (
(282,513,o),
(168,444,o),
(136,383,q),
(141,507,o),
(247,634,o),
(360,659,qs),
(582,710,l),
(570,775,l),
(334,721,ls),
(197,689,o),
(68,509,o),
(68,340,qs),
(68,178,o),
(212,-6,o),
(343,-6,qs),
(421,-6,o),
(541,60,o),
(608,179,o),
(608,256,qs),
(608,331,o),
(544,448,o),
(429,513,o),
(356,513,qs)
);
},
{
closed = 1;
nodes = (
(290,53,o),
(202,104,o),
(153,196,o),
(153,254,qs),
(153,312,o),
(202,400,o),
(289,449,o),
(345,449,qs),
(401,449,o),
(488,400,o),
(536,312,o),
(536,254,qs),
(536,196,o),
(487,104,o),
(400,53,o),
(345,53,qs)
);
}
);
userData = {
assembly = "NPUSHB[ ]	/* 10 values pushed */
19 1 3 2 1 74 14 1 1 72 
MPPEM[ ]	/* MeasurePixelPerEm */
PUSHB[ ]	/* 1 value pushed */
39 
LT[ ]	/* LessThan */
IF[ ]	/* If */
NPUSHB[ ]	/* 23 values pushed */
0 2 2 1 95 4 1 1 1 34 75 5 1 3 3 0 95 0 0 0 38 0 76 
ELSE[ ]	/* Else */
NPUSHB[ ]	/* 21 values pushed */
4 1 1 0 2 3 1 2 103 5 1 3 3 0 95 0 0 0 38 0 76 
EIF[ ]	/* EndIf */
NPUSHB[ ]	/* 18 values pushed */
23 23 0 0 23 38 23 37 31 29 0 22 0 21 38 6 7 21 
CALL[ ]	/* CallFunction */";
};
width = 659;
}
);
note = uni0431;
unicode = 1073;
},
{
glyphname = uni0432;
kernLeft = i;
kernRight = uni01EF;
layers = (
{
layerId = m01;
shapes = (
{
closed = 1;
nodes = (
(478,287,o),
(525,348,o),
(525,391,qs),
(525,456,o),
(423,526,o),
(333,526,qs),
(101,526,l),
(101,0,l),
(340,0,ls),
(441,0,o),
(543,74,o),
(543,143,qs),
(543,247,o),
(436,272,q)
);
},
{
closed = 1;
nodes = (
(328,470,ls),
(389,470,o),
(454,426,o),
(454,382,qs),
(454,338,o),
(389,292,o),
(328,292,qs),
(170,292,l),
(170,470,l)
);
},
{
closed = 1;
nodes = (
(170,56,l),
(170,239,l),
(344,239,ls),
(411,239,o),
(473,194,o),
(473,147,qs),
(473,100,o),
(405,56,o),
(337,56,qs)
);
}
);
userData = {
assembly = "NPUSHB[ ]	/* 50 values pushed */
13 1 4 2 1 74 0 2 0 4 5 2 4 101 0 3 3 1 93 0 1 1 34 75 6 1 5 5 0 93 0 0 0 33 0 76 23 23 23 31 23 30 37 36 38 33 35 7 7 25 
CALL[ ]	/* CallFunction */";
};
width = 608;
}
);
note = uni0432;
unicode = 1074;
},
{
glyphname = uni0433;
kernLeft = i;
kernRight = uni0433;
layers = (
{
layerId = m01;
shapes = (
{
closed = 1;
nodes = (
(101,526,l),
(101,0,l),
(172,0,l),
(172,463,l),
(473,463,l),
(473,526,l)
);
}
);
userData = {
assembly = "NPUSHB[ ]	/* 22 values pushed */
0 0 0 2 93 0 2 2 34 75 0 1 1 33 1 76 17 17 16 3 7 23 
CALL[ ]	/* CallFunction */";
};
width = 475;
}
);
note = uni0433;
unicode = 1075;
},
{
glyphname = uni0434;
kernLeft = uni0434;
kernRight = g;
layers = (
{
layerId = m01;
shapes = (
{
closed = 1;
nodes = (
(532,526,l),
(144,526,l),
(137,350,ls),
(130,215,o),
(92,65,o),
(39,62,qs),
(9,62,l),
(9,-127,l),
(76,-127,l),
(76,0,l),
(547,0,l),
(547,-127,l),
(614,-127,l),
(614,62,l),
(532,62,l)
);
},
{
closed = 1;
nodes = (
(208,463,l),
(461,463,l),
(461,62,l),
(133,62,l),
(169,89,o),
(197,234,o),
(202,346,qs)
);
}
);
userData = {
assembly = "MPPEM[ ]	/* MeasurePixelPerEm */
PUSHB[ ]	/* 1 value pushed */
10 
LT[ ]	/* LessThan */
IF[ ]	/* If */
NPUSHB[ ]	/* 31 values pushed */
2 1 0 1 1 0 111 0 7 7 4 93 0 4 4 34 75 6 8 5 3 3 3 1 93 0 1 1 33 1 76 
ELSE[ ]	/* Else */
NPUSHB[ ]	/* 30 values pushed */
2 1 0 1 0 132 0 7 7 4 93 0 4 4 34 75 6 8 5 3 3 3 1 93 0 1 1 33 1 76 
EIF[ ]	/* EndIf */
NPUSHB[ ]	/* 18 values pushed */
0 0 20 19 18 17 0 14 0 14 19 33 17 17 17 9 7 25 
CALL[ ]	/* CallFunction */";
};
width = 651;
}
);
note = uni0434;
unicode = 1076;
},
{
glyphname = uni0436;
kernLeft = x;
kernRight = x;
layers = (
{
layerId = m01;
shapes = (
{
closed = 1;
nodes = (
(809,0,l),
(620,270,l),
(794,526,l),
(717,526,l),
(562,295,l),
(448,295,l),
(448,526,l),
(377,526,l),
(377,295,l),
(263,295,l),
(109,526,l),
(32,526,l),
(206,271,l),
(17,0,l),
(102,0,l),
(263,234,l),
(377,234,l),
(377,0,l),
(448,0,l),
(448,234,l),
(562,234,l),
(724,0,l)
);
}
);
userData = {
assembly = "NPUSHB[ ]	/* 46 values pushed */
19 8 2 0 5 1 74 7 1 5 2 1 0 1 5 0 101 8 6 2 4 4 34 75 9 3 2 1 1 33 1 76 21 20 17 17 17 17 18 17 17 17 16 10 7 29 
CALL[ ]	/* CallFunction */";
};
width = 826;
}
);
note = uni0436;
unicode = 1078;
},
{
glyphname = uni0437;
kernLeft = uni01EF;
kernRight = uni01EF;
layers = (
{
layerId = m01;
shapes = (
{
closed = 1;
nodes = (
(404,289,o),
(459,351,o),
(459,391,qs),
(459,433,o),
(404,497,o),
(307,532,o),
(247,532,qs),
(146,532,o),
(52,483,q),
(72,428,l),
(155,471,o),
(240,471,qs),
(305,471,o),
(386,423,o),
(386,381,qs),
(386,343,o),
(314,298,o),
(255,298,qs),
(169,298,l),
(169,246,l),
(259,246,ls),
(325,246,o),
(401,199,o),
(401,157,qs),
(401,110,o),
(308,55,o),
(235,55,qs),
(186,55,o),
(90,85,o),
(54,112,q),
(30,59,l),
(71,27,o),
(181,-6,o),
(238,-6,qs),
(303,-6,o),
(411,33,o),
(474,105,o),
(474,151,qs),
(474,197,o),
(413,261,o),
(357,274,q)
);
}
);
userData = {
assembly = "NPUSHB[ ]	/* 57 values pushed */
31 1 4 5 30 1 3 4 40 1 2 3 10 9 2 1 2 4 74 0 3 0 2 1 3 2 101 0 4 4 5 95 0 5 5 39 75 0 1 1 0 95 0 0 0 38 0 76 35 36 33 36 37 37 6 7 26 
CALL[ ]	/* CallFunction */";
};
width = 534;
}
);
note = uni0437;
unicode = 1079;
},
{
glyphname = uni0438;
kernLeft = i;
kernRight = g;
layers = (
{
layerId = m01;
shapes = (
{
closed = 1;
nodes = (
(165,0,l),
(515,418,l),
(515,0,l),
(586,0,l),
(586,526,l),
(523,526,l),
(172,108,l),
(172,526,l),
(101,526,l),
(101,0,l)
);
}
);
userData = {
assembly = "NPUSHB[ ]	/* 27 values pushed */
7 2 2 2 0 1 74 1 1 0 0 34 75 3 1 2 2 33 2 76 18 17 18 16 4 7 24 
CALL[ ]	/* CallFunction */";
};
width = 688;
}
);
note = uni0438;
unicode = 1080;
},
{
glyphname = uni043A;
kernLeft = i;
kernRight = x;
layers = (
{
layerId = m01;
shapes = (
{
closed = 1;
nodes = (
(570,0,l),
(348,271,l),
(555,526,l),
(478,526,l),
(293,295,l),
(172,295,l),
(172,526,l),
(101,526,l),
(101,0,l),
(172,0,l),
(172,234,l),
(292,234,l),
(486,0,l)
);
}
);
userData = {
assembly = "NPUSHB[ ]	/* 36 values pushed */
10 1 0 3 1 74 0 3 0 0 1 3 0 101 4 1 2 2 34 75 5 1 1 1 33 1 76 18 17 17 17 17 16 6 7 26 
CALL[ ]	/* CallFunction */";
};
width = 581;
}
);
note = uni043A;
unicode = 1082;
},
{
glyphname = uni043B;
kernLeft = uni0434;
kernRight = g;
layers = (
{
layerId = m01;
shapes = (
{
closed = 1;
nodes = (
(137,338,ls),
(132,246,o),
(118,134,o),
(76,58,o),
(35,58,qs),
(28,58,o),
(10,62,q),
(5,1,l),
(35,-7,o),
(56,-7,qs),
(133,-7,o),
(193,169,o),
(201,333,qs),
(208,463,l),
(460,463,l),
(460,0,l),
(531,0,l),
(531,526,l),
(146,526,l)
);
}
);
userData = {
assembly = "NPUSHB[ ]	/* 10 values pushed */
11 1 3 1 10 1 0 3 2 74 
MPPEM[ ]	/* MeasurePixelPerEm */
PUSHB[ ]	/* 1 value pushed */
33 
LT[ ]	/* LessThan */
IF[ ]	/* If */
NPUSHB[ ]	/* 23 values pushed */
0 1 1 4 93 5 1 4 4 34 75 0 3 3 0 95 2 1 0 0 33 0 76 
ELSE[ ]	/* Else */
NPUSHB[ ]	/* 27 values pushed */
0 1 1 4 93 5 1 4 4 34 75 0 0 0 33 75 0 3 3 2 95 0 2 2 38 2 76 
EIF[ ]	/* EndIf */
NPUSHB[ ]	/* 13 values pushed */
0 0 0 18 0 18 35 35 17 17 6 7 24 
CALL[ ]	/* CallFunction */";
};
width = 632;
}
);
note = uni043B;
unicode = 1083;
},
{
glyphname = uni043C;
kernLeft = i;
kernRight = g;
layers = (
{
layerId = m01;
shapes = (
{
closed = 1;
nodes = (
(396,147,l),
(173,526,l),
(101,526,l),
(101,0,l),
(166,0,l),
(166,417,l),
(379,64,l),
(411,64,l),
(624,416,l),
(624,0,l),
(689,0,l),
(689,526,l),
(623,526,l)
);
}
);
userData = {
assembly = "NPUSHB[ ]	/* 43 values pushed */
11 6 3 3 1 3 1 74 0 1 3 0 3 1 0 126 5 4 2 3 3 34 75 2 1 0 0 33 0 76 0 0 0 12 0 12 17 18 18 17 6 7 24 
CALL[ ]	/* CallFunction */";
};
width = 790;
}
);
note = uni043C;
unicode = 1084;
},
{
glyphname = uni043D;
kernLeft = i;
kernRight = g;
layers = (
{
layerId = m01;
shapes = (
{
closed = 1;
nodes = (
(172,0,l),
(172,232,l),
(503,232,l),
(503,0,l),
(574,0,l),
(574,526,l),
(503,526,l),
(503,293,l),
(172,293,l),
(172,526,l),
(101,526,l),
(101,0,l)
);
}
);
userData = {
assembly = "NPUSHB[ ]	/* 30 values pushed */
0 1 0 4 3 1 4 101 2 1 0 0 34 75 5 1 3 3 33 3 76 17 17 17 17 17 16 6 7 26 
CALL[ ]	/* CallFunction */";
};
width = 675;
}
);
note = uni043D;
unicode = 1085;
},
{
glyphname = uni043F;
kernLeft = i;
kernRight = g;
layers = (
{
layerId = m01;
shapes = (
{
closed = 1;
nodes = (
(101,0,l),
(172,0,l),
(172,463,l),
(502,463,l),
(502,0,l),
(573,0,l),
(573,526,l),
(101,526,l)
);
}
);
userData = {
assembly = "NPUSHB[ ]	/* 30 values pushed */
0 1 1 3 93 4 1 3 3 34 75 2 1 0 0 33 0 76 0 0 0 7 0 7 17 17 17 5 7 23 
CALL[ ]	/* CallFunction */";
};
width = 674;
}
);
note = uni043F;
unicode = 1087;
},
{
glyphname = uni0442;
kernLeft = uni0442;
kernRight = uni0433;
layers = (
{
layerId = m01;
shapes = (
{
closed = 1;
nodes = (
(2,526,l),
(2,463,l),
(201,463,l),
(201,0,l),
(272,0,l),
(272,463,l),
(471,463,l),
(471,526,l)
);
}
);
userData = {
assembly = "NPUSHB[ ]	/* 24 values pushed */
2 1 0 0 3 93 0 3 3 34 75 0 1 1 33 1 76 17 17 17 16 4 7 24 
CALL[ ]	/* CallFunction */";
};
width = 473;
}
);
note = uni0442;
unicode = 1090;
},
{
glyphname = uni0444;
kernLeft = c;
kernRight = b;
layers = (
{
layerId = m01;
shapes = (
{
closed = 1;
nodes = (
(736,385,o),
(574,523,o),
(426,530,q),
(426,742,l),
(357,742,l),
(357,530,l),
(210,524,o),
(49,386,o),
(49,264,qs),
(49,141,o),
(210,0,o),
(357,-6,q),
(357,-194,l),
(426,-194,l),
(426,-5,l),
(574,1,o),
(736,141,o),
(736,264,qs)
);
},
{
closed = 1;
nodes = (
(119,356,o),
(241,461,o),
(357,467,q),
(357,57,l),
(240,64,o),
(119,170,o),
(119,264,qs)
);
},
{
closed = 1;
nodes = (
(426,467,l),
(543,461,o),
(666,357,o),
(666,264,qs),
(666,169,o),
(543,63,o),
(426,57,q)
);
}
);
userData = {
assembly = "NPUSHB[ ]	/* 54 values pushed */
0 4 3 4 131 8 1 7 7 3 95 5 1 3 3 34 75 10 9 2 6 6 0 95 2 1 0 0 33 75 0 1 1 36 1 76 25 25 25 31 25 31 23 17 20 17 17 20 17 17 17 11 7 29 
CALL[ ]	/* CallFunction */";
};
width = 785;
}
);
note = uni0444;
unicode = 1092;
},
{
glyphname = uni0446;
kernLeft = i;
kernRight = g;
layers = (
{
layerId = m01;
shapes = (
{
closed = 1;
nodes = (
(564,526,l),
(493,526,l),
(493,62,l),
(172,62,l),
(172,526,l),
(101,526,l),
(101,0,l),
(582,0,l),
(582,-132,l),
(649,-132,l),
(649,62,l),
(564,62,l)
);
}
);
userData = {
assembly = "NPUSHB[ ]	/* 38 values pushed */
0 0 1 0 132 4 1 2 2 34 75 6 5 2 3 3 1 94 0 1 1 33 1 76 0 0 0 11 0 11 17 17 17 17 17 7 7 25 
CALL[ ]	/* CallFunction */";
};
width = 684;
}
);
note = uni0446;
unicode = 1094;
},
{
glyphname = uni0447;
kernLeft = u;
kernRight = g;
layers = (
{
layerId = m01;
shapes = (
{
closed = 1;
nodes = (
(427,276,l),
(335,237,o),
(261,237,qs),
(194,237,o),
(118,298,o),
(118,357,qs),
(118,526,l),
(47,526,l),
(47,353,ls),
(47,266,o),
(153,179,o),
(248,179,qs),
(336,179,o),
(427,219,q),
(427,0,l),
(498,0,l),
(498,526,l),
(427,526,l)
);
}
);
userData = {
assembly = "NPUSHB[ ]	/* 44 values pushed */
16 1 3 2 3 1 1 3 2 74 0 3 0 1 0 3 1 103 5 4 2 2 2 34 75 0 0 0 33 0 76 0 0 0 17 0 17 35 19 34 17 6 7 24 
CALL[ ]	/* CallFunction */";
};
width = 599;
}
);
note = uni0447;
unicode = 1095;
},
{
glyphname = uni0448;
kernLeft = i;
kernRight = g;
layers = (
{
layerId = m01;
shapes = (
{
closed = 1;
nodes = (
(756,62,l),
(501,62,l),
(501,526,l),
(430,526,l),
(430,62,l),
(172,62,l),
(172,526,l),
(101,526,l),
(101,0,l),
(827,0,l),
(827,526,l),
(756,526,l)
);
}
);
userData = {
assembly = "NPUSHB[ ]	/* 34 values pushed */
6 5 3 3 1 1 34 75 4 1 2 2 0 94 0 0 0 33 0 76 0 0 0 11 0 11 17 17 17 17 17 7 7 25 
CALL[ ]	/* CallFunction */";
};
width = 929;
}
);
note = uni0448;
unicode = 1096;
},
{
glyphname = uni044A;
kernLeft = uni0442;
layers = (
{
layerId = m01;
shapes = (
{
closed = 1;
nodes = (
(237,342,l),
(237,526,l),
(2,526,l),
(2,463,l),
(166,463,l),
(166,0,l),
(374,0,ls),
(477,0,o),
(587,89,o),
(587,174,qs),
(587,254,o),
(485,342,o),
(388,342,qs)
);
},
{
closed = 1;
nodes = (
(237,55,l),
(237,288,l),
(373,288,ls),
(515,288,o),
(515,174,qs),
(515,115,o),
(443,55,o),
(373,55,qs)
);
}
);
userData = {
assembly = "NPUSHB[ ]	/* 51 values pushed */
6 1 3 0 4 5 3 4 101 0 1 1 2 93 0 2 2 34 75 7 1 5 5 0 93 0 0 0 33 0 76 13 13 0 0 13 20 13 19 18 16 0 12 0 11 17 17 36 8 7 23 
CALL[ ]	/* CallFunction */";
};
width = 621;
}
);
note = uni044A;
unicode = 1098;
},
{
glyphname = uni044B;
kernLeft = i;
kernRight = g;
layers = (
{
layerId = m01;
shapes = (
{
closed = 1;
nodes = (
(172,342,l),
(172,526,l),
(101,526,l),
(101,0,l),
(309,-1,ls),
(413,-2,o),
(525,88,o),
(525,172,qs),
(525,253,o),
(421,339,o),
(322,340,qs)
);
},
{
closed = 1;
nodes = (
(684,0,l),
(684,526,l),
(613,526,l),
(613,0,l)
);
},
{
closed = 1;
nodes = (
(172,55,l),
(172,289,l),
(305,287,ls),
(379,286,o),
(453,230,o),
(453,172,qs),
(453,113,o),
(378,52,o),
(305,53,qs)
);
}
);
userData = {
assembly = "NPUSHB[ ]	/* 51 values pushed */
7 1 2 0 5 6 2 5 101 3 1 1 1 34 75 8 1 6 6 0 94 4 1 0 0 33 0 76 15 15 0 0 15 23 15 22 21 19 14 13 12 11 0 10 0 9 17 36 9 7 22 
CALL[ ]	/* CallFunction */";
};
width = 785;
}
);
note = uni044B;
unicode = 1099;
},
{
glyphname = uni044C;
kernLeft = i;
layers = (
{
layerId = m01;
shapes = (
{
closed = 1;
nodes = (
(172,342,l),
(172,526,l),
(101,526,l),
(101,0,l),
(313,-1,ls),
(418,-2,o),
(529,88,o),
(529,172,qs),
(529,253,o),
(426,339,o),
(327,340,qs)
);
},
{
closed = 1;
nodes = (
(172,55,l),
(172,289,l),
(309,287,ls),
(383,286,o),
(457,230,o),
(457,172,qs),
(457,113,o),
(382,52,o),
(309,53,qs)
);
}
);
userData = {
assembly = "NPUSHB[ ]	/* 45 values pushed */
5 1 2 0 3 4 2 3 101 0 1 1 34 75 6 1 4 4 0 94 0 0 0 33 0 76 11 11 0 0 11 19 11 18 17 15 0 10 0 9 17 36 7 7 22 
CALL[ ]	/* CallFunction */";
};
width = 563;
}
);
note = uni044C;
unicode = 1100;
},
{
glyphname = uni044D;
kernLeft = uni01EF;
kernRight = b;
layers = (
{
layerId = m01;
shapes = (
{
closed = 1;
nodes = (
(178,530,o),
(68,489,o),
(30,450,q),
(72,409,l),
(139,472,o),
(241,472,qs),
(325,472,o),
(443,373,o),
(454,294,q),
(174,294,l),
(174,240,l),
(455,240,l),
(450,187,o),
(391,101,o),
(298,53,o),
(241,53,qs),
(139,53,o),
(72,116,q),
(30,74,l),
(68,35,o),
(178,-6,o),
(244,-6,qs),
(323,-6,o),
(450,64,o),
(523,187,o),
(523,263,qs),
(523,339,o),
(450,461,o),
(323,530,o),
(244,530,qs)
);
}
);
userData = {
assembly = "NPUSHB[ ]	/* 56 values pushed */
26 25 2 3 4 11 10 2 1 2 2 74 0 3 0 2 1 3 2 101 0 4 4 5 95 6 1 5 5 39 75 0 1 1 0 95 0 0 0 38 0 76 0 0 0 29 0 28 34 17 19 36 38 7 7 25 
CALL[ ]	/* CallFunction */";
};
width = 571;
}
);
note = uni044D;
unicode = 1101;
},
{
glyphname = uni044E;
kernLeft = i;
kernRight = b;
layers = (
{
layerId = m01;
shapes = (
{
closed = 1;
nodes = (
(484,530,o),
(372,472,o),
(301,367,o),
(293,299,q),
(172,299,l),
(172,526,l),
(101,526,l),
(101,0,l),
(172,0,l),
(172,234,l),
(292,234,l),
(298,164,o),
(369,56,o),
(483,-5,o),
(553,-5,qs),
(627,-5,o),
(746,64,o),
(814,186,o),
(814,263,qs),
(814,340,o),
(746,462,o),
(627,530,o),
(553,530,qs)
);
},
{
closed = 1;
nodes = (
(499,57,o),
(412,109,o),
(362,203,o),
(362,263,qs),
(362,323,o),
(412,417,o),
(499,468,o),
(553,468,qs),
(607,468,o),
(694,417,o),
(744,323,o),
(744,263,qs),
(744,203,o),
(694,109,o),
(607,57,o),
(553,57,qs)
);
}
);
userData = {
assembly = "MPPEM[ ]	/* MeasurePixelPerEm */
PUSHB[ ]	/* 1 value pushed */
46 
LT[ ]	/* LessThan */
IF[ ]	/* If */
NPUSHB[ ]	/* 33 values pushed */
0 4 0 1 7 4 1 101 0 6 6 3 95 8 5 2 3 3 34 75 9 1 7 7 0 95 2 1 0 0 40 0 76 
ELSE[ ]	/* Else */
NPUSHB[ ]	/* 37 values pushed */
0 4 0 1 7 4 1 101 0 6 6 3 95 8 5 2 3 3 34 75 0 2 2 33 75 9 1 7 7 0 95 0 0 0 40 0 76 
EIF[ ]	/* EndIf */
NPUSHB[ ]	/* 22 values pushed */
23 23 0 0 23 38 23 37 31 29 0 22 0 21 17 17 17 19 38 10 7 25 
CALL[ ]	/* CallFunction */";
};
width = 865;
}
);
note = uni044E;
unicode = 1102;
},
{
glyphname = uni044F;
kernLeft = x;
kernRight = g;
layers = (
{
layerId = m01;
shapes = (
{
closed = 1;
nodes = (
(180,526,o),
(60,434,o),
(60,346,qs),
(60,283,o),
(126,201,o),
(187,184,q),
(56,0,l),
(133,0,l),
(255,174,l),
(275,174,l),
(440,174,l),
(440,0,l),
(505,0,l),
(505,526,l),
(284,526,ls)
);
},
{
closed = 1;
nodes = (
(132,463,o),
(286,463,qs),
(440,463,l),
(440,227,l),
(281,227,ls),
(132,227,o),
(132,344,qs)
);
}
);
userData = {
assembly = "NPUSHB[ ]	/* 48 values pushed */
8 1 1 4 1 74 0 4 0 1 0 4 1 101 0 5 5 3 93 6 1 3 3 34 75 2 1 0 0 33 0 76 0 0 20 18 17 15 0 14 0 13 17 33 17 7 7 23 
CALL[ ]	/* CallFunction */";
};
width = 606;
}
);
note = uni044F;
unicode = 1103;
},
{
glyphname = uni0452;
kernLeft = b;
kernRight = g;
layers = (
{
layerId = m01;
shapes = (
{
closed = 1;
nodes = (
(301,530,o),
(198,478,o),
(170,430,q),
(170,607,l),
(419,607,l),
(419,659,l),
(170,659,l),
(170,742,l),
(102,742,l),
(102,659,l),
(-7,659,l),
(-7,607,l),
(102,607,l),
(102,0,l),
(173,0,l),
(173,276,ls),
(173,365,o),
(272,466,o),
(357,466,qs),
(432,466,o),
(514,380,o),
(514,298,qs),
(514,-39,ls),
(514,-88,o),
(469,-138,o),
(427,-138,qs),
(377,-138,o),
(345,-111,q),
(320,-165,l),
(339,-182,o),
(398,-199,o),
(432,-199,qs),
(505,-199,o),
(585,-113,o),
(585,-39,qs),
(585,305,ls),
(585,415,o),
(468,530,o),
(369,530,qs)
);
}
);
userData = {
assembly = "NPUSHB[ ]	/* 74 values pushed */
35 1 3 2 10 1 1 3 9 1 0 1 3 74 0 6 5 6 131 7 1 5 8 1 4 9 5 4 101 0 2 2 9 95 10 1 9 9 39 75 0 3 3 33 75 0 1 1 0 95 0 0 0 41 0 76 0 0 0 38 0 37 17 17 17 17 17 19 37 36 37 11 7 29 
CALL[ ]	/* CallFunction */";
};
width = 671;
}
);
note = uni0452;
unicode = 1106;
},
{
glyphname = uni045A;
kernLeft = i;
layers = (
{
layerId = m01;
shapes = (
{
closed = 1;
nodes = (
(563,314,l),
(563,526,l),
(492,526,l),
(492,314,l),
(172,314,l),
(172,526,l),
(101,526,l),
(101,0,l),
(172,0,l),
(172,253,l),
(492,253,l),
(492,0,l),
(710,0,ls),
(807,0,o),
(915,86,o),
(915,162,qs),
(915,235,o),
(816,314,o),
(724,314,qs)
);
},
{
closed = 1;
nodes = (
(563,54,l),
(563,256,l),
(708,256,ls),
(773,256,o),
(843,206,o),
(843,158,qs),
(843,108,o),
(772,54,o),
(708,54,qs)
);
}
);
userData = {
assembly = "NPUSHB[ ]	/* 53 values pushed */
9 6 2 4 7 1 1 8 4 1 101 5 1 3 3 34 75 10 1 8 8 0 94 2 1 0 0 33 0 76 19 19 0 0 19 27 19 26 25 23 0 18 0 17 17 17 17 17 17 36 11 7 26 
CALL[ ]	/* CallFunction */";
};
width = 944;
}
);
note = uni045A;
unicode = 1114;
},
{
glyphname = uni045B;
kernLeft = uni045B;
kernRight = a;
layers = (
{
layerId = m01;
shapes = (
{
closed = 1;
nodes = (
(303,530,o),
(202,480,o),
(173,435,q),
(173,610,l),
(422,610,l),
(422,655,l),
(173,655,l),
(173,742,l),
(102,742,l),
(102,655,l),
(-33,655,l),
(-33,610,l),
(102,610,l),
(102,0,l),
(173,0,l),
(173,276,ls),
(173,365,o),
(272,466,o),
(357,466,qs),
(432,466,o),
(514,380,o),
(514,298,qs),
(514,0,l),
(585,0,l),
(585,305,ls),
(585,415,o),
(468,530,o),
(369,530,qs)
);
}
);
userData = {
assembly = "NPUSHB[ ]	/* 56 values pushed */
24 1 0 1 1 74 0 5 4 5 131 6 1 4 7 1 3 8 4 3 101 0 1 1 8 95 9 1 8 8 39 75 2 1 0 0 33 0 76 0 0 0 27 0 26 17 17 17 17 17 19 35 19 10 7 28 
CALL[ ]	/* CallFunction */";
};
width = 670;
}
);
note = uni045B;
unicode = 1115;
},
{
glyphname = uni045F;
kernLeft = i;
kernRight = g;
layers = (
{
layerId = m01;
shapes = (
{
closed = 1;
nodes = (
(467,526,l),
(467,62,l),
(172,62,l),
(172,526,l),
(101,526,l),
(101,0,l),
(286,0,l),
(286,-132,l),
(354,-132,l),
(354,0,l),
(538,0,l),
(538,526,l)
);
}
);
userData = {
assembly = "NPUSHB[ ]	/* 32 values pushed */
0 1 0 1 132 5 1 3 3 34 75 0 4 4 0 94 2 1 0 0 33 0 76 17 17 17 17 17 16 6 7 26 
CALL[ ]	/* CallFunction */";
};
width = 639;
}
);
note = uni045F;
unicode = 1119;
},
{
glyphname = uni0462;
kernLeft = T;
kernRight = uni0462;
layers = (
{
layerId = m01;
shapes = (
{
closed = 1;
nodes = (
(282,447,l),
(282,563,l),
(501,563,l),
(501,619,l),
(282,619,l),
(282,742,l),
(209,742,l),
(209,619,l),
(19,619,l),
(19,563,l),
(209,563,l),
(209,0,l),
(489,0,ls),
(619,0,o),
(758,118,o),
(758,228,qs),
(758,335,o),
(629,447,o),
(505,447,qs)
);
},
{
closed = 1;
nodes = (
(282,59,l),
(282,388,l),
(488,388,ls),
(683,388,o),
(683,226,qs),
(683,143,o),
(585,59,o),
(488,59,qs)
);
}
);
userData = {
assembly = "NPUSHB[ ]	/* 59 values pushed */
0 3 2 3 131 4 1 2 5 1 1 6 2 1 101 9 1 6 0 7 8 6 7 101 10 1 8 8 0 93 0 0 0 33 0 76 19 19 0 0 19 26 19 25 24 22 0 18 0 17 17 17 17 17 17 36 11 7 26 
CALL[ ]	/* CallFunction */";
};
width = 802;
}
);
note = uni0462;
unicode = 1122;
},
{
glyphname = uni0463;
kernLeft = uni0442;
kernRight = uni0463;
layers = (
{
layerId = m01;
shapes = (
{
closed = 1;
nodes = (
(206,342,l),
(206,491,l),
(403,491,l),
(403,545,l),
(206,545,l),
(206,742,l),
(135,742,l),
(135,545,l),
(2,545,l),
(2,491,l),
(135,491,l),
(135,0,l),
(347,-1,ls),
(451,-2,o),
(563,88,o),
(563,172,qs),
(563,253,o),
(459,339,o),
(360,340,qs)
);
},
{
closed = 1;
nodes = (
(206,55,l),
(206,289,l),
(343,287,ls),
(417,286,o),
(491,230,o),
(491,172,qs),
(491,113,o),
(416,52,o),
(343,53,qs)
);
}
);
userData = {
assembly = "MPPEM[ ]	/* MeasurePixelPerEm */
PUSHB[ ]	/* 1 value pushed */
26 
LT[ ]	/* LessThan */
IF[ ]	/* If */
NPUSHB[ ]	/* 38 values pushed */
0 3 2 3 131 9 1 6 0 7 8 6 7 101 5 1 1 1 2 93 4 1 2 2 34 75 10 1 8 8 0 93 0 0 0 33 0 76 
ELSE[ ]	/* Else */
NPUSHB[ ]	/* 36 values pushed */
0 3 2 3 131 4 1 2 5 1 1 6 2 1 101 9 1 6 0 7 8 6 7 101 10 1 8 8 0 93 0 0 0 33 0 76 
EIF[ ]	/* EndIf */
NPUSHB[ ]	/* 23 values pushed */
19 19 0 0 19 27 19 26 25 23 0 18 0 17 17 17 17 17 17 36 11 7 26 
CALL[ ]	/* CallFunction */";
};
width = 596;
}
);
note = uni0463;
unicode = 1123;
},
{
glyphname = uni046A;
kernLeft = X;
kernRight = X;
layers = (
{
layerId = m01;
shapes = (
{
closed = 1;
nodes = (
(703,369,o),
(530,369,qs),
(519,369,l),
(783,652,l),
(783,700,l),
(101,700,l),
(101,649,l),
(365,369,l),
(355,369,ls),
(183,369,o),
(96,163,qs),
(22,0,l),
(99,0,l),
(162,144,ls),
(230,313,o),
(371,313,qs),
(408,313,l),
(408,0,l),
(477,0,l),
(477,313,l),
(515,313,ls),
(582,313,o),
(687,229,o),
(722,144,qs),
(785,0,l),
(862,0,l),
(789,163,ls)
);
},
{
closed = 1;
nodes = (
(699,642,l),
(442,369,l),
(185,642,l)
);
}
);
userData = {
assembly = "NPUSHB[ ]	/* 47 values pushed */
22 19 2 8 6 1 74 7 1 5 3 1 1 0 5 1 103 0 8 8 6 93 0 6 6 32 75 4 2 2 0 0 33 0 76 19 34 18 34 18 33 17 35 16 9 7 29 
CALL[ ]	/* CallFunction */";
};
width = 884;
}
);
note = uni046A;
unicode = 1130;
},
{
glyphname = uni046B;
kernLeft = x;
kernRight = x;
layers = (
{
layerId = m01;
shapes = (
{
closed = 1;
nodes = (
(575,201,o),
(480,279,o),
(414,279,qs),
(410,279,l),
(600,479,l),
(600,526,l),
(78,526,l),
(78,479,l),
(268,279,l),
(267,279,ls),
(201,279,o),
(106,202,o),
(72,120,qs),
(20,0,l),
(91,0,l),
(134,103,ls),
(158,167,o),
(231,228,o),
(281,228,qs),
(308,228,l),
(308,0,l),
(370,0,l),
(370,228,l),
(401,228,ls),
(451,228,o),
(522,167,o),
(546,103,qs),
(590,0,l),
(661,0,l),
(609,120,ls)
);
},
{
closed = 1;
nodes = (
(525,475,l),
(339,279,l),
(154,475,l)
);
}
);
userData = {
assembly = "NPUSHB[ ]	/* 47 values pushed */
24 21 2 8 6 1 74 7 1 5 3 1 1 0 5 1 103 0 8 8 6 93 0 6 6 34 75 4 2 2 0 0 33 0 76 20 34 19 19 19 33 17 35 16 9 7 29 
CALL[ ]	/* CallFunction */";
};
width = 680;
}
);
note = uni046B;
unicode = 1131;
},
{
glyphname = uni0474;
kernLeft = V;
kernRight = V;
layers = (
{
layerId = m01;
shapes = (
{
closed = 1;
nodes = (
(380,0,l),
(563,505,ls),
(588,573,o),
(643,634,o),
(686,634,qs),
(706,634,o),
(728,628,q),
(737,701,l),
(702,709,o),
(676,709,qs),
(615,709,o),
(533,631,o),
(504,548,qs),
(344,106,l),
(99,700,l),
(19,700,l),
(307,0,l)
);
}
);
userData = {
assembly = "MPPEM[ ]	/* MeasurePixelPerEm */
PUSHB[ ]	/* 1 value pushed */
26 
LT[ ]	/* LessThan */
IF[ ]	/* If */
NPUSHB[ ]	/* 11 values pushed */
9 2 2 3 2 1 74 8 1 0 72 
ELSE[ ]	/* Else */
NPUSHB[ ]	/* 11 values pushed */
8 1 0 1 9 2 2 3 2 2 74 
EIF[ ]	/* EndIf */
MPPEM[ ]	/* MeasurePixelPerEm */
PUSHB[ ]	/* 1 value pushed */
26 
LT[ ]	/* LessThan */
IF[ ]	/* If */
NPUSHB[ ]	/* 17 values pushed */
0 2 2 0 95 1 1 0 0 32 75 0 3 3 33 3 76 
ELSE[ ]	/* Else */
NPUSHB[ ]	/* 21 values pushed */
0 0 0 32 75 0 2 2 1 95 0 1 1 37 75 0 3 3 33 3 76 
EIF[ ]	/* EndIf */
PUSHB[ ]	/* 7 values pushed */
19 35 36 16 4 7 24 
CALL[ ]	/* CallFunction */";
};
width = 748;
}
);
note = uni0474;
unicode = 1140;
},
{
glyphname = uni0475;
kernLeft = v;
kernRight = v;
layers = (
{
layerId = m01;
shapes = (
{
closed = 1;
nodes = (
(276,91,l),
(88,526,l),
(10,526,l),
(240,0,l),
(311,0,l),
(453,367,ls),
(474,420,o),
(506,460,o),
(530,460,qs),
(545,460,o),
(565,454,q),
(573,524,l),
(541,532,o),
(520,532,qs),
(478,532,o),
(421,476,o),
(397,413,qs)
);
}
);
userData = {
assembly = "MPPEM[ ]	/* MeasurePixelPerEm */
PUSHB[ ]	/* 1 value pushed */
39 
LT[ ]	/* LessThan */
IF[ ]	/* If */
NPUSHB[ ]	/* 11 values pushed */
4 1 1 0 15 5 2 2 1 2 74 
ELSE[ ]	/* Else */
NPUSHB[ ]	/* 11 values pushed */
4 1 1 3 15 5 2 2 1 2 74 
EIF[ ]	/* EndIf */
MPPEM[ ]	/* MeasurePixelPerEm */
PUSHB[ ]	/* 1 value pushed */
39 
LT[ ]	/* LessThan */
IF[ ]	/* If */
NPUSHB[ ]	/* 17 values pushed */
0 1 1 0 95 3 1 0 0 39 75 0 2 2 33 2 76 
ELSE[ ]	/* Else */
NPUSHB[ ]	/* 21 values pushed */
0 3 3 34 75 0 1 1 0 95 0 0 0 39 75 0 2 2 33 2 76 
EIF[ ]	/* EndIf */
PUSHB[ ]	/* 7 values pushed */
17 19 35 33 4 7 24 
CALL[ ]	/* CallFunction */";
};
width = 576;
}
);
note = uni0475;
unicode = 1141;
},
{
glyphname = uni048A;
kernLeft = B;
kernRight = uni0414;
layers = (
{
layerId = m01;
shapes = (
{
closed = 1;
nodes = (
(484,751,o),
(572,819,o),
(573,880,q),
(518,880,l),
(517,840,o),
(458,794,o),
(410,794,qs),
(361,794,o),
(303,840,o),
(302,880,q),
(247,880,l),
(248,819,o),
(335,751,o),
(410,751,qs)
);
},
{
closed = 1;
nodes = (
(706,700,l),
(639,700,l),
(191,120,l),
(191,700,l),
(118,700,l),
(118,0,l),
(185,0,l),
(633,579,l),
(633,0,l),
(720,0,l),
(679,-157,l),
(738,-157,l),
(805,64,l),
(706,64,l)
);
}
);
userData = {
assembly = "NPUSHB[ ]	/* 74 values pushed */
24 19 2 9 7 1 74 2 1 0 1 0 131 0 4 5 4 132 0 1 10 1 3 7 1 3 103 8 1 7 7 32 75 11 1 9 9 5 93 6 1 5 5 33 5 76 14 14 0 0 14 27 14 27 26 25 23 22 21 20 18 17 16 15 0 13 0 12 18 34 18 12 7 23 
CALL[ ]	/* CallFunction */";
};
width = 848;
}
);
note = uni048A;
unicode = 1162;
},
{
glyphname = uni048B;
kernLeft = i;
kernRight = g;
layers = (
{
layerId = m01;
shapes = (
{
closed = 1;
nodes = (
(404,603,o),
(490,673,o),
(492,732,q),
(442,732,l),
(441,693,o),
(383,647,o),
(340,647,qs),
(297,647,o),
(239,693,o),
(238,732,q),
(188,732,l),
(190,673,o),
(276,603,o),
(340,603,qs)
);
},
{
closed = 1;
nodes = (
(586,526,l),
(523,526,l),
(172,108,l),
(172,526,l),
(101,526,l),
(101,0,l),
(165,0,l),
(515,418,l),
(515,0,l),
(591,0,l),
(559,-115,l),
(617,-115,l),
(672,62,l),
(586,62,l)
);
}
);
userData = {
assembly = "PUSHB[ ]	/* 7 values pushed */
24 19 2 9 7 1 74 
MPPEM[ ]	/* MeasurePixelPerEm */
PUSHB[ ]	/* 1 value pushed */
10 
LT[ ]	/* LessThan */
IF[ ]	/* If */
NPUSHB[ ]	/* 40 values pushed */
2 1 0 1 0 131 0 4 5 5 4 111 0 1 10 1 3 7 1 3 103 8 1 7 7 34 75 11 1 9 9 5 94 6 1 5 5 33 5 76 
ELSE[ ]	/* Else */
NPUSHB[ ]	/* 39 values pushed */
2 1 0 1 0 131 0 4 5 4 132 0 1 10 1 3 7 1 3 103 8 1 7 7 34 75 11 1 9 9 5 94 6 1 5 5 33 5 76 
EIF[ ]	/* EndIf */
NPUSHB[ ]	/* 28 values pushed */
14 14 0 0 14 27 14 27 26 25 23 22 21 20 18 17 16 15 0 13 0 12 18 34 18 12 7 23 
CALL[ ]	/* CallFunction */";
};
width = 708;
}
);
note = uni048B;
unicode = 1163;
},
{
glyphname = uni048C;
kernLeft = B;
kernRight = uni0409;
layers = (
{
layerId = m01;
shapes = (
{
closed = 1;
nodes = (
(216,447,l),
(216,563,l),
(439,563,l),
(439,619,l),
(216,619,l),
(216,742,l),
(143,742,l),
(143,619,l),
(33,619,l),
(33,563,l),
(143,563,l),
(143,0,l),
(422,0,ls),
(552,0,o),
(691,118,o),
(691,228,qs),
(691,335,o),
(562,447,o),
(438,447,qs)
);
},
{
closed = 1;
nodes = (
(216,59,l),
(216,388,l),
(422,388,ls),
(617,388,o),
(617,226,qs),
(617,143,o),
(519,59,o),
(422,59,qs)
);
}
);
userData = {
assembly = "NPUSHB[ ]	/* 59 values pushed */
0 3 2 3 131 4 1 2 5 1 1 6 2 1 101 9 1 6 0 7 8 6 7 101 10 1 8 8 0 93 0 0 0 33 0 76 19 19 0 0 19 26 19 25 24 22 0 18 0 17 17 17 17 17 17 36 11 7 26 
CALL[ ]	/* CallFunction */";
};
width = 735;
}
);
note = uni048C;
unicode = 1164;
},
{
glyphname = uni048D;
kernLeft = uni048D;
kernRight = uni0463;
layers = (
{
layerId = m01;
shapes = (
{
closed = 1;
nodes = (
(203,333,l),
(203,405,l),
(400,405,l),
(400,458,l),
(203,458,l),
(203,526,l),
(132,526,l),
(132,458,l),
(23,458,l),
(23,405,l),
(132,405,l),
(132,0,l),
(344,-1,ls),
(448,-3,o),
(560,85,o),
(560,169,qs),
(560,329,o),
(358,332,qs)
);
},
{
closed = 1;
nodes = (
(203,55,l),
(203,280,l),
(340,279,ls),
(416,277,o),
(488,227,o),
(488,170,qs),
(488,111,o),
(413,52,o),
(340,53,qs)
);
}
);
userData = {
assembly = "NPUSHB[ ]	/* 59 values pushed */
4 1 2 5 1 1 6 2 1 101 9 1 6 0 7 8 6 7 101 0 3 3 34 75 10 1 8 8 0 94 0 0 0 33 0 76 18 18 0 0 18 26 18 25 24 22 0 17 0 16 17 17 17 17 17 35 11 7 26 
CALL[ ]	/* CallFunction */";
};
width = 593;
}
);
note = uni048D;
unicode = 1165;
},
